<svg width="387" height="288" viewBox="0 0 387 288" fill="none" xmlns="http://www.w3.org/2000/svg">
<rect width="100" height="100" rx="50" fill="#EEF4FF"/>
<path d="M7.584 176.168C6.352 176.168 5.248 175.968 4.272 175.568C3.296 175.168 2.512 174.576 1.92 173.792C1.344 173.008 1.04 172.064 1.008 170.96H5.376C5.44 171.584 5.656 172.064 6.024 172.4C6.392 172.72 6.872 172.88 7.464 172.88C8.072 172.88 8.552 172.744 8.904 172.472C9.256 172.184 9.432 171.792 9.432 171.296C9.432 170.88 9.288 170.536 9 170.264C8.728 169.992 8.384 169.768 7.968 169.592C7.568 169.416 6.992 169.216 6.24 168.992C5.152 168.656 4.264 168.32 3.576 167.984C2.888 167.648 2.296 167.152 1.8 166.496C1.304 165.84 1.056 164.984 1.056 163.928C1.056 162.36 1.624 161.136 2.76 160.256C3.896 159.36 5.376 158.912 7.2 158.912C9.056 158.912 10.552 159.36 11.688 160.256C12.824 161.136 13.432 162.368 13.512 163.952H9.072C9.04 163.408 8.84 162.984 8.472 162.68C8.104 162.36 7.632 162.2 7.056 162.2C6.56 162.2 6.16 162.336 5.856 162.608C5.552 162.864 5.4 163.24 5.4 163.736C5.4 164.28 5.656 164.704 6.168 165.008C6.68 165.312 7.48 165.64 8.568 165.992C9.656 166.36 10.536 166.712 11.208 167.048C11.896 167.384 12.488 167.872 12.984 168.512C13.48 169.152 13.728 169.976 13.728 170.984C13.728 171.944 13.48 172.816 12.984 173.6C12.504 174.384 11.8 175.008 10.872 175.472C9.944 175.936 8.848 176.168 7.584 176.168ZM28.8776 169.088C28.8776 169.472 28.8536 169.872 28.8056 170.288H19.5176C19.5816 171.12 19.8456 171.76 20.3096 172.208C20.7896 172.64 21.3736 172.856 22.0616 172.856C23.0856 172.856 23.7976 172.424 24.1976 171.56H28.5656C28.3416 172.44 27.9336 173.232 27.3416 173.936C26.7656 174.64 26.0376 175.192 25.1576 175.592C24.2776 175.992 23.2936 176.192 22.2056 176.192C20.8936 176.192 19.7256 175.912 18.7016 175.352C17.6776 174.792 16.8776 173.992 16.3016 172.952C15.7256 171.912 15.4376 170.696 15.4376 169.304C15.4376 167.912 15.7176 166.696 16.2776 165.656C16.8536 164.616 17.6536 163.816 18.6776 163.256C19.7016 162.696 20.8776 162.416 22.2056 162.416C23.5016 162.416 24.6536 162.688 25.6616 163.232C26.6696 163.776 27.4536 164.552 28.0136 165.56C28.5896 166.568 28.8776 167.744 28.8776 169.088ZM24.6776 168.008C24.6776 167.304 24.4376 166.744 23.9576 166.328C23.4776 165.912 22.8776 165.704 22.1576 165.704C21.4696 165.704 20.8856 165.904 20.4056 166.304C19.9416 166.704 19.6536 167.272 19.5416 168.008H24.6776ZM38.5067 172.52V176H36.4187C34.9307 176 33.7707 175.64 32.9387 174.92C32.1067 174.184 31.6907 172.992 31.6907 171.344V166.016H30.0587V162.608H31.6907V159.344H35.7947V162.608H38.4827V166.016H35.7947V171.392C35.7947 171.792 35.8907 172.08 36.0827 172.256C36.2747 172.432 36.5947 172.52 37.0427 172.52H38.5067ZM45.0626 169.28C45.0626 167.904 45.3186 166.696 45.8306 165.656C46.3586 164.616 47.0706 163.816 47.9666 163.256C48.8626 162.696 49.8626 162.416 50.9666 162.416C51.9106 162.416 52.7346 162.608 53.4386 162.992C54.1586 163.376 54.7106 163.88 55.0946 164.504V162.608H59.1986V176H55.0946V174.104C54.6946 174.728 54.1346 175.232 53.4146 175.616C52.7106 176 51.8866 176.192 50.9426 176.192C49.8546 176.192 48.8626 175.912 47.9666 175.352C47.0706 174.776 46.3586 173.968 45.8306 172.928C45.3186 171.872 45.0626 170.656 45.0626 169.28ZM55.0946 169.304C55.0946 168.28 54.8066 167.472 54.2306 166.88C53.6706 166.288 52.9826 165.992 52.1666 165.992C51.3506 165.992 50.6546 166.288 50.0786 166.88C49.5186 167.456 49.2386 168.256 49.2386 169.28C49.2386 170.304 49.5186 171.12 50.0786 171.728C50.6546 172.32 51.3506 172.616 52.1666 172.616C52.9826 172.616 53.6706 172.32 54.2306 171.728C54.8066 171.136 55.0946 170.328 55.0946 169.304ZM71.3576 164.504C71.7416 163.88 72.2936 163.376 73.0136 162.992C73.7336 162.608 74.5576 162.416 75.4856 162.416C76.5896 162.416 77.5896 162.696 78.4856 163.256C79.3816 163.816 80.0856 164.616 80.5976 165.656C81.1256 166.696 81.3896 167.904 81.3896 169.28C81.3896 170.656 81.1256 171.872 80.5976 172.928C80.0856 173.968 79.3816 174.776 78.4856 175.352C77.5896 175.912 76.5896 176.192 75.4856 176.192C74.5416 176.192 73.7176 176.008 73.0136 175.64C72.3096 175.256 71.7576 174.752 71.3576 174.128V176H67.2536V158.24H71.3576V164.504ZM77.2136 169.28C77.2136 168.256 76.9256 167.456 76.3496 166.88C75.7896 166.288 75.0936 165.992 74.2616 165.992C73.4456 165.992 72.7496 166.288 72.1736 166.88C71.6136 167.472 71.3336 168.28 71.3336 169.304C71.3336 170.328 71.6136 171.136 72.1736 171.728C72.7496 172.32 73.4456 172.616 74.2616 172.616C75.0776 172.616 75.7736 172.32 76.3496 171.728C76.9256 171.12 77.2136 170.304 77.2136 169.28ZM96.1667 169.088C96.1667 169.472 96.1427 169.872 96.0947 170.288H86.8067C86.8707 171.12 87.1347 171.76 87.5987 172.208C88.0787 172.64 88.6627 172.856 89.3507 172.856C90.3747 172.856 91.0867 172.424 91.4867 171.56H95.8547C95.6307 172.44 95.2227 173.232 94.6307 173.936C94.0547 174.64 93.3267 175.192 92.4467 175.592C91.5667 175.992 90.5827 176.192 89.4947 176.192C88.1827 176.192 87.0147 175.912 85.9907 175.352C84.9667 174.792 84.1667 173.992 83.5907 172.952C83.0147 171.912 82.7267 170.696 82.7267 169.304C82.7267 167.912 83.0067 166.696 83.5667 165.656C84.1427 164.616 84.9427 163.816 85.9667 163.256C86.9907 162.696 88.1667 162.416 89.4947 162.416C90.7907 162.416 91.9427 162.688 92.9507 163.232C93.9587 163.776 94.7427 164.552 95.3027 165.56C95.8787 166.568 96.1667 167.744 96.1667 169.088ZM91.9667 168.008C91.9667 167.304 91.7267 166.744 91.2467 166.328C90.7667 165.912 90.1667 165.704 89.4467 165.704C88.7587 165.704 88.1747 165.904 87.6947 166.304C87.2307 166.704 86.9427 167.272 86.8307 168.008H91.9667ZM105.796 172.52V176H103.708C102.22 176 101.06 175.64 100.228 174.92C99.3958 174.184 98.9798 172.992 98.9798 171.344V166.016H97.3478V162.608H98.9798V159.344H103.084V162.608H105.772V166.016H103.084V171.392C103.084 171.792 103.18 172.08 103.372 172.256C103.564 172.432 103.884 172.52 104.332 172.52H105.796ZM115.546 172.52V176H113.458C111.97 176 110.81 175.64 109.978 174.92C109.146 174.184 108.73 172.992 108.73 171.344V166.016H107.098V162.608H108.73V159.344H112.834V162.608H115.522V166.016H112.834V171.392C112.834 171.792 112.93 172.08 113.122 172.256C113.314 172.432 113.634 172.52 114.082 172.52H115.546ZM130.456 169.088C130.456 169.472 130.432 169.872 130.384 170.288H121.096C121.16 171.12 121.424 171.76 121.888 172.208C122.368 172.64 122.952 172.856 123.64 172.856C124.664 172.856 125.376 172.424 125.776 171.56H130.144C129.92 172.44 129.512 173.232 128.92 173.936C128.344 174.64 127.616 175.192 126.736 175.592C125.856 175.992 124.872 176.192 123.784 176.192C122.472 176.192 121.304 175.912 120.28 175.352C119.256 174.792 118.456 173.992 117.88 172.952C117.304 171.912 117.016 170.696 117.016 169.304C117.016 167.912 117.296 166.696 117.856 165.656C118.432 164.616 119.232 163.816 120.256 163.256C121.28 162.696 122.456 162.416 123.784 162.416C125.08 162.416 126.232 162.688 127.24 163.232C128.248 163.776 129.032 164.552 129.592 165.56C130.168 166.568 130.456 167.744 130.456 169.088ZM126.256 168.008C126.256 167.304 126.016 166.744 125.536 166.328C125.056 165.912 124.456 165.704 123.736 165.704C123.048 165.704 122.464 165.904 121.984 166.304C121.52 166.704 121.232 167.272 121.12 168.008H126.256ZM136.725 164.84C137.205 164.104 137.805 163.528 138.525 163.112C139.245 162.68 140.045 162.464 140.925 162.464V166.808H139.797C138.773 166.808 138.005 167.032 137.493 167.48C136.981 167.912 136.725 168.68 136.725 169.784V176H132.621V162.608H136.725V164.84ZM147.156 169.28C147.156 167.904 147.412 166.696 147.924 165.656C148.452 164.616 149.164 163.816 150.06 163.256C150.956 162.696 151.956 162.416 153.06 162.416C153.94 162.416 154.74 162.6 155.46 162.968C156.196 163.336 156.772 163.832 157.188 164.456V158.24H161.292V176H157.188V174.08C156.804 174.72 156.252 175.232 155.532 175.616C154.828 176 154.004 176.192 153.06 176.192C151.956 176.192 150.956 175.912 150.06 175.352C149.164 174.776 148.452 173.968 147.924 172.928C147.412 171.872 147.156 170.656 147.156 169.28ZM157.188 169.304C157.188 168.28 156.9 167.472 156.324 166.88C155.764 166.288 155.076 165.992 154.26 165.992C153.444 165.992 152.748 166.288 152.172 166.88C151.612 167.456 151.332 168.256 151.332 169.28C151.332 170.304 151.612 171.12 152.172 171.728C152.748 172.32 153.444 172.616 154.26 172.616C155.076 172.616 155.764 172.32 156.324 171.728C156.9 171.136 157.188 170.328 157.188 169.304ZM176.885 169.088C176.885 169.472 176.861 169.872 176.813 170.288H167.525C167.589 171.12 167.853 171.76 168.317 172.208C168.797 172.64 169.381 172.856 170.069 172.856C171.093 172.856 171.805 172.424 172.205 171.56H176.573C176.349 172.44 175.941 173.232 175.349 173.936C174.773 174.64 174.045 175.192 173.165 175.592C172.285 175.992 171.301 176.192 170.213 176.192C168.901 176.192 167.733 175.912 166.709 175.352C165.685 174.792 164.885 173.992 164.309 172.952C163.733 171.912 163.445 170.696 163.445 169.304C163.445 167.912 163.725 166.696 164.285 165.656C164.861 164.616 165.661 163.816 166.685 163.256C167.709 162.696 168.885 162.416 170.213 162.416C171.509 162.416 172.661 162.688 173.669 163.232C174.677 163.776 175.461 164.552 176.021 165.56C176.597 166.568 176.885 167.744 176.885 169.088ZM172.685 168.008C172.685 167.304 172.445 166.744 171.965 166.328C171.485 165.912 170.885 165.704 170.165 165.704C169.477 165.704 168.893 165.904 168.413 166.304C167.949 166.704 167.661 167.272 167.549 168.008H172.685ZM178.235 169.28C178.235 167.904 178.491 166.696 179.003 165.656C179.531 164.616 180.243 163.816 181.139 163.256C182.035 162.696 183.035 162.416 184.139 162.416C185.083 162.416 185.907 162.608 186.611 162.992C187.331 163.376 187.883 163.88 188.267 164.504V162.608H192.371V176H188.267V174.104C187.867 174.728 187.307 175.232 186.587 175.616C185.883 176 185.059 176.192 184.115 176.192C183.027 176.192 182.035 175.912 181.139 175.352C180.243 174.776 179.531 173.968 179.003 172.928C178.491 171.872 178.235 170.656 178.235 169.28ZM188.267 169.304C188.267 168.28 187.979 167.472 187.403 166.88C186.843 166.288 186.155 165.992 185.339 165.992C184.523 165.992 183.827 166.288 183.251 166.88C182.691 167.456 182.411 168.256 182.411 169.28C182.411 170.304 182.691 171.12 183.251 171.728C183.827 172.32 184.523 172.616 185.339 172.616C186.155 172.616 186.843 172.32 187.403 171.728C187.979 171.136 188.267 170.328 188.267 169.304ZM194.524 169.28C194.524 167.904 194.78 166.696 195.292 165.656C195.82 164.616 196.532 163.816 197.428 163.256C198.324 162.696 199.324 162.416 200.428 162.416C201.308 162.416 202.108 162.6 202.828 162.968C203.564 163.336 204.14 163.832 204.556 164.456V158.24H208.66V176H204.556V174.08C204.172 174.72 203.62 175.232 202.9 175.616C202.196 176 201.372 176.192 200.428 176.192C199.324 176.192 198.324 175.912 197.428 175.352C196.532 174.776 195.82 173.968 195.292 172.928C194.78 171.872 194.524 170.656 194.524 169.28ZM204.556 169.304C204.556 168.28 204.268 167.472 203.692 166.88C203.132 166.288 202.444 165.992 201.628 165.992C200.812 165.992 200.116 166.288 199.54 166.88C198.98 167.456 198.7 168.256 198.7 169.28C198.7 170.304 198.98 171.12 199.54 171.728C200.116 172.32 200.812 172.616 201.628 172.616C202.444 172.616 203.132 172.32 203.692 171.728C204.268 171.136 204.556 170.328 204.556 169.304ZM215.733 158.24V176H211.629V158.24H215.733ZM220.771 161.216C220.051 161.216 219.459 161.008 218.995 160.592C218.547 160.16 218.323 159.632 218.323 159.008C218.323 158.368 218.547 157.84 218.995 157.424C219.459 156.992 220.051 156.776 220.771 156.776C221.475 156.776 222.051 156.992 222.499 157.424C222.963 157.84 223.195 158.368 223.195 159.008C223.195 159.632 222.963 160.16 222.499 160.592C222.051 161.008 221.475 161.216 220.771 161.216ZM222.811 162.608V176H218.707V162.608H222.811ZM233.945 162.464C235.513 162.464 236.761 162.976 237.689 164C238.633 165.008 239.105 166.4 239.105 168.176V176H235.025V168.728C235.025 167.832 234.793 167.136 234.329 166.64C233.865 166.144 233.241 165.896 232.457 165.896C231.673 165.896 231.049 166.144 230.585 166.64C230.121 167.136 229.889 167.832 229.889 168.728V176H225.785V162.608H229.889V164.384C230.305 163.792 230.865 163.328 231.569 162.992C232.273 162.64 233.065 162.464 233.945 162.464ZM254.581 169.088C254.581 169.472 254.557 169.872 254.509 170.288H245.221C245.285 171.12 245.549 171.76 246.013 172.208C246.493 172.64 247.077 172.856 247.765 172.856C248.789 172.856 249.501 172.424 249.901 171.56H254.269C254.045 172.44 253.637 173.232 253.045 173.936C252.469 174.64 251.741 175.192 250.861 175.592C249.981 175.992 248.997 176.192 247.909 176.192C246.597 176.192 245.429 175.912 244.405 175.352C243.381 174.792 242.581 173.992 242.005 172.952C241.429 171.912 241.141 170.696 241.141 169.304C241.141 167.912 241.421 166.696 241.981 165.656C242.557 164.616 243.357 163.816 244.381 163.256C245.405 162.696 246.581 162.416 247.909 162.416C249.205 162.416 250.357 162.688 251.365 163.232C252.373 163.776 253.157 164.552 253.717 165.56C254.293 166.568 254.581 167.744 254.581 169.088ZM250.381 168.008C250.381 167.304 250.141 166.744 249.661 166.328C249.181 165.912 248.581 165.704 247.861 165.704C247.173 165.704 246.589 165.904 246.109 166.304C245.645 166.704 245.357 167.272 245.245 168.008H250.381ZM269.296 172.52V176H267.208C265.72 176 264.56 175.64 263.728 174.92C262.896 174.184 262.48 172.992 262.48 171.344V166.016H260.848V162.608H262.48V159.344H266.584V162.608H269.272V166.016H266.584V171.392C266.584 171.792 266.68 172.08 266.872 172.256C267.064 172.432 267.384 172.52 267.832 172.52H269.296ZM270.766 169.28C270.766 167.904 271.022 166.696 271.534 165.656C272.062 164.616 272.774 163.816 273.67 163.256C274.566 162.696 275.566 162.416 276.67 162.416C277.614 162.416 278.438 162.608 279.142 162.992C279.862 163.376 280.414 163.88 280.798 164.504V162.608H284.902V176H280.798V174.104C280.398 174.728 279.838 175.232 279.118 175.616C278.414 176 277.59 176.192 276.646 176.192C275.558 176.192 274.566 175.912 273.67 175.352C272.774 174.776 272.062 173.968 271.534 172.928C271.022 171.872 270.766 170.656 270.766 169.28ZM280.798 169.304C280.798 168.28 280.51 167.472 279.934 166.88C279.374 166.288 278.686 165.992 277.87 165.992C277.054 165.992 276.358 166.288 275.782 166.88C275.222 167.456 274.942 168.256 274.942 169.28C274.942 170.304 275.222 171.12 275.782 171.728C276.358 172.32 277.054 172.616 277.87 172.616C278.686 172.616 279.374 172.32 279.934 171.728C280.51 171.136 280.798 170.328 280.798 169.304ZM293.319 176.192C292.151 176.192 291.111 175.992 290.199 175.592C289.287 175.192 288.567 174.648 288.039 173.96C287.511 173.256 287.215 172.472 287.151 171.608H291.207C291.255 172.072 291.471 172.448 291.855 172.736C292.239 173.024 292.711 173.168 293.271 173.168C293.783 173.168 294.175 173.072 294.447 172.88C294.735 172.672 294.879 172.408 294.879 172.088C294.879 171.704 294.679 171.424 294.279 171.248C293.879 171.056 293.231 170.848 292.335 170.624C291.375 170.4 290.575 170.168 289.935 169.928C289.295 169.672 288.743 169.28 288.279 168.752C287.815 168.208 287.583 167.48 287.583 166.568C287.583 165.8 287.791 165.104 288.207 164.48C288.639 163.84 289.263 163.336 290.079 162.968C290.911 162.6 291.895 162.416 293.031 162.416C294.711 162.416 296.031 162.832 296.991 163.664C297.967 164.496 298.527 165.6 298.671 166.976H294.879C294.815 166.512 294.607 166.144 294.255 165.872C293.919 165.6 293.471 165.464 292.911 165.464C292.431 165.464 292.063 165.56 291.807 165.752C291.551 165.928 291.423 166.176 291.423 166.496C291.423 166.88 291.623 167.168 292.023 167.36C292.439 167.552 293.079 167.744 293.943 167.936C294.935 168.192 295.743 168.448 296.367 168.704C296.991 168.944 297.535 169.344 297.999 169.904C298.479 170.448 298.727 171.184 298.743 172.112C298.743 172.896 298.519 173.6 298.071 174.224C297.639 174.832 297.007 175.312 296.175 175.664C295.359 176.016 294.407 176.192 293.319 176.192ZM309.438 176L305.358 170.384V176H301.254V158.24H305.358V168.056L309.414 162.608H314.478L308.91 169.328L314.526 176H309.438ZM321.538 176.192C320.37 176.192 319.33 175.992 318.418 175.592C317.506 175.192 316.786 174.648 316.258 173.96C315.73 173.256 315.434 172.472 315.37 171.608H319.426C319.474 172.072 319.69 172.448 320.074 172.736C320.458 173.024 320.93 173.168 321.49 173.168C322.002 173.168 322.394 173.072 322.666 172.88C322.954 172.672 323.098 172.408 323.098 172.088C323.098 171.704 322.898 171.424 322.498 171.248C322.098 171.056 321.45 170.848 320.554 170.624C319.594 170.4 318.794 170.168 318.154 169.928C317.514 169.672 316.962 169.28 316.498 168.752C316.034 168.208 315.802 167.48 315.802 166.568C315.802 165.8 316.01 165.104 316.426 164.48C316.858 163.84 317.482 163.336 318.298 162.968C319.13 162.6 320.114 162.416 321.25 162.416C322.93 162.416 324.25 162.832 325.21 163.664C326.186 164.496 326.746 165.6 326.89 166.976H323.098C323.034 166.512 322.826 166.144 322.474 165.872C322.138 165.6 321.69 165.464 321.13 165.464C320.65 165.464 320.282 165.56 320.026 165.752C319.77 165.928 319.642 166.176 319.642 166.496C319.642 166.88 319.842 167.168 320.242 167.36C320.658 167.552 321.298 167.744 322.162 167.936C323.154 168.192 323.962 168.448 324.586 168.704C325.21 168.944 325.754 169.344 326.218 169.904C326.698 170.448 326.946 171.184 326.962 172.112C326.962 172.896 326.738 173.6 326.29 174.224C325.858 174.832 325.226 175.312 324.394 175.664C323.578 176.016 322.626 176.192 321.538 176.192Z" fill="#212121"/>
<path d="M10.17 227.454L6.084 235.266V240H4.446V235.266L0.342 227.454H2.16L5.256 233.808L8.352 227.454H10.17ZM16.1997 240.162C15.2757 240.162 14.4357 239.952 13.6797 239.532C12.9357 239.112 12.3477 238.518 11.9157 237.75C11.4957 236.97 11.2857 236.07 11.2857 235.05C11.2857 234.042 11.5017 233.154 11.9337 232.386C12.3777 231.606 12.9777 231.012 13.7337 230.604C14.4897 230.184 15.3357 229.974 16.2717 229.974C17.2077 229.974 18.0537 230.184 18.8097 230.604C19.5657 231.012 20.1597 231.6 20.5917 232.368C21.0357 233.136 21.2577 234.03 21.2577 235.05C21.2577 236.07 21.0297 236.97 20.5737 237.75C20.1297 238.518 19.5237 239.112 18.7557 239.532C17.9877 239.952 17.1357 240.162 16.1997 240.162ZM16.1997 238.722C16.7877 238.722 17.3397 238.584 17.8557 238.308C18.3717 238.032 18.7857 237.618 19.0977 237.066C19.4217 236.514 19.5837 235.842 19.5837 235.05C19.5837 234.258 19.4277 233.586 19.1157 233.034C18.8037 232.482 18.3957 232.074 17.8917 231.81C17.3877 231.534 16.8417 231.396 16.2537 231.396C15.6537 231.396 15.1017 231.534 14.5977 231.81C14.1057 232.074 13.7097 232.482 13.4097 233.034C13.1097 233.586 12.9597 234.258 12.9597 235.05C12.9597 235.854 13.1037 236.532 13.3917 237.084C13.6917 237.636 14.0877 238.05 14.5797 238.326C15.0717 238.59 15.6117 238.722 16.1997 238.722ZM32.1594 230.136V240H30.5214V238.542C30.2094 239.046 29.7714 239.442 29.2074 239.73C28.6554 240.006 28.0434 240.144 27.3714 240.144C26.6034 240.144 25.9134 239.988 25.3014 239.676C24.6894 239.352 24.2034 238.872 23.8434 238.236C23.4954 237.6 23.3214 236.826 23.3214 235.914V230.136H24.9414V235.698C24.9414 236.67 25.1874 237.42 25.6794 237.948C26.1714 238.464 26.8434 238.722 27.6954 238.722C28.5714 238.722 29.2614 238.452 29.7654 237.912C30.2694 237.372 30.5214 236.586 30.5214 235.554V230.136H32.1594ZM39.1119 235.05C39.1119 234.03 39.3159 233.142 39.7239 232.386C40.1319 231.618 40.6959 231.024 41.4159 230.604C42.1479 230.184 42.9819 229.974 43.9179 229.974C45.1299 229.974 46.1259 230.268 46.9059 230.856C47.6979 231.444 48.2199 232.26 48.4719 233.304H46.7079C46.5399 232.704 46.2099 232.23 45.7179 231.882C45.2379 231.534 44.6379 231.36 43.9179 231.36C42.9819 231.36 42.2259 231.684 41.6499 232.332C41.0739 232.968 40.7859 233.874 40.7859 235.05C40.7859 236.238 41.0739 237.156 41.6499 237.804C42.2259 238.452 42.9819 238.776 43.9179 238.776C44.6379 238.776 45.2379 238.608 45.7179 238.272C46.1979 237.936 46.5279 237.456 46.7079 236.832H48.4719C48.2079 237.84 47.6799 238.65 46.8879 239.262C46.0959 239.862 45.1059 240.162 43.9179 240.162C42.9819 240.162 42.1479 239.952 41.4159 239.532C40.6959 239.112 40.1319 238.518 39.7239 237.75C39.3159 236.982 39.1119 236.082 39.1119 235.05ZM50.0455 235.032C50.0455 234.024 50.2495 233.142 50.6575 232.386C51.0655 231.618 51.6235 231.024 52.3315 230.604C53.0515 230.184 53.8495 229.974 54.7255 229.974C55.5895 229.974 56.3395 230.16 56.9755 230.532C57.6115 230.904 58.0855 231.372 58.3975 231.936V230.136H60.0535V240H58.3975V238.164C58.0735 238.74 57.5875 239.22 56.9395 239.604C56.3035 239.976 55.5595 240.162 54.7075 240.162C53.8315 240.162 53.0395 239.946 52.3315 239.514C51.6235 239.082 51.0655 238.476 50.6575 237.696C50.2495 236.916 50.0455 236.028 50.0455 235.032ZM58.3975 235.05C58.3975 234.306 58.2475 233.658 57.9475 233.106C57.6475 232.554 57.2395 232.134 56.7235 231.846C56.2195 231.546 55.6615 231.396 55.0495 231.396C54.4375 231.396 53.8795 231.54 53.3755 231.828C52.8715 232.116 52.4695 232.536 52.1695 233.088C51.8695 233.64 51.7195 234.288 51.7195 235.032C51.7195 235.788 51.8695 236.448 52.1695 237.012C52.4695 237.564 52.8715 237.99 53.3755 238.29C53.8795 238.578 54.4375 238.722 55.0495 238.722C55.6615 238.722 56.2195 238.578 56.7235 238.29C57.2395 237.99 57.6475 237.564 57.9475 237.012C58.2475 236.448 58.3975 235.794 58.3975 235.05ZM67.6275 229.956C68.8275 229.956 69.7995 230.322 70.5435 231.054C71.2875 231.774 71.6595 232.818 71.6595 234.186V240H70.0395V234.42C70.0395 233.436 69.7935 232.686 69.3015 232.17C68.8095 231.642 68.1375 231.378 67.2855 231.378C66.4215 231.378 65.7315 231.648 65.2155 232.188C64.7115 232.728 64.4595 233.514 64.4595 234.546V240H62.8215V230.136H64.4595V231.54C64.7835 231.036 65.2215 230.646 65.7735 230.37C66.3375 230.094 66.9555 229.956 67.6275 229.956ZM90.996 229.956C91.764 229.956 92.448 230.118 93.048 230.442C93.648 230.754 94.122 231.228 94.47 231.864C94.818 232.5 94.992 233.274 94.992 234.186V240H93.372V234.42C93.372 233.436 93.126 232.686 92.634 232.17C92.154 231.642 91.5 231.378 90.672 231.378C89.82 231.378 89.142 231.654 88.638 232.206C88.134 232.746 87.882 233.532 87.882 234.564V240H86.262V234.42C86.262 233.436 86.016 232.686 85.524 232.17C85.044 231.642 84.39 231.378 83.562 231.378C82.71 231.378 82.032 231.654 81.528 232.206C81.024 232.746 80.772 233.532 80.772 234.564V240H79.134V230.136H80.772V231.558C81.096 231.042 81.528 230.646 82.068 230.37C82.62 230.094 83.226 229.956 83.886 229.956C84.714 229.956 85.446 230.142 86.082 230.514C86.718 230.886 87.192 231.432 87.504 232.152C87.78 231.456 88.236 230.916 88.872 230.532C89.508 230.148 90.216 229.956 90.996 229.956ZM97.067 235.032C97.067 234.024 97.271 233.142 97.679 232.386C98.087 231.618 98.645 231.024 99.353 230.604C100.073 230.184 100.871 229.974 101.747 229.974C102.611 229.974 103.361 230.16 103.997 230.532C104.633 230.904 105.107 231.372 105.419 231.936V230.136H107.075V240H105.419V238.164C105.095 238.74 104.609 239.22 103.961 239.604C103.325 239.976 102.581 240.162 101.729 240.162C100.853 240.162 100.061 239.946 99.353 239.514C98.645 239.082 98.087 238.476 97.679 237.696C97.271 236.916 97.067 236.028 97.067 235.032ZM105.419 235.05C105.419 234.306 105.269 233.658 104.969 233.106C104.669 232.554 104.261 232.134 103.745 231.846C103.241 231.546 102.683 231.396 102.071 231.396C101.459 231.396 100.901 231.54 100.397 231.828C99.893 232.116 99.491 232.536 99.191 233.088C98.891 233.64 98.741 234.288 98.741 235.032C98.741 235.788 98.891 236.448 99.191 237.012C99.491 237.564 99.893 237.99 100.397 238.29C100.901 238.578 101.459 238.722 102.071 238.722C102.683 238.722 103.241 238.578 103.745 238.29C104.261 237.99 104.669 237.564 104.969 237.012C105.269 236.448 105.419 235.794 105.419 235.05ZM115.351 240L111.481 235.644V240H109.843V226.68H111.481V234.51L115.279 230.136H117.565L112.921 235.05L117.583 240H115.351ZM128.107 234.69C128.107 235.002 128.089 235.332 128.053 235.68H120.169C120.229 236.652 120.559 237.414 121.159 237.966C121.771 238.506 122.509 238.776 123.373 238.776C124.081 238.776 124.669 238.614 125.137 238.29C125.617 237.954 125.953 237.51 126.145 236.958H127.909C127.645 237.906 127.117 238.68 126.325 239.28C125.533 239.868 124.549 240.162 123.373 240.162C122.437 240.162 121.597 239.952 120.853 239.532C120.121 239.112 119.545 238.518 119.125 237.75C118.705 236.97 118.495 236.07 118.495 235.05C118.495 234.03 118.699 233.136 119.107 232.368C119.515 231.6 120.085 231.012 120.817 230.604C121.561 230.184 122.413 229.974 123.373 229.974C124.309 229.974 125.137 230.178 125.857 230.586C126.577 230.994 127.129 231.558 127.513 232.278C127.909 232.986 128.107 233.79 128.107 234.69ZM126.415 234.348C126.415 233.724 126.277 233.19 126.001 232.746C125.725 232.29 125.347 231.948 124.867 231.72C124.399 231.48 123.877 231.36 123.301 231.36C122.473 231.36 121.765 231.624 121.177 232.152C120.601 232.68 120.271 233.412 120.187 234.348H126.415ZM143.564 230.136L137.624 244.644H135.932L137.876 239.892L133.898 230.136H135.716L138.812 238.128L141.872 230.136H143.564ZM149.512 240.162C148.588 240.162 147.748 239.952 146.992 239.532C146.248 239.112 145.66 238.518 145.228 237.75C144.808 236.97 144.598 236.07 144.598 235.05C144.598 234.042 144.814 233.154 145.246 232.386C145.69 231.606 146.29 231.012 147.046 230.604C147.802 230.184 148.648 229.974 149.584 229.974C150.52 229.974 151.366 230.184 152.122 230.604C152.878 231.012 153.472 231.6 153.904 232.368C154.348 233.136 154.57 234.03 154.57 235.05C154.57 236.07 154.342 236.97 153.886 237.75C153.442 238.518 152.836 239.112 152.068 239.532C151.3 239.952 150.448 240.162 149.512 240.162ZM149.512 238.722C150.1 238.722 150.652 238.584 151.168 238.308C151.684 238.032 152.098 237.618 152.41 237.066C152.734 236.514 152.896 235.842 152.896 235.05C152.896 234.258 152.74 233.586 152.428 233.034C152.116 232.482 151.708 232.074 151.204 231.81C150.7 231.534 150.154 231.396 149.566 231.396C148.966 231.396 148.414 231.534 147.91 231.81C147.418 232.074 147.022 232.482 146.722 233.034C146.422 233.586 146.272 234.258 146.272 235.05C146.272 235.854 146.416 236.532 146.704 237.084C147.004 237.636 147.4 238.05 147.892 238.326C148.384 238.59 148.924 238.722 149.512 238.722ZM165.472 230.136V240H163.834V238.542C163.522 239.046 163.084 239.442 162.52 239.73C161.968 240.006 161.356 240.144 160.684 240.144C159.916 240.144 159.226 239.988 158.614 239.676C158.002 239.352 157.516 238.872 157.156 238.236C156.808 237.6 156.634 236.826 156.634 235.914V230.136H158.254V235.698C158.254 236.67 158.5 237.42 158.992 237.948C159.484 238.464 160.156 238.722 161.008 238.722C161.884 238.722 162.574 238.452 163.078 237.912C163.582 237.372 163.834 236.586 163.834 235.554V230.136H165.472ZM169.876 231.738C170.164 231.174 170.572 230.736 171.1 230.424C171.64 230.112 172.294 229.956 173.062 229.956V231.648H172.63C170.794 231.648 169.876 232.644 169.876 234.636V240H168.238V230.136H169.876V231.738ZM179.139 235.032C179.139 234.024 179.343 233.142 179.751 232.386C180.159 231.618 180.717 231.024 181.425 230.604C182.145 230.184 182.949 229.974 183.837 229.974C184.605 229.974 185.319 230.154 185.979 230.514C186.639 230.862 187.143 231.324 187.491 231.9V226.68H189.147V240H187.491V238.146C187.167 238.734 186.687 239.22 186.051 239.604C185.415 239.976 184.671 240.162 183.819 240.162C182.943 240.162 182.145 239.946 181.425 239.514C180.717 239.082 180.159 238.476 179.751 237.696C179.343 236.916 179.139 236.028 179.139 235.032ZM187.491 235.05C187.491 234.306 187.341 233.658 187.041 233.106C186.741 232.554 186.333 232.134 185.817 231.846C185.313 231.546 184.755 231.396 184.143 231.396C183.531 231.396 182.973 231.54 182.469 231.828C181.965 232.116 181.563 232.536 181.263 233.088C180.963 233.64 180.813 234.288 180.813 235.032C180.813 235.788 180.963 236.448 181.263 237.012C181.563 237.564 181.965 237.99 182.469 238.29C182.973 238.578 183.531 238.722 184.143 238.722C184.755 238.722 185.313 238.578 185.817 238.29C186.333 237.99 186.741 237.564 187.041 237.012C187.341 236.448 187.491 235.794 187.491 235.05ZM200.663 230.136V240H199.025V238.542C198.713 239.046 198.275 239.442 197.711 239.73C197.159 240.006 196.547 240.144 195.875 240.144C195.107 240.144 194.417 239.988 193.805 239.676C193.193 239.352 192.707 238.872 192.347 238.236C191.999 237.6 191.825 236.826 191.825 235.914V230.136H193.445V235.698C193.445 236.67 193.691 237.42 194.183 237.948C194.675 238.464 195.347 238.722 196.199 238.722C197.075 238.722 197.765 238.452 198.269 237.912C198.773 237.372 199.025 236.586 199.025 235.554V230.136H200.663ZM205.427 231.486V237.3C205.427 237.78 205.529 238.122 205.733 238.326C205.937 238.518 206.291 238.614 206.795 238.614H208.001V240H206.525C205.613 240 204.929 239.79 204.473 239.37C204.017 238.95 203.789 238.26 203.789 237.3V231.486H202.511V230.136H203.789V227.652H205.427V230.136H208.001V231.486H205.427ZM218.482 230.136L212.542 244.644H210.85L212.794 239.892L208.816 230.136H210.634L213.73 238.128L216.79 230.136H218.482ZM224.315 235.032C224.315 234.024 224.519 233.142 224.927 232.386C225.335 231.618 225.893 231.024 226.601 230.604C227.321 230.184 228.125 229.974 229.013 229.974C229.781 229.974 230.495 230.154 231.155 230.514C231.815 230.862 232.319 231.324 232.667 231.9V226.68H234.323V240H232.667V238.146C232.343 238.734 231.863 239.22 231.227 239.604C230.591 239.976 229.847 240.162 228.995 240.162C228.119 240.162 227.321 239.946 226.601 239.514C225.893 239.082 225.335 238.476 224.927 237.696C224.519 236.916 224.315 236.028 224.315 235.032ZM232.667 235.05C232.667 234.306 232.517 233.658 232.217 233.106C231.917 232.554 231.509 232.134 230.993 231.846C230.489 231.546 229.931 231.396 229.319 231.396C228.707 231.396 228.149 231.54 227.645 231.828C227.141 232.116 226.739 232.536 226.439 233.088C226.139 233.64 225.989 234.288 225.989 235.032C225.989 235.788 226.139 236.448 226.439 237.012C226.739 237.564 227.141 237.99 227.645 238.29C228.149 238.578 228.707 238.722 229.319 238.722C229.931 238.722 230.489 238.578 230.993 238.29C231.509 237.99 231.917 237.564 232.217 237.012C232.517 236.448 232.667 235.794 232.667 235.05ZM246.091 234.69C246.091 235.002 246.073 235.332 246.037 235.68H238.153C238.213 236.652 238.543 237.414 239.143 237.966C239.755 238.506 240.493 238.776 241.357 238.776C242.065 238.776 242.653 238.614 243.121 238.29C243.601 237.954 243.937 237.51 244.129 236.958H245.893C245.629 237.906 245.101 238.68 244.309 239.28C243.517 239.868 242.533 240.162 241.357 240.162C240.421 240.162 239.581 239.952 238.837 239.532C238.105 239.112 237.529 238.518 237.109 237.75C236.689 236.97 236.479 236.07 236.479 235.05C236.479 234.03 236.683 233.136 237.091 232.368C237.499 231.6 238.069 231.012 238.801 230.604C239.545 230.184 240.397 229.974 241.357 229.974C242.293 229.974 243.121 230.178 243.841 230.586C244.561 230.994 245.113 231.558 245.497 232.278C245.893 232.986 246.091 233.79 246.091 234.69ZM244.399 234.348C244.399 233.724 244.261 233.19 243.985 232.746C243.709 232.29 243.331 231.948 242.851 231.72C242.383 231.48 241.861 231.36 241.285 231.36C240.457 231.36 239.749 231.624 239.161 232.152C238.585 232.68 238.255 233.412 238.171 234.348H244.399ZM247.641 235.032C247.641 234.024 247.845 233.142 248.253 232.386C248.661 231.618 249.219 231.024 249.927 230.604C250.647 230.184 251.445 229.974 252.321 229.974C253.185 229.974 253.935 230.16 254.571 230.532C255.207 230.904 255.681 231.372 255.993 231.936V230.136H257.649V240H255.993V238.164C255.669 238.74 255.183 239.22 254.535 239.604C253.899 239.976 253.155 240.162 252.303 240.162C251.427 240.162 250.635 239.946 249.927 239.514C249.219 239.082 248.661 238.476 248.253 237.696C247.845 236.916 247.641 236.028 247.641 235.032ZM255.993 235.05C255.993 234.306 255.843 233.658 255.543 233.106C255.243 232.554 254.835 232.134 254.319 231.846C253.815 231.546 253.257 231.396 252.645 231.396C252.033 231.396 251.475 231.54 250.971 231.828C250.467 232.116 250.065 232.536 249.765 233.088C249.465 233.64 249.315 234.288 249.315 235.032C249.315 235.788 249.465 236.448 249.765 237.012C250.065 237.564 250.467 237.99 250.971 238.29C251.475 238.578 252.033 238.722 252.645 238.722C253.257 238.722 253.815 238.578 254.319 238.29C254.835 237.99 255.243 237.564 255.543 237.012C255.843 236.448 255.993 235.794 255.993 235.05ZM259.805 235.032C259.805 234.024 260.009 233.142 260.417 232.386C260.825 231.618 261.383 231.024 262.091 230.604C262.811 230.184 263.615 229.974 264.503 229.974C265.271 229.974 265.985 230.154 266.645 230.514C267.305 230.862 267.809 231.324 268.157 231.9V226.68H269.813V240H268.157V238.146C267.833 238.734 267.353 239.22 266.717 239.604C266.081 239.976 265.337 240.162 264.485 240.162C263.609 240.162 262.811 239.946 262.091 239.514C261.383 239.082 260.825 238.476 260.417 237.696C260.009 236.916 259.805 236.028 259.805 235.032ZM268.157 235.05C268.157 234.306 268.007 233.658 267.707 233.106C267.407 232.554 266.999 232.134 266.483 231.846C265.979 231.546 265.421 231.396 264.809 231.396C264.197 231.396 263.639 231.54 263.135 231.828C262.631 232.116 262.229 232.536 261.929 233.088C261.629 233.64 261.479 234.288 261.479 235.032C261.479 235.788 261.629 236.448 261.929 237.012C262.229 237.564 262.631 237.99 263.135 238.29C263.639 238.578 264.197 238.722 264.809 238.722C265.421 238.722 265.979 238.578 266.483 238.29C266.999 237.99 267.407 237.564 267.707 237.012C268.007 236.448 268.157 235.794 268.157 235.05ZM274.219 226.68V240H272.581V226.68H274.219ZM277.857 228.534C277.545 228.534 277.281 228.426 277.065 228.21C276.849 227.994 276.741 227.73 276.741 227.418C276.741 227.106 276.849 226.842 277.065 226.626C277.281 226.41 277.545 226.302 277.857 226.302C278.157 226.302 278.409 226.41 278.613 226.626C278.829 226.842 278.937 227.106 278.937 227.418C278.937 227.73 278.829 227.994 278.613 228.21C278.409 228.426 278.157 228.534 277.857 228.534ZM278.649 230.136V240H277.011V230.136H278.649ZM286.247 229.956C287.447 229.956 288.419 230.322 289.163 231.054C289.907 231.774 290.279 232.818 290.279 234.186V240H288.659V234.42C288.659 233.436 288.413 232.686 287.921 232.17C287.429 231.642 286.757 231.378 285.905 231.378C285.041 231.378 284.351 231.648 283.835 232.188C283.331 232.728 283.079 233.514 283.079 234.546V240H281.441V230.136H283.079V231.54C283.403 231.036 283.841 230.646 284.393 230.37C284.957 230.094 285.575 229.956 286.247 229.956ZM301.954 234.69C301.954 235.002 301.936 235.332 301.9 235.68H294.016C294.076 236.652 294.406 237.414 295.006 237.966C295.618 238.506 296.356 238.776 297.22 238.776C297.928 238.776 298.516 238.614 298.984 238.29C299.464 237.954 299.8 237.51 299.992 236.958H301.756C301.492 237.906 300.964 238.68 300.172 239.28C299.38 239.868 298.396 240.162 297.22 240.162C296.284 240.162 295.444 239.952 294.7 239.532C293.968 239.112 293.392 238.518 292.972 237.75C292.552 236.97 292.342 236.07 292.342 235.05C292.342 234.03 292.546 233.136 292.954 232.368C293.362 231.6 293.932 231.012 294.664 230.604C295.408 230.184 296.26 229.974 297.22 229.974C298.156 229.974 298.984 230.178 299.704 230.586C300.424 230.994 300.976 231.558 301.36 232.278C301.756 232.986 301.954 233.79 301.954 234.69ZM300.262 234.348C300.262 233.724 300.124 233.19 299.848 232.746C299.572 232.29 299.194 231.948 298.714 231.72C298.246 231.48 297.724 231.36 297.148 231.36C296.32 231.36 295.612 231.624 295.024 232.152C294.448 232.68 294.118 233.412 294.034 234.348H300.262ZM307.608 240.162C306.852 240.162 306.174 240.036 305.574 239.784C304.974 239.52 304.5 239.16 304.152 238.704C303.804 238.236 303.612 237.702 303.576 237.102H305.268C305.316 237.594 305.544 237.996 305.952 238.308C306.372 238.62 306.918 238.776 307.59 238.776C308.214 238.776 308.706 238.638 309.066 238.362C309.426 238.086 309.606 237.738 309.606 237.318C309.606 236.886 309.414 236.568 309.03 236.364C308.646 236.148 308.052 235.938 307.248 235.734C306.516 235.542 305.916 235.35 305.448 235.158C304.992 234.954 304.596 234.66 304.26 234.276C303.936 233.88 303.774 233.364 303.774 232.728C303.774 232.224 303.924 231.762 304.224 231.342C304.524 230.922 304.95 230.592 305.502 230.352C306.054 230.1 306.684 229.974 307.392 229.974C308.484 229.974 309.366 230.25 310.038 230.802C310.71 231.354 311.07 232.11 311.118 233.07H309.48C309.444 232.554 309.234 232.14 308.85 231.828C308.478 231.516 307.974 231.36 307.338 231.36C306.75 231.36 306.282 231.486 305.934 231.738C305.586 231.99 305.412 232.32 305.412 232.728C305.412 233.052 305.514 233.322 305.718 233.538C305.934 233.742 306.198 233.91 306.51 234.042C306.834 234.162 307.278 234.3 307.842 234.456C308.55 234.648 309.126 234.84 309.57 235.032C310.014 235.212 310.392 235.488 310.704 235.86C311.028 236.232 311.196 236.718 311.208 237.318C311.208 237.858 311.058 238.344 310.758 238.776C310.458 239.208 310.032 239.55 309.48 239.802C308.94 240.042 308.316 240.162 307.608 240.162ZM319.958 231.972C320.294 231.384 320.786 230.904 321.434 230.532C322.082 230.16 322.82 229.974 323.648 229.974C324.536 229.974 325.334 230.184 326.042 230.604C326.75 231.024 327.308 231.618 327.716 232.386C328.124 233.142 328.328 234.024 328.328 235.032C328.328 236.028 328.124 236.916 327.716 237.696C327.308 238.476 326.744 239.082 326.024 239.514C325.316 239.946 324.524 240.162 323.648 240.162C322.796 240.162 322.046 239.976 321.398 239.604C320.762 239.232 320.282 238.758 319.958 238.182V240H318.32V226.68H319.958V231.972ZM326.654 235.032C326.654 234.288 326.504 233.64 326.204 233.088C325.904 232.536 325.496 232.116 324.98 231.828C324.476 231.54 323.918 231.396 323.306 231.396C322.706 231.396 322.148 231.546 321.632 231.846C321.128 232.134 320.72 232.56 320.408 233.124C320.108 233.676 319.958 234.318 319.958 235.05C319.958 235.794 320.108 236.448 320.408 237.012C320.72 237.564 321.128 237.99 321.632 238.29C322.148 238.578 322.706 238.722 323.306 238.722C323.918 238.722 324.476 238.578 324.98 238.29C325.496 237.99 325.904 237.564 326.204 237.012C326.504 236.448 326.654 235.788 326.654 235.032ZM339.484 234.69C339.484 235.002 339.466 235.332 339.43 235.68H331.546C331.606 236.652 331.936 237.414 332.536 237.966C333.148 238.506 333.886 238.776 334.75 238.776C335.458 238.776 336.046 238.614 336.514 238.29C336.994 237.954 337.33 237.51 337.522 236.958H339.286C339.022 237.906 338.494 238.68 337.702 239.28C336.91 239.868 335.926 240.162 334.75 240.162C333.814 240.162 332.974 239.952 332.23 239.532C331.498 239.112 330.922 238.518 330.502 237.75C330.082 236.97 329.872 236.07 329.872 235.05C329.872 234.03 330.076 233.136 330.484 232.368C330.892 231.6 331.462 231.012 332.194 230.604C332.938 230.184 333.79 229.974 334.75 229.974C335.686 229.974 336.514 230.178 337.234 230.586C337.954 230.994 338.506 231.558 338.89 232.278C339.286 232.986 339.484 233.79 339.484 234.69ZM337.792 234.348C337.792 233.724 337.654 233.19 337.378 232.746C337.102 232.29 336.724 231.948 336.244 231.72C335.776 231.48 335.254 231.36 334.678 231.36C333.85 231.36 333.142 231.624 332.554 232.152C331.978 232.68 331.648 233.412 331.564 234.348H337.792ZM343.644 231.486V237.3C343.644 237.78 343.746 238.122 343.95 238.326C344.154 238.518 344.508 238.614 345.012 238.614H346.218V240H344.742C343.83 240 343.146 239.79 342.69 239.37C342.234 238.95 342.006 238.26 342.006 237.3V231.486H340.728V230.136H342.006V227.652H343.644V230.136H346.218V231.486H343.644ZM350.2 231.486V237.3C350.2 237.78 350.302 238.122 350.506 238.326C350.71 238.518 351.064 238.614 351.568 238.614H352.774V240H351.298C350.386 240 349.702 239.79 349.246 239.37C348.79 238.95 348.562 238.26 348.562 237.3V231.486H347.284V230.136H348.562V227.652H350.2V230.136H352.774V231.486H350.2ZM363.759 234.69C363.759 235.002 363.741 235.332 363.705 235.68H355.821C355.881 236.652 356.211 237.414 356.811 237.966C357.423 238.506 358.161 238.776 359.025 238.776C359.733 238.776 360.321 238.614 360.789 238.29C361.269 237.954 361.605 237.51 361.797 236.958H363.561C363.297 237.906 362.769 238.68 361.977 239.28C361.185 239.868 360.201 240.162 359.025 240.162C358.089 240.162 357.249 239.952 356.505 239.532C355.773 239.112 355.197 238.518 354.777 237.75C354.357 236.97 354.147 236.07 354.147 235.05C354.147 234.03 354.351 233.136 354.759 232.368C355.167 231.6 355.737 231.012 356.469 230.604C357.213 230.184 358.065 229.974 359.025 229.974C359.961 229.974 360.789 230.178 361.509 230.586C362.229 230.994 362.781 231.558 363.165 232.278C363.561 232.986 363.759 233.79 363.759 234.69ZM362.067 234.348C362.067 233.724 361.929 233.19 361.653 232.746C361.377 232.29 360.999 231.948 360.519 231.72C360.051 231.48 359.529 231.36 358.953 231.36C358.125 231.36 357.417 231.624 356.829 232.152C356.253 232.68 355.923 233.412 355.839 234.348H362.067ZM367.559 231.738C367.847 231.174 368.255 230.736 368.783 230.424C369.323 230.112 369.977 229.956 370.745 229.956V231.648H370.313C368.477 231.648 367.559 232.644 367.559 234.636V240H365.921V230.136H367.559V231.738ZM0.774 271.032C0.774 270.024 0.978 269.142 1.386 268.386C1.794 267.618 2.352 267.024 3.06 266.604C3.78 266.184 4.578 265.974 5.454 265.974C6.318 265.974 7.068 266.16 7.704 266.532C8.34 266.904 8.814 267.372 9.126 267.936V266.136H10.782V276H9.126V274.164C8.802 274.74 8.316 275.22 7.668 275.604C7.032 275.976 6.288 276.162 5.436 276.162C4.56 276.162 3.768 275.946 3.06 275.514C2.352 275.082 1.794 274.476 1.386 273.696C0.978 272.916 0.774 272.028 0.774 271.032ZM9.126 271.05C9.126 270.306 8.976 269.658 8.676 269.106C8.376 268.554 7.968 268.134 7.452 267.846C6.948 267.546 6.39 267.396 5.778 267.396C5.166 267.396 4.608 267.54 4.104 267.828C3.6 268.116 3.198 268.536 2.898 269.088C2.598 269.64 2.448 270.288 2.448 271.032C2.448 271.788 2.598 272.448 2.898 273.012C3.198 273.564 3.6 273.99 4.104 274.29C4.608 274.578 5.166 274.722 5.778 274.722C6.39 274.722 6.948 274.578 7.452 274.29C7.968 273.99 8.376 273.564 8.676 273.012C8.976 272.448 9.126 271.794 9.126 271.05ZM18.3561 265.956C19.5561 265.956 20.5281 266.322 21.2721 267.054C22.0161 267.774 22.3881 268.818 22.3881 270.186V276H20.7681V270.42C20.7681 269.436 20.5221 268.686 20.0301 268.17C19.5381 267.642 18.8661 267.378 18.0141 267.378C17.1501 267.378 16.4601 267.648 15.9441 268.188C15.4401 268.728 15.1881 269.514 15.1881 270.546V276H13.5501V266.136H15.1881V267.54C15.5121 267.036 15.9501 266.646 16.5021 266.37C17.0661 266.094 17.6841 265.956 18.3561 265.956ZM24.4517 271.032C24.4517 270.024 24.6557 269.142 25.0637 268.386C25.4717 267.618 26.0297 267.024 26.7377 266.604C27.4577 266.184 28.2617 265.974 29.1497 265.974C29.9177 265.974 30.6317 266.154 31.2917 266.514C31.9517 266.862 32.4557 267.324 32.8037 267.9V262.68H34.4597V276H32.8037V274.146C32.4797 274.734 31.9997 275.22 31.3637 275.604C30.7277 275.976 29.9837 276.162 29.1317 276.162C28.2557 276.162 27.4577 275.946 26.7377 275.514C26.0297 275.082 25.4717 274.476 25.0637 273.696C24.6557 272.916 24.4517 272.028 24.4517 271.032ZM32.8037 271.05C32.8037 270.306 32.6537 269.658 32.3537 269.106C32.0537 268.554 31.6457 268.134 31.1297 267.846C30.6257 267.546 30.0677 267.396 29.4557 267.396C28.8437 267.396 28.2857 267.54 27.7817 267.828C27.2777 268.116 26.8757 268.536 26.5757 269.088C26.2757 269.64 26.1257 270.288 26.1257 271.032C26.1257 271.788 26.2757 272.448 26.5757 273.012C26.8757 273.564 27.2777 273.99 27.7817 274.29C28.2857 274.578 28.8437 274.722 29.4557 274.722C30.0677 274.722 30.6257 274.578 31.1297 274.29C31.6457 273.99 32.0537 273.564 32.3537 273.012C32.6537 272.448 32.8037 271.794 32.8037 271.05ZM53.8886 265.956C54.6566 265.956 55.3406 266.118 55.9406 266.442C56.5406 266.754 57.0146 267.228 57.3626 267.864C57.7106 268.5 57.8846 269.274 57.8846 270.186V276H56.2646V270.42C56.2646 269.436 56.0186 268.686 55.5266 268.17C55.0466 267.642 54.3926 267.378 53.5646 267.378C52.7126 267.378 52.0346 267.654 51.5306 268.206C51.0266 268.746 50.7746 269.532 50.7746 270.564V276H49.1546V270.42C49.1546 269.436 48.9086 268.686 48.4166 268.17C47.9366 267.642 47.2826 267.378 46.4546 267.378C45.6026 267.378 44.9246 267.654 44.4206 268.206C43.9166 268.746 43.6646 269.532 43.6646 270.564V276H42.0266V266.136H43.6646V267.558C43.9886 267.042 44.4206 266.646 44.9606 266.37C45.5126 266.094 46.1186 265.956 46.7786 265.956C47.6066 265.956 48.3386 266.142 48.9746 266.514C49.6106 266.886 50.0846 267.432 50.3966 268.152C50.6726 267.456 51.1286 266.916 51.7646 266.532C52.4006 266.148 53.1086 265.956 53.8886 265.956ZM64.8735 276.162C63.9495 276.162 63.1095 275.952 62.3535 275.532C61.6095 275.112 61.0215 274.518 60.5895 273.75C60.1695 272.97 59.9595 272.07 59.9595 271.05C59.9595 270.042 60.1755 269.154 60.6075 268.386C61.0515 267.606 61.6515 267.012 62.4075 266.604C63.1635 266.184 64.0095 265.974 64.9455 265.974C65.8815 265.974 66.7275 266.184 67.4835 266.604C68.2395 267.012 68.8335 267.6 69.2655 268.368C69.7095 269.136 69.9315 270.03 69.9315 271.05C69.9315 272.07 69.7035 272.97 69.2475 273.75C68.8035 274.518 68.1975 275.112 67.4295 275.532C66.6615 275.952 65.8095 276.162 64.8735 276.162ZM64.8735 274.722C65.4615 274.722 66.0135 274.584 66.5295 274.308C67.0455 274.032 67.4595 273.618 67.7715 273.066C68.0955 272.514 68.2575 271.842 68.2575 271.05C68.2575 270.258 68.1015 269.586 67.7895 269.034C67.4775 268.482 67.0695 268.074 66.5655 267.81C66.0615 267.534 65.5155 267.396 64.9275 267.396C64.3275 267.396 63.7755 267.534 63.2715 267.81C62.7795 268.074 62.3835 268.482 62.0835 269.034C61.7835 269.586 61.6335 270.258 61.6335 271.05C61.6335 271.854 61.7775 272.532 62.0655 273.084C62.3655 273.636 62.7615 274.05 63.2535 274.326C63.7455 274.59 64.2855 274.722 64.8735 274.722ZM73.7232 267.738C74.0112 267.174 74.4192 266.736 74.9472 266.424C75.4872 266.112 76.1412 265.956 76.9092 265.956V267.648H76.4772C74.6412 267.648 73.7232 268.644 73.7232 270.636V276H72.0852V266.136H73.7232V267.738ZM87.8001 270.69C87.8001 271.002 87.7821 271.332 87.7461 271.68H79.8621C79.9221 272.652 80.2521 273.414 80.8521 273.966C81.4641 274.506 82.2021 274.776 83.0661 274.776C83.7741 274.776 84.3621 274.614 84.8301 274.29C85.3101 273.954 85.6461 273.51 85.8381 272.958H87.6021C87.3381 273.906 86.8101 274.68 86.0181 275.28C85.2261 275.868 84.2421 276.162 83.0661 276.162C82.1301 276.162 81.2901 275.952 80.5461 275.532C79.8141 275.112 79.2381 274.518 78.8181 273.75C78.3981 272.97 78.1881 272.07 78.1881 271.05C78.1881 270.03 78.3921 269.136 78.8001 268.368C79.2081 267.6 79.7781 267.012 80.5101 266.604C81.2541 266.184 82.1061 265.974 83.0661 265.974C84.0021 265.974 84.8301 266.178 85.5501 266.586C86.2701 266.994 86.8221 267.558 87.2061 268.278C87.6021 268.986 87.8001 269.79 87.8001 270.69ZM86.1081 270.348C86.1081 269.724 85.9701 269.19 85.6941 268.746C85.4181 268.29 85.0401 267.948 84.5601 267.72C84.0921 267.48 83.5701 267.36 82.9941 267.36C82.1661 267.36 81.4581 267.624 80.8701 268.152C80.2941 268.68 79.9641 269.412 79.8801 270.348H86.1081ZM99.063 276.162C98.139 276.162 97.299 275.952 96.543 275.532C95.799 275.112 95.211 274.518 94.779 273.75C94.359 272.97 94.149 272.07 94.149 271.05C94.149 270.042 94.365 269.154 94.797 268.386C95.241 267.606 95.841 267.012 96.597 266.604C97.353 266.184 98.199 265.974 99.135 265.974C100.071 265.974 100.917 266.184 101.673 266.604C102.429 267.012 103.023 267.6 103.455 268.368C103.899 269.136 104.121 270.03 104.121 271.05C104.121 272.07 103.893 272.97 103.437 273.75C102.993 274.518 102.387 275.112 101.619 275.532C100.851 275.952 99.999 276.162 99.063 276.162ZM99.063 274.722C99.651 274.722 100.203 274.584 100.719 274.308C101.235 274.032 101.649 273.618 101.961 273.066C102.285 272.514 102.447 271.842 102.447 271.05C102.447 270.258 102.291 269.586 101.979 269.034C101.667 268.482 101.259 268.074 100.755 267.81C100.251 267.534 99.705 267.396 99.117 267.396C98.517 267.396 97.965 267.534 97.461 267.81C96.969 268.074 96.573 268.482 96.273 269.034C95.973 269.586 95.823 270.258 95.823 271.05C95.823 271.854 95.967 272.532 96.255 273.084C96.555 273.636 96.951 274.05 97.443 274.326C97.935 274.59 98.475 274.722 99.063 274.722ZM107.913 267.738C108.201 267.174 108.609 266.736 109.137 266.424C109.677 266.112 110.331 265.956 111.099 265.956V267.648H110.667C108.831 267.648 107.913 268.644 107.913 270.636V276H106.275V266.136H107.913V267.738ZM112.378 271.032C112.378 270.024 112.582 269.142 112.99 268.386C113.398 267.618 113.956 267.024 114.664 266.604C115.384 266.184 116.188 265.974 117.076 265.974C117.844 265.974 118.558 266.154 119.218 266.514C119.878 266.862 120.382 267.324 120.73 267.9V262.68H122.386V276H120.73V274.146C120.406 274.734 119.926 275.22 119.29 275.604C118.654 275.976 117.91 276.162 117.058 276.162C116.182 276.162 115.384 275.946 114.664 275.514C113.956 275.082 113.398 274.476 112.99 273.696C112.582 272.916 112.378 272.028 112.378 271.032ZM120.73 271.05C120.73 270.306 120.58 269.658 120.28 269.106C119.98 268.554 119.572 268.134 119.056 267.846C118.552 267.546 117.994 267.396 117.382 267.396C116.77 267.396 116.212 267.54 115.708 267.828C115.204 268.116 114.802 268.536 114.502 269.088C114.202 269.64 114.052 270.288 114.052 271.032C114.052 271.788 114.202 272.448 114.502 273.012C114.802 273.564 115.204 273.99 115.708 274.29C116.212 274.578 116.77 274.722 117.382 274.722C117.994 274.722 118.552 274.578 119.056 274.29C119.572 273.99 119.98 273.564 120.28 273.012C120.58 272.448 120.73 271.794 120.73 271.05ZM134.154 270.69C134.154 271.002 134.136 271.332 134.1 271.68H126.216C126.276 272.652 126.606 273.414 127.206 273.966C127.818 274.506 128.556 274.776 129.42 274.776C130.128 274.776 130.716 274.614 131.184 274.29C131.664 273.954 132 273.51 132.192 272.958H133.956C133.692 273.906 133.164 274.68 132.372 275.28C131.58 275.868 130.596 276.162 129.42 276.162C128.484 276.162 127.644 275.952 126.9 275.532C126.168 275.112 125.592 274.518 125.172 273.75C124.752 272.97 124.542 272.07 124.542 271.05C124.542 270.03 124.746 269.136 125.154 268.368C125.562 267.6 126.132 267.012 126.864 266.604C127.608 266.184 128.46 265.974 129.42 265.974C130.356 265.974 131.184 266.178 131.904 266.586C132.624 266.994 133.176 267.558 133.56 268.278C133.956 268.986 134.154 269.79 134.154 270.69ZM132.462 270.348C132.462 269.724 132.324 269.19 132.048 268.746C131.772 268.29 131.394 267.948 130.914 267.72C130.446 267.48 129.924 267.36 129.348 267.36C128.52 267.36 127.812 267.624 127.224 268.152C126.648 268.68 126.318 269.412 126.234 270.348H132.462ZM137.954 267.738C138.242 267.174 138.65 266.736 139.178 266.424C139.718 266.112 140.372 265.956 141.14 265.956V267.648H140.708C138.872 267.648 137.954 268.644 137.954 270.636V276H136.316V266.136H137.954V267.738ZM144.669 262.68V276H143.031V262.68H144.669ZM155.956 266.136L150.016 280.644H148.324L150.268 275.892L146.29 266.136H148.108L151.204 274.128L154.264 266.136H155.956Z" fill="#747474"/>
<path opacity="0.5" d="M38.3333 36C37.7145 36 37.121 35.7541 36.6834 35.3165C36.2458 34.879 36 34.2855 36 33.6666V29C36 28.3811 36.2458 27.7876 36.6834 27.35C37.121 26.9125 37.7145 26.6666 38.3333 26.6666C38.9522 26.6666 39.5457 26.9125 39.9832 27.35C40.4208 27.7876 40.6667 28.3811 40.6667 29V33.6666C40.6667 34.2851 40.4212 34.8782 39.9841 35.3157C39.547 35.7532 38.9541 35.9993 38.3357 36H38.3333ZM61.6667 36C61.0478 36 60.4543 35.7541 60.0167 35.3165C59.5792 34.879 59.3333 34.2855 59.3333 33.6666V29C59.3333 28.3811 59.5792 27.7876 60.0167 27.35C60.4543 26.9125 61.0478 26.6666 61.6667 26.6666C62.2855 26.6666 62.879 26.9125 63.3166 27.35C63.7542 27.7876 64 28.3811 64 29V33.6666C64 34.2851 63.7545 34.8782 63.3174 35.3157C62.8803 35.7532 62.2874 35.9993 61.669 36H61.6667Z" fill="#2D76F9"/>
<path d="M66.3333 31.3334H64V33.6667C64 34.2855 63.7542 34.879 63.3166 35.3166C62.879 35.7542 62.2855 36 61.6667 36C61.0478 36 60.4543 35.7542 60.0168 35.3166C59.5792 34.879 59.3333 34.2855 59.3333 33.6667V31.3334H40.6667V33.6667C40.6667 34.2855 40.4208 34.879 39.9833 35.3166C39.5457 35.7542 38.9522 36 38.3333 36C37.7145 36 37.121 35.7542 36.6834 35.3166C36.2458 34.879 36 34.2855 36 33.6667V31.3334H33.6667C31.8102 31.3334 30.0297 32.0709 28.7169 33.3836C27.4042 34.6964 26.6667 36.4769 26.6667 38.3334V43H73.3333V38.3334C73.3333 36.4769 72.5958 34.6964 71.2831 33.3836C69.9703 32.0709 68.1899 31.3334 66.3333 31.3334Z" fill="#2D76F9"/>
<path d="M38.3333 54.6667C39.622 54.6667 40.6667 53.622 40.6667 52.3333C40.6667 51.0447 39.622 50 38.3333 50C37.0447 50 36 51.0447 36 52.3333C36 53.622 37.0447 54.6667 38.3333 54.6667Z" fill="#2D76F9"/>
<path d="M38.3333 64C39.622 64 40.6667 62.9554 40.6667 61.6667C40.6667 60.378 39.622 59.3334 38.3333 59.3334C37.0447 59.3334 36 60.378 36 61.6667C36 62.9554 37.0447 64 38.3333 64Z" fill="#2D76F9"/>
<path d="M50 54.6667C51.2887 54.6667 52.3333 53.622 52.3333 52.3333C52.3333 51.0447 51.2887 50 50 50C48.7113 50 47.6667 51.0447 47.6667 52.3333C47.6667 53.622 48.7113 54.6667 50 54.6667Z" fill="#2D76F9"/>
<path d="M50 64C51.2887 64 52.3333 62.9554 52.3333 61.6667C52.3333 60.378 51.2887 59.3334 50 59.3334C48.7113 59.3334 47.6667 60.378 47.6667 61.6667C47.6667 62.9554 48.7113 64 50 64Z" fill="#2D76F9"/>
<path d="M61.6667 54.6667C62.9553 54.6667 64 53.622 64 52.3333C64 51.0447 62.9553 50 61.6667 50C60.378 50 59.3333 51.0447 59.3333 52.3333C59.3333 53.622 60.378 54.6667 61.6667 54.6667Z" fill="#2D76F9"/>
<path d="M61.6667 64C62.9553 64 64 62.9554 64 61.6667C64 60.378 62.9553 59.3334 61.6667 59.3334C60.378 59.3334 59.3333 60.378 59.3333 61.6667C59.3333 62.9554 60.378 64 61.6667 64Z" fill="#2D76F9"/>
<path opacity="0.5" d="M26.6667 43V66.3333C26.6667 68.1898 27.4042 69.9703 28.7169 71.2831C30.0297 72.5958 31.8102 73.3333 33.6667 73.3333H66.3333C68.1899 73.3333 69.9703 72.5958 71.2831 71.2831C72.5958 69.9703 73.3333 68.1898 73.3333 66.3333V43H26.6667ZM38.3333 64C37.7145 64 37.121 63.7542 36.6834 63.3166C36.2458 62.879 36 62.2855 36 61.6667C36 61.0478 36.2458 60.4543 36.6834 60.0168C37.121 59.5792 37.7145 59.3333 38.3333 59.3333C38.9522 59.3333 39.5457 59.5792 39.9833 60.0168C40.4208 60.4543 40.6667 61.0478 40.6667 61.6667C40.6667 62.2855 40.4208 62.879 39.9833 63.3166C39.5457 63.7542 38.9522 64 38.3333 64ZM38.3333 54.6667C37.7145 54.6667 37.121 54.4208 36.6834 53.9832C36.2458 53.5457 36 52.9522 36 52.3333C36 51.7145 36.2458 51.121 36.6834 50.6834C37.121 50.2458 37.7145 50 38.3333 50C38.9522 50 39.5457 50.2458 39.9833 50.6834C40.4208 51.121 40.6667 51.7145 40.6667 52.3333C40.6667 52.9522 40.4208 53.5457 39.9833 53.9832C39.5457 54.4208 38.9522 54.6667 38.3333 54.6667ZM50 64C49.3812 64 48.7877 63.7542 48.3501 63.3166C47.9125 62.879 47.6667 62.2855 47.6667 61.6667C47.6667 61.0478 47.9125 60.4543 48.3501 60.0168C48.7877 59.5792 49.3812 59.3333 50 59.3333C50.6188 59.3333 51.2123 59.5792 51.6499 60.0168C52.0875 60.4543 52.3333 61.0478 52.3333 61.6667C52.3333 62.2855 52.0875 62.879 51.6499 63.3166C51.2123 63.7542 50.6188 64 50 64ZM50 54.6667C49.3812 54.6667 48.7877 54.4208 48.3501 53.9832C47.9125 53.5457 47.6667 52.9522 47.6667 52.3333C47.6667 51.7145 47.9125 51.121 48.3501 50.6834C48.7877 50.2458 49.3812 50 50 50C50.6188 50 51.2123 50.2458 51.6499 50.6834C52.0875 51.121 52.3333 51.7145 52.3333 52.3333C52.3333 52.9522 52.0875 53.5457 51.6499 53.9832C51.2123 54.4208 50.6188 54.6667 50 54.6667ZM61.6667 64C61.0478 64 60.4543 63.7542 60.0168 63.3166C59.5792 62.879 59.3333 62.2855 59.3333 61.6667C59.3333 61.0478 59.5792 60.4543 60.0168 60.0168C60.4543 59.5792 61.0478 59.3333 61.6667 59.3333C62.2855 59.3333 62.879 59.5792 63.3166 60.0168C63.7542 60.4543 64 61.0478 64 61.6667C64 62.2855 63.7542 62.879 63.3166 63.3166C62.879 63.7542 62.2855 64 61.6667 64ZM61.6667 54.6667C61.0478 54.6667 60.4543 54.4208 60.0168 53.9832C59.5792 53.5457 59.3333 52.9522 59.3333 52.3333C59.3333 51.7145 59.5792 51.121 60.0168 50.6834C60.4543 50.2458 61.0478 50 61.6667 50C62.2855 50 62.879 50.2458 63.3166 50.6834C63.7542 51.121 64 51.7145 64 52.3333C64 52.9522 63.7542 53.5457 63.3166 53.9832C62.879 54.4208 62.2855 54.6667 61.6667 54.6667Z" fill="#2D76F9"/>
</svg>
