<svg width="387" height="288" viewBox="0 0 387 288" fill="none" xmlns="http://www.w3.org/2000/svg">
<rect width="100" height="100" rx="50" fill="#EEF4FF"/>
<path d="M20.568 159.152V176H16.464V165.896L12.696 176H9.384L5.592 165.872V176H1.488V159.152H6.336L11.064 170.816L15.744 159.152H20.568ZM22.7033 169.28C22.7033 167.904 22.9593 166.696 23.4713 165.656C23.9993 164.616 24.7113 163.816 25.6073 163.256C26.5033 162.696 27.5033 162.416 28.6073 162.416C29.5513 162.416 30.3753 162.608 31.0793 162.992C31.7993 163.376 32.3513 163.88 32.7353 164.504V162.608H36.8393V176H32.7353V174.104C32.3353 174.728 31.7753 175.232 31.0553 175.616C30.3513 176 29.5273 176.192 28.5833 176.192C27.4953 176.192 26.5033 175.912 25.6073 175.352C24.7113 174.776 23.9993 173.968 23.4713 172.928C22.9593 171.872 22.7033 170.656 22.7033 169.28ZM32.7353 169.304C32.7353 168.28 32.4473 167.472 31.8713 166.88C31.3113 166.288 30.6233 165.992 29.8073 165.992C28.9913 165.992 28.2953 166.288 27.7193 166.88C27.1593 167.456 26.8793 168.256 26.8793 169.28C26.8793 170.304 27.1593 171.12 27.7193 171.728C28.2953 172.32 28.9913 172.616 29.8073 172.616C30.6233 172.616 31.3113 172.32 31.8713 171.728C32.4473 171.136 32.7353 170.328 32.7353 169.304ZM47.9683 162.464C49.5363 162.464 50.7843 162.976 51.7123 164C52.6563 165.008 53.1283 166.4 53.1283 168.176V176H49.0483V168.728C49.0483 167.832 48.8163 167.136 48.3523 166.64C47.8883 166.144 47.2643 165.896 46.4803 165.896C45.6963 165.896 45.0723 166.144 44.6083 166.64C44.1443 167.136 43.9123 167.832 43.9123 168.728V176H39.8083V162.608H43.9123V164.384C44.3283 163.792 44.8883 163.328 45.5923 162.992C46.2963 162.64 47.0883 162.464 47.9683 162.464ZM55.1642 169.28C55.1642 167.904 55.4202 166.696 55.9322 165.656C56.4602 164.616 57.1722 163.816 58.0682 163.256C58.9642 162.696 59.9642 162.416 61.0682 162.416C62.0122 162.416 62.8362 162.608 63.5402 162.992C64.2602 163.376 64.8122 163.88 65.1962 164.504V162.608H69.3002V176H65.1962V174.104C64.7962 174.728 64.2362 175.232 63.5162 175.616C62.8122 176 61.9882 176.192 61.0442 176.192C59.9562 176.192 58.9642 175.912 58.0682 175.352C57.1722 174.776 56.4602 173.968 55.9322 172.928C55.4202 171.872 55.1642 170.656 55.1642 169.28ZM65.1962 169.304C65.1962 168.28 64.9082 167.472 64.3322 166.88C63.7722 166.288 63.0842 165.992 62.2682 165.992C61.4522 165.992 60.7562 166.288 60.1802 166.88C59.6202 167.456 59.3402 168.256 59.3402 169.28C59.3402 170.304 59.6202 171.12 60.1802 171.728C60.7562 172.32 61.4522 172.616 62.2682 172.616C63.0842 172.616 63.7722 172.32 64.3322 171.728C64.9082 171.136 65.1962 170.328 65.1962 169.304ZM77.3573 162.416C78.3013 162.416 79.1253 162.608 79.8293 162.992C80.5493 163.376 81.1013 163.88 81.4853 164.504V162.608H85.5893V175.976C85.5893 177.208 85.3413 178.32 84.8453 179.312C84.3653 180.32 83.6213 181.12 82.6133 181.712C81.6213 182.304 80.3813 182.6 78.8933 182.6C76.9093 182.6 75.3013 182.128 74.0693 181.184C72.8373 180.256 72.1333 178.992 71.9573 177.392H76.0133C76.1413 177.904 76.4453 178.304 76.9253 178.592C77.4053 178.896 77.9973 179.048 78.7013 179.048C79.5493 179.048 80.2213 178.8 80.7173 178.304C81.2293 177.824 81.4853 177.048 81.4853 175.976V174.08C81.0853 174.704 80.5333 175.216 79.8293 175.616C79.1253 176 78.3013 176.192 77.3573 176.192C76.2533 176.192 75.2533 175.912 74.3573 175.352C73.4613 174.776 72.7493 173.968 72.2213 172.928C71.7093 171.872 71.4533 170.656 71.4533 169.28C71.4533 167.904 71.7093 166.696 72.2213 165.656C72.7493 164.616 73.4613 163.816 74.3573 163.256C75.2533 162.696 76.2533 162.416 77.3573 162.416ZM81.4853 169.304C81.4853 168.28 81.1973 167.472 80.6213 166.88C80.0613 166.288 79.3733 165.992 78.5573 165.992C77.7413 165.992 77.0453 166.288 76.4693 166.88C75.9093 167.456 75.6293 168.256 75.6293 169.28C75.6293 170.304 75.9093 171.12 76.4693 171.728C77.0453 172.32 77.7413 172.616 78.5573 172.616C79.3733 172.616 80.0613 172.32 80.6213 171.728C81.1973 171.136 81.4853 170.328 81.4853 169.304ZM101.182 169.088C101.182 169.472 101.158 169.872 101.11 170.288H91.8223C91.8863 171.12 92.1503 171.76 92.6143 172.208C93.0943 172.64 93.6783 172.856 94.3663 172.856C95.3903 172.856 96.1023 172.424 96.5023 171.56H100.87C100.646 172.44 100.238 173.232 99.6463 173.936C99.0703 174.64 98.3423 175.192 97.4623 175.592C96.5823 175.992 95.5983 176.192 94.5103 176.192C93.1983 176.192 92.0303 175.912 91.0063 175.352C89.9823 174.792 89.1823 173.992 88.6063 172.952C88.0303 171.912 87.7423 170.696 87.7423 169.304C87.7423 167.912 88.0223 166.696 88.5823 165.656C89.1583 164.616 89.9583 163.816 90.9823 163.256C92.0063 162.696 93.1823 162.416 94.5103 162.416C95.8063 162.416 96.9583 162.688 97.9663 163.232C98.9743 163.776 99.7583 164.552 100.318 165.56C100.894 166.568 101.182 167.744 101.182 169.088ZM96.9823 168.008C96.9823 167.304 96.7423 166.744 96.2623 166.328C95.7823 165.912 95.1823 165.704 94.4623 165.704C93.7743 165.704 93.1903 165.904 92.7103 166.304C92.2463 166.704 91.9583 167.272 91.8463 168.008H96.9823ZM115.897 172.52V176H113.809C112.321 176 111.161 175.64 110.329 174.92C109.497 174.184 109.081 172.992 109.081 171.344V166.016H107.449V162.608H109.081V159.344H113.185V162.608H115.873V166.016H113.185V171.392C113.185 171.792 113.281 172.08 113.473 172.256C113.665 172.432 113.985 172.52 114.433 172.52H115.897ZM126.415 162.464C127.951 162.464 129.183 162.976 130.111 164C131.039 165.008 131.503 166.4 131.503 168.176V176H127.423V168.728C127.423 167.832 127.191 167.136 126.727 166.64C126.263 166.144 125.639 165.896 124.855 165.896C124.071 165.896 123.447 166.144 122.983 166.64C122.519 167.136 122.287 167.832 122.287 168.728V176H118.183V158.24H122.287V164.408C122.703 163.816 123.271 163.344 123.991 162.992C124.711 162.64 125.519 162.464 126.415 162.464ZM146.979 169.088C146.979 169.472 146.955 169.872 146.907 170.288H137.619C137.683 171.12 137.947 171.76 138.411 172.208C138.891 172.64 139.475 172.856 140.163 172.856C141.187 172.856 141.899 172.424 142.299 171.56H146.667C146.443 172.44 146.035 173.232 145.443 173.936C144.867 174.64 144.139 175.192 143.259 175.592C142.379 175.992 141.395 176.192 140.307 176.192C138.995 176.192 137.827 175.912 136.803 175.352C135.779 174.792 134.979 173.992 134.403 172.952C133.827 171.912 133.539 170.696 133.539 169.304C133.539 167.912 133.819 166.696 134.379 165.656C134.955 164.616 135.755 163.816 136.779 163.256C137.803 162.696 138.979 162.416 140.307 162.416C141.603 162.416 142.755 162.688 143.763 163.232C144.771 163.776 145.555 164.552 146.115 165.56C146.691 166.568 146.979 167.744 146.979 169.088ZM142.779 168.008C142.779 167.304 142.539 166.744 142.059 166.328C141.579 165.912 140.979 165.704 140.259 165.704C139.571 165.704 138.987 165.904 138.507 166.304C138.043 166.704 137.755 167.272 137.643 168.008H142.779ZM161.694 172.52V176H159.606C158.118 176 156.958 175.64 156.126 174.92C155.294 174.184 154.878 172.992 154.878 171.344V166.016H153.246V162.608H154.878V159.344H158.982V162.608H161.67V166.016H158.982V171.392C158.982 171.792 159.078 172.08 159.27 172.256C159.462 172.432 159.782 172.52 160.23 172.52H161.694ZM163.164 169.28C163.164 167.904 163.42 166.696 163.932 165.656C164.46 164.616 165.172 163.816 166.068 163.256C166.964 162.696 167.964 162.416 169.068 162.416C170.012 162.416 170.836 162.608 171.54 162.992C172.26 163.376 172.812 163.88 173.196 164.504V162.608H177.3V176H173.196V174.104C172.796 174.728 172.236 175.232 171.516 175.616C170.812 176 169.988 176.192 169.044 176.192C167.956 176.192 166.964 175.912 166.068 175.352C165.172 174.776 164.46 173.968 163.932 172.928C163.42 171.872 163.164 170.656 163.164 169.28ZM173.196 169.304C173.196 168.28 172.908 167.472 172.332 166.88C171.772 166.288 171.084 165.992 170.268 165.992C169.452 165.992 168.756 166.288 168.18 166.88C167.62 167.456 167.34 168.256 167.34 169.28C167.34 170.304 167.62 171.12 168.18 171.728C168.756 172.32 169.452 172.616 170.268 172.616C171.084 172.616 171.772 172.32 172.332 171.728C172.908 171.136 173.196 170.328 173.196 169.304ZM185.717 176.192C184.549 176.192 183.509 175.992 182.597 175.592C181.685 175.192 180.965 174.648 180.437 173.96C179.909 173.256 179.613 172.472 179.549 171.608H183.605C183.653 172.072 183.869 172.448 184.253 172.736C184.637 173.024 185.109 173.168 185.669 173.168C186.181 173.168 186.573 173.072 186.845 172.88C187.133 172.672 187.277 172.408 187.277 172.088C187.277 171.704 187.077 171.424 186.677 171.248C186.277 171.056 185.629 170.848 184.733 170.624C183.773 170.4 182.973 170.168 182.333 169.928C181.693 169.672 181.141 169.28 180.677 168.752C180.213 168.208 179.981 167.48 179.981 166.568C179.981 165.8 180.189 165.104 180.605 164.48C181.037 163.84 181.661 163.336 182.477 162.968C183.309 162.6 184.293 162.416 185.429 162.416C187.109 162.416 188.429 162.832 189.389 163.664C190.365 164.496 190.925 165.6 191.069 166.976H187.277C187.213 166.512 187.005 166.144 186.653 165.872C186.317 165.6 185.869 165.464 185.309 165.464C184.829 165.464 184.461 165.56 184.205 165.752C183.949 165.928 183.821 166.176 183.821 166.496C183.821 166.88 184.021 167.168 184.421 167.36C184.837 167.552 185.477 167.744 186.341 167.936C187.333 168.192 188.141 168.448 188.765 168.704C189.389 168.944 189.933 169.344 190.397 169.904C190.877 170.448 191.125 171.184 191.141 172.112C191.141 172.896 190.917 173.6 190.469 174.224C190.037 174.832 189.405 175.312 188.573 175.664C187.757 176.016 186.805 176.192 185.717 176.192ZM201.836 176L197.756 170.384V176H193.652V158.24H197.756V168.056L201.812 162.608H206.876L201.308 169.328L206.924 176H201.836ZM213.936 176.192C212.768 176.192 211.728 175.992 210.816 175.592C209.904 175.192 209.184 174.648 208.656 173.96C208.128 173.256 207.832 172.472 207.768 171.608H211.824C211.872 172.072 212.088 172.448 212.472 172.736C212.856 173.024 213.328 173.168 213.888 173.168C214.4 173.168 214.792 173.072 215.064 172.88C215.352 172.672 215.496 172.408 215.496 172.088C215.496 171.704 215.296 171.424 214.896 171.248C214.496 171.056 213.848 170.848 212.952 170.624C211.992 170.4 211.192 170.168 210.552 169.928C209.912 169.672 209.36 169.28 208.896 168.752C208.432 168.208 208.2 167.48 208.2 166.568C208.2 165.8 208.408 165.104 208.824 164.48C209.256 163.84 209.88 163.336 210.696 162.968C211.528 162.6 212.512 162.416 213.648 162.416C215.328 162.416 216.648 162.832 217.608 163.664C218.584 164.496 219.144 165.6 219.288 166.976H215.496C215.432 166.512 215.224 166.144 214.872 165.872C214.536 165.6 214.088 165.464 213.528 165.464C213.048 165.464 212.68 165.56 212.424 165.752C212.168 165.928 212.04 166.176 212.04 166.496C212.04 166.88 212.24 167.168 212.64 167.36C213.056 167.552 213.696 167.744 214.56 167.936C215.552 168.192 216.36 168.448 216.984 168.704C217.608 168.944 218.152 169.344 218.616 169.904C219.096 170.448 219.344 171.184 219.36 172.112C219.36 172.896 219.136 173.6 218.688 174.224C218.256 174.832 217.624 175.312 216.792 175.664C215.976 176.016 215.024 176.192 213.936 176.192ZM232.405 176.192C231.237 176.192 230.197 175.992 229.285 175.592C228.373 175.192 227.653 174.648 227.125 173.96C226.597 173.256 226.301 172.472 226.237 171.608H230.293C230.341 172.072 230.557 172.448 230.941 172.736C231.325 173.024 231.797 173.168 232.357 173.168C232.869 173.168 233.261 173.072 233.533 172.88C233.821 172.672 233.965 172.408 233.965 172.088C233.965 171.704 233.765 171.424 233.365 171.248C232.965 171.056 232.317 170.848 231.421 170.624C230.461 170.4 229.661 170.168 229.021 169.928C228.381 169.672 227.829 169.28 227.365 168.752C226.901 168.208 226.669 167.48 226.669 166.568C226.669 165.8 226.877 165.104 227.293 164.48C227.725 163.84 228.349 163.336 229.165 162.968C229.997 162.6 230.981 162.416 232.117 162.416C233.797 162.416 235.117 162.832 236.077 163.664C237.053 164.496 237.613 165.6 237.757 166.976H233.965C233.901 166.512 233.693 166.144 233.341 165.872C233.005 165.6 232.557 165.464 231.997 165.464C231.517 165.464 231.149 165.56 230.893 165.752C230.637 165.928 230.509 166.176 230.509 166.496C230.509 166.88 230.709 167.168 231.109 167.36C231.525 167.552 232.165 167.744 233.029 167.936C234.021 168.192 234.829 168.448 235.453 168.704C236.077 168.944 236.621 169.344 237.085 169.904C237.565 170.448 237.813 171.184 237.829 172.112C237.829 172.896 237.605 173.6 237.157 174.224C236.725 174.832 236.093 175.312 235.261 175.664C234.445 176.016 233.493 176.192 232.405 176.192ZM246.436 176.192C245.124 176.192 243.94 175.912 242.884 175.352C241.844 174.792 241.02 173.992 240.412 172.952C239.82 171.912 239.524 170.696 239.524 169.304C239.524 167.928 239.828 166.72 240.436 165.68C241.044 164.624 241.876 163.816 242.932 163.256C243.988 162.696 245.172 162.416 246.484 162.416C247.796 162.416 248.98 162.696 250.036 163.256C251.092 163.816 251.924 164.624 252.532 165.68C253.14 166.72 253.444 167.928 253.444 169.304C253.444 170.68 253.132 171.896 252.508 172.952C251.9 173.992 251.06 174.792 249.988 175.352C248.932 175.912 247.748 176.192 246.436 176.192ZM246.436 172.64C247.22 172.64 247.884 172.352 248.428 171.776C248.988 171.2 249.268 170.376 249.268 169.304C249.268 168.232 248.996 167.408 248.452 166.832C247.924 166.256 247.268 165.968 246.484 165.968C245.684 165.968 245.02 166.256 244.492 166.832C243.964 167.392 243.7 168.216 243.7 169.304C243.7 170.376 243.956 171.2 244.468 171.776C244.996 172.352 245.652 172.64 246.436 172.64ZM273.331 169.088C273.331 169.472 273.307 169.872 273.259 170.288H263.971C264.035 171.12 264.299 171.76 264.763 172.208C265.243 172.64 265.827 172.856 266.515 172.856C267.539 172.856 268.251 172.424 268.651 171.56H273.019C272.795 172.44 272.387 173.232 271.795 173.936C271.219 174.64 270.491 175.192 269.611 175.592C268.731 175.992 267.747 176.192 266.659 176.192C265.347 176.192 264.179 175.912 263.155 175.352C262.131 174.792 261.331 173.992 260.755 172.952C260.179 171.912 259.891 170.696 259.891 169.304C259.891 167.912 260.171 166.696 260.731 165.656C261.307 164.616 262.107 163.816 263.131 163.256C264.155 162.696 265.331 162.416 266.659 162.416C267.955 162.416 269.107 162.688 270.115 163.232C271.123 163.776 271.907 164.552 272.467 165.56C273.043 166.568 273.331 167.744 273.331 169.088ZM269.131 168.008C269.131 167.304 268.891 166.744 268.411 166.328C267.931 165.912 267.331 165.704 266.611 165.704C265.923 165.704 265.339 165.904 264.859 166.304C264.395 166.704 264.107 167.272 263.995 168.008H269.131ZM274.68 169.28C274.68 167.904 274.936 166.696 275.448 165.656C275.976 164.616 276.688 163.816 277.584 163.256C278.48 162.696 279.48 162.416 280.584 162.416C281.528 162.416 282.352 162.608 283.056 162.992C283.776 163.376 284.328 163.88 284.712 164.504V162.608H288.816V176H284.712V174.104C284.312 174.728 283.752 175.232 283.032 175.616C282.328 176 281.504 176.192 280.56 176.192C279.472 176.192 278.48 175.912 277.584 175.352C276.688 174.776 275.976 173.968 275.448 172.928C274.936 171.872 274.68 170.656 274.68 169.28ZM284.712 169.304C284.712 168.28 284.424 167.472 283.848 166.88C283.288 166.288 282.6 165.992 281.784 165.992C280.968 165.992 280.272 166.288 279.696 166.88C279.136 167.456 278.856 168.256 278.856 169.28C278.856 170.304 279.136 171.12 279.696 171.728C280.272 172.32 280.968 172.616 281.784 172.616C282.6 172.616 283.288 172.32 283.848 171.728C284.424 171.136 284.712 170.328 284.712 169.304ZM297.233 176.192C296.065 176.192 295.025 175.992 294.113 175.592C293.201 175.192 292.481 174.648 291.953 173.96C291.425 173.256 291.129 172.472 291.065 171.608H295.121C295.169 172.072 295.385 172.448 295.769 172.736C296.153 173.024 296.625 173.168 297.185 173.168C297.697 173.168 298.089 173.072 298.361 172.88C298.649 172.672 298.793 172.408 298.793 172.088C298.793 171.704 298.593 171.424 298.193 171.248C297.793 171.056 297.145 170.848 296.249 170.624C295.289 170.4 294.489 170.168 293.849 169.928C293.209 169.672 292.657 169.28 292.193 168.752C291.729 168.208 291.497 167.48 291.497 166.568C291.497 165.8 291.705 165.104 292.121 164.48C292.553 163.84 293.177 163.336 293.993 162.968C294.825 162.6 295.809 162.416 296.945 162.416C298.625 162.416 299.945 162.832 300.905 163.664C301.881 164.496 302.441 165.6 302.585 166.976H298.793C298.729 166.512 298.521 166.144 298.169 165.872C297.833 165.6 297.385 165.464 296.825 165.464C296.345 165.464 295.977 165.56 295.721 165.752C295.465 165.928 295.337 166.176 295.337 166.496C295.337 166.88 295.537 167.168 295.937 167.36C296.353 167.552 296.993 167.744 297.857 167.936C298.849 168.192 299.657 168.448 300.281 168.704C300.905 168.944 301.449 169.344 301.913 169.904C302.393 170.448 302.641 171.184 302.657 172.112C302.657 172.896 302.433 173.6 301.985 174.224C301.553 174.832 300.921 175.312 300.089 175.664C299.273 176.016 298.321 176.192 297.233 176.192ZM307.232 161.216C306.512 161.216 305.92 161.008 305.456 160.592C305.008 160.16 304.784 159.632 304.784 159.008C304.784 158.368 305.008 157.84 305.456 157.424C305.92 156.992 306.512 156.776 307.232 156.776C307.936 156.776 308.512 156.992 308.96 157.424C309.424 157.84 309.656 158.368 309.656 159.008C309.656 159.632 309.424 160.16 308.96 160.592C308.512 161.008 307.936 161.216 307.232 161.216ZM309.272 162.608V176H305.168V162.608H309.272ZM316.35 158.24V176H312.246V158.24H316.35ZM333.004 162.608L324.604 182.36H320.188L323.26 175.544L317.812 162.608H322.396L325.492 170.984L328.564 162.608H333.004Z" fill="#212121"/>
<path d="M10.17 227.454L6.084 235.266V240H4.446V235.266L0.342 227.454H2.16L5.256 233.808L8.352 227.454H10.17ZM16.1997 240.162C15.2757 240.162 14.4357 239.952 13.6797 239.532C12.9357 239.112 12.3477 238.518 11.9157 237.75C11.4957 236.97 11.2857 236.07 11.2857 235.05C11.2857 234.042 11.5017 233.154 11.9337 232.386C12.3777 231.606 12.9777 231.012 13.7337 230.604C14.4897 230.184 15.3357 229.974 16.2717 229.974C17.2077 229.974 18.0537 230.184 18.8097 230.604C19.5657 231.012 20.1597 231.6 20.5917 232.368C21.0357 233.136 21.2577 234.03 21.2577 235.05C21.2577 236.07 21.0297 236.97 20.5737 237.75C20.1297 238.518 19.5237 239.112 18.7557 239.532C17.9877 239.952 17.1357 240.162 16.1997 240.162ZM16.1997 238.722C16.7877 238.722 17.3397 238.584 17.8557 238.308C18.3717 238.032 18.7857 237.618 19.0977 237.066C19.4217 236.514 19.5837 235.842 19.5837 235.05C19.5837 234.258 19.4277 233.586 19.1157 233.034C18.8037 232.482 18.3957 232.074 17.8917 231.81C17.3877 231.534 16.8417 231.396 16.2537 231.396C15.6537 231.396 15.1017 231.534 14.5977 231.81C14.1057 232.074 13.7097 232.482 13.4097 233.034C13.1097 233.586 12.9597 234.258 12.9597 235.05C12.9597 235.854 13.1037 236.532 13.3917 237.084C13.6917 237.636 14.0877 238.05 14.5797 238.326C15.0717 238.59 15.6117 238.722 16.1997 238.722ZM32.1594 230.136V240H30.5214V238.542C30.2094 239.046 29.7714 239.442 29.2074 239.73C28.6554 240.006 28.0434 240.144 27.3714 240.144C26.6034 240.144 25.9134 239.988 25.3014 239.676C24.6894 239.352 24.2034 238.872 23.8434 238.236C23.4954 237.6 23.3214 236.826 23.3214 235.914V230.136H24.9414V235.698C24.9414 236.67 25.1874 237.42 25.6794 237.948C26.1714 238.464 26.8434 238.722 27.6954 238.722C28.5714 238.722 29.2614 238.452 29.7654 237.912C30.2694 237.372 30.5214 236.586 30.5214 235.554V230.136H32.1594ZM39.1119 235.05C39.1119 234.03 39.3159 233.142 39.7239 232.386C40.1319 231.618 40.6959 231.024 41.4159 230.604C42.1479 230.184 42.9819 229.974 43.9179 229.974C45.1299 229.974 46.1259 230.268 46.9059 230.856C47.6979 231.444 48.2199 232.26 48.4719 233.304H46.7079C46.5399 232.704 46.2099 232.23 45.7179 231.882C45.2379 231.534 44.6379 231.36 43.9179 231.36C42.9819 231.36 42.2259 231.684 41.6499 232.332C41.0739 232.968 40.7859 233.874 40.7859 235.05C40.7859 236.238 41.0739 237.156 41.6499 237.804C42.2259 238.452 42.9819 238.776 43.9179 238.776C44.6379 238.776 45.2379 238.608 45.7179 238.272C46.1979 237.936 46.5279 237.456 46.7079 236.832H48.4719C48.2079 237.84 47.6799 238.65 46.8879 239.262C46.0959 239.862 45.1059 240.162 43.9179 240.162C42.9819 240.162 42.1479 239.952 41.4159 239.532C40.6959 239.112 40.1319 238.518 39.7239 237.75C39.3159 236.982 39.1119 236.082 39.1119 235.05ZM50.0455 235.032C50.0455 234.024 50.2495 233.142 50.6575 232.386C51.0655 231.618 51.6235 231.024 52.3315 230.604C53.0515 230.184 53.8495 229.974 54.7255 229.974C55.5895 229.974 56.3395 230.16 56.9755 230.532C57.6115 230.904 58.0855 231.372 58.3975 231.936V230.136H60.0535V240H58.3975V238.164C58.0735 238.74 57.5875 239.22 56.9395 239.604C56.3035 239.976 55.5595 240.162 54.7075 240.162C53.8315 240.162 53.0395 239.946 52.3315 239.514C51.6235 239.082 51.0655 238.476 50.6575 237.696C50.2495 236.916 50.0455 236.028 50.0455 235.032ZM58.3975 235.05C58.3975 234.306 58.2475 233.658 57.9475 233.106C57.6475 232.554 57.2395 232.134 56.7235 231.846C56.2195 231.546 55.6615 231.396 55.0495 231.396C54.4375 231.396 53.8795 231.54 53.3755 231.828C52.8715 232.116 52.4695 232.536 52.1695 233.088C51.8695 233.64 51.7195 234.288 51.7195 235.032C51.7195 235.788 51.8695 236.448 52.1695 237.012C52.4695 237.564 52.8715 237.99 53.3755 238.29C53.8795 238.578 54.4375 238.722 55.0495 238.722C55.6615 238.722 56.2195 238.578 56.7235 238.29C57.2395 237.99 57.6475 237.564 57.9475 237.012C58.2475 236.448 58.3975 235.794 58.3975 235.05ZM67.6275 229.956C68.8275 229.956 69.7995 230.322 70.5435 231.054C71.2875 231.774 71.6595 232.818 71.6595 234.186V240H70.0395V234.42C70.0395 233.436 69.7935 232.686 69.3015 232.17C68.8095 231.642 68.1375 231.378 67.2855 231.378C66.4215 231.378 65.7315 231.648 65.2155 232.188C64.7115 232.728 64.4595 233.514 64.4595 234.546V240H62.8215V230.136H64.4595V231.54C64.7835 231.036 65.2215 230.646 65.7735 230.37C66.3375 230.094 66.9555 229.956 67.6275 229.956ZM90.996 229.956C91.764 229.956 92.448 230.118 93.048 230.442C93.648 230.754 94.122 231.228 94.47 231.864C94.818 232.5 94.992 233.274 94.992 234.186V240H93.372V234.42C93.372 233.436 93.126 232.686 92.634 232.17C92.154 231.642 91.5 231.378 90.672 231.378C89.82 231.378 89.142 231.654 88.638 232.206C88.134 232.746 87.882 233.532 87.882 234.564V240H86.262V234.42C86.262 233.436 86.016 232.686 85.524 232.17C85.044 231.642 84.39 231.378 83.562 231.378C82.71 231.378 82.032 231.654 81.528 232.206C81.024 232.746 80.772 233.532 80.772 234.564V240H79.134V230.136H80.772V231.558C81.096 231.042 81.528 230.646 82.068 230.37C82.62 230.094 83.226 229.956 83.886 229.956C84.714 229.956 85.446 230.142 86.082 230.514C86.718 230.886 87.192 231.432 87.504 232.152C87.78 231.456 88.236 230.916 88.872 230.532C89.508 230.148 90.216 229.956 90.996 229.956ZM97.067 235.032C97.067 234.024 97.271 233.142 97.679 232.386C98.087 231.618 98.645 231.024 99.353 230.604C100.073 230.184 100.871 229.974 101.747 229.974C102.611 229.974 103.361 230.16 103.997 230.532C104.633 230.904 105.107 231.372 105.419 231.936V230.136H107.075V240H105.419V238.164C105.095 238.74 104.609 239.22 103.961 239.604C103.325 239.976 102.581 240.162 101.729 240.162C100.853 240.162 100.061 239.946 99.353 239.514C98.645 239.082 98.087 238.476 97.679 237.696C97.271 236.916 97.067 236.028 97.067 235.032ZM105.419 235.05C105.419 234.306 105.269 233.658 104.969 233.106C104.669 232.554 104.261 232.134 103.745 231.846C103.241 231.546 102.683 231.396 102.071 231.396C101.459 231.396 100.901 231.54 100.397 231.828C99.893 232.116 99.491 232.536 99.191 233.088C98.891 233.64 98.741 234.288 98.741 235.032C98.741 235.788 98.891 236.448 99.191 237.012C99.491 237.564 99.893 237.99 100.397 238.29C100.901 238.578 101.459 238.722 102.071 238.722C102.683 238.722 103.241 238.578 103.745 238.29C104.261 237.99 104.669 237.564 104.969 237.012C105.269 236.448 105.419 235.794 105.419 235.05ZM114.649 229.956C115.849 229.956 116.821 230.322 117.565 231.054C118.309 231.774 118.681 232.818 118.681 234.186V240H117.061V234.42C117.061 233.436 116.815 232.686 116.323 232.17C115.831 231.642 115.159 231.378 114.307 231.378C113.443 231.378 112.753 231.648 112.237 232.188C111.733 232.728 111.481 233.514 111.481 234.546V240H109.843V230.136H111.481V231.54C111.805 231.036 112.243 230.646 112.795 230.37C113.359 230.094 113.977 229.956 114.649 229.956ZM120.745 235.032C120.745 234.024 120.949 233.142 121.357 232.386C121.765 231.618 122.323 231.024 123.031 230.604C123.751 230.184 124.549 229.974 125.425 229.974C126.289 229.974 127.039 230.16 127.675 230.532C128.311 230.904 128.785 231.372 129.097 231.936V230.136H130.753V240H129.097V238.164C128.773 238.74 128.287 239.22 127.639 239.604C127.003 239.976 126.259 240.162 125.407 240.162C124.531 240.162 123.739 239.946 123.031 239.514C122.323 239.082 121.765 238.476 121.357 237.696C120.949 236.916 120.745 236.028 120.745 235.032ZM129.097 235.05C129.097 234.306 128.947 233.658 128.647 233.106C128.347 232.554 127.939 232.134 127.423 231.846C126.919 231.546 126.361 231.396 125.749 231.396C125.137 231.396 124.579 231.54 124.075 231.828C123.571 232.116 123.169 232.536 122.869 233.088C122.569 233.64 122.419 234.288 122.419 235.032C122.419 235.788 122.569 236.448 122.869 237.012C123.169 237.564 123.571 237.99 124.075 238.29C124.579 238.578 125.137 238.722 125.749 238.722C126.361 238.722 126.919 238.578 127.423 238.29C127.939 237.99 128.347 237.564 128.647 237.012C128.947 236.448 129.097 235.794 129.097 235.05ZM137.589 229.974C138.441 229.974 139.185 230.16 139.821 230.532C140.469 230.904 140.949 231.372 141.261 231.936V230.136H142.917V240.216C142.917 241.116 142.725 241.914 142.341 242.61C141.957 243.318 141.405 243.87 140.685 244.266C139.977 244.662 139.149 244.86 138.201 244.86C136.905 244.86 135.825 244.554 134.961 243.942C134.097 243.33 133.587 242.496 133.431 241.44H135.051C135.231 242.04 135.603 242.52 136.167 242.88C136.731 243.252 137.409 243.438 138.201 243.438C139.101 243.438 139.833 243.156 140.397 242.592C140.973 242.028 141.261 241.236 141.261 240.216V238.146C140.937 238.722 140.457 239.202 139.821 239.586C139.185 239.97 138.441 240.162 137.589 240.162C136.713 240.162 135.915 239.946 135.195 239.514C134.487 239.082 133.929 238.476 133.521 237.696C133.113 236.916 132.909 236.028 132.909 235.032C132.909 234.024 133.113 233.142 133.521 232.386C133.929 231.618 134.487 231.024 135.195 230.604C135.915 230.184 136.713 229.974 137.589 229.974ZM141.261 235.05C141.261 234.306 141.111 233.658 140.811 233.106C140.511 232.554 140.103 232.134 139.587 231.846C139.083 231.546 138.525 231.396 137.913 231.396C137.301 231.396 136.743 231.54 136.239 231.828C135.735 232.116 135.333 232.536 135.033 233.088C134.733 233.64 134.583 234.288 134.583 235.032C134.583 235.788 134.733 236.448 135.033 237.012C135.333 237.564 135.735 237.99 136.239 238.29C136.743 238.578 137.301 238.722 137.913 238.722C138.525 238.722 139.083 238.578 139.587 238.29C140.103 237.99 140.511 237.564 140.811 237.012C141.111 236.448 141.261 235.794 141.261 235.05ZM154.685 234.69C154.685 235.002 154.667 235.332 154.631 235.68H146.747C146.807 236.652 147.137 237.414 147.737 237.966C148.349 238.506 149.087 238.776 149.951 238.776C150.659 238.776 151.247 238.614 151.715 238.29C152.195 237.954 152.531 237.51 152.723 236.958H154.487C154.223 237.906 153.695 238.68 152.903 239.28C152.111 239.868 151.127 240.162 149.951 240.162C149.015 240.162 148.175 239.952 147.431 239.532C146.699 239.112 146.123 238.518 145.703 237.75C145.283 236.97 145.073 236.07 145.073 235.05C145.073 234.03 145.277 233.136 145.685 232.368C146.093 231.6 146.663 231.012 147.395 230.604C148.139 230.184 148.991 229.974 149.951 229.974C150.887 229.974 151.715 230.178 152.435 230.586C153.155 230.994 153.707 231.558 154.091 232.278C154.487 232.986 154.685 233.79 154.685 234.69ZM152.993 234.348C152.993 233.724 152.855 233.19 152.579 232.746C152.303 232.29 151.925 231.948 151.445 231.72C150.977 231.48 150.455 231.36 149.879 231.36C149.051 231.36 148.343 231.624 147.755 232.152C147.179 232.68 146.849 233.412 146.765 234.348H152.993ZM163.644 231.486V237.3C163.644 237.78 163.746 238.122 163.95 238.326C164.154 238.518 164.508 238.614 165.012 238.614H166.218V240H164.742C163.83 240 163.146 239.79 162.69 239.37C162.234 238.95 162.006 238.26 162.006 237.3V231.486H160.728V230.136H162.006V227.652H163.644V230.136H166.218V231.486H163.644ZM173.098 229.956C173.842 229.956 174.514 230.118 175.114 230.442C175.714 230.754 176.182 231.228 176.518 231.864C176.866 232.5 177.04 233.274 177.04 234.186V240H175.42V234.42C175.42 233.436 175.174 232.686 174.682 232.17C174.19 231.642 173.518 231.378 172.666 231.378C171.802 231.378 171.112 231.648 170.596 232.188C170.092 232.728 169.84 233.514 169.84 234.546V240H168.202V226.68H169.84V231.54C170.164 231.036 170.608 230.646 171.172 230.37C171.748 230.094 172.39 229.956 173.098 229.956ZM188.716 234.69C188.716 235.002 188.698 235.332 188.662 235.68H180.778C180.838 236.652 181.168 237.414 181.768 237.966C182.38 238.506 183.118 238.776 183.982 238.776C184.69 238.776 185.278 238.614 185.746 238.29C186.226 237.954 186.562 237.51 186.754 236.958H188.518C188.254 237.906 187.726 238.68 186.934 239.28C186.142 239.868 185.158 240.162 183.982 240.162C183.046 240.162 182.206 239.952 181.462 239.532C180.73 239.112 180.154 238.518 179.734 237.75C179.314 236.97 179.104 236.07 179.104 235.05C179.104 234.03 179.308 233.136 179.716 232.368C180.124 231.6 180.694 231.012 181.426 230.604C182.17 230.184 183.022 229.974 183.982 229.974C184.918 229.974 185.746 230.178 186.466 230.586C187.186 230.994 187.738 231.558 188.122 232.278C188.518 232.986 188.716 233.79 188.716 234.69ZM187.024 234.348C187.024 233.724 186.886 233.19 186.61 232.746C186.334 232.29 185.956 231.948 185.476 231.72C185.008 231.48 184.486 231.36 183.91 231.36C183.082 231.36 182.374 231.624 181.786 232.152C181.21 232.68 180.88 233.412 180.796 234.348H187.024ZM195.065 235.032C195.065 234.024 195.269 233.142 195.677 232.386C196.085 231.618 196.643 231.024 197.351 230.604C198.071 230.184 198.875 229.974 199.763 229.974C200.531 229.974 201.245 230.154 201.905 230.514C202.565 230.862 203.069 231.324 203.417 231.9V226.68H205.073V240H203.417V238.146C203.093 238.734 202.613 239.22 201.977 239.604C201.341 239.976 200.597 240.162 199.745 240.162C198.869 240.162 198.071 239.946 197.351 239.514C196.643 239.082 196.085 238.476 195.677 237.696C195.269 236.916 195.065 236.028 195.065 235.032ZM203.417 235.05C203.417 234.306 203.267 233.658 202.967 233.106C202.667 232.554 202.259 232.134 201.743 231.846C201.239 231.546 200.681 231.396 200.069 231.396C199.457 231.396 198.899 231.54 198.395 231.828C197.891 232.116 197.489 232.536 197.189 233.088C196.889 233.64 196.739 234.288 196.739 235.032C196.739 235.788 196.889 236.448 197.189 237.012C197.489 237.564 197.891 237.99 198.395 238.29C198.899 238.578 199.457 238.722 200.069 238.722C200.681 238.722 201.239 238.578 201.743 238.29C202.259 237.99 202.667 237.564 202.967 237.012C203.267 236.448 203.417 235.794 203.417 235.05ZM216.841 234.69C216.841 235.002 216.823 235.332 216.787 235.68H208.903C208.963 236.652 209.293 237.414 209.893 237.966C210.505 238.506 211.243 238.776 212.107 238.776C212.815 238.776 213.403 238.614 213.871 238.29C214.351 237.954 214.687 237.51 214.879 236.958H216.643C216.379 237.906 215.851 238.68 215.059 239.28C214.267 239.868 213.283 240.162 212.107 240.162C211.171 240.162 210.331 239.952 209.587 239.532C208.855 239.112 208.279 238.518 207.859 237.75C207.439 236.97 207.229 236.07 207.229 235.05C207.229 234.03 207.433 233.136 207.841 232.368C208.249 231.6 208.819 231.012 209.551 230.604C210.295 230.184 211.147 229.974 212.107 229.974C213.043 229.974 213.871 230.178 214.591 230.586C215.311 230.994 215.863 231.558 216.247 232.278C216.643 232.986 216.841 233.79 216.841 234.69ZM215.149 234.348C215.149 233.724 215.011 233.19 214.735 232.746C214.459 232.29 214.081 231.948 213.601 231.72C213.133 231.48 212.611 231.36 212.035 231.36C211.207 231.36 210.499 231.624 209.911 232.152C209.335 232.68 209.005 233.412 208.921 234.348H215.149ZM218.391 235.032C218.391 234.024 218.595 233.142 219.003 232.386C219.411 231.618 219.969 231.024 220.677 230.604C221.397 230.184 222.195 229.974 223.071 229.974C223.935 229.974 224.685 230.16 225.321 230.532C225.957 230.904 226.431 231.372 226.743 231.936V230.136H228.399V240H226.743V238.164C226.419 238.74 225.933 239.22 225.285 239.604C224.649 239.976 223.905 240.162 223.053 240.162C222.177 240.162 221.385 239.946 220.677 239.514C219.969 239.082 219.411 238.476 219.003 237.696C218.595 236.916 218.391 236.028 218.391 235.032ZM226.743 235.05C226.743 234.306 226.593 233.658 226.293 233.106C225.993 232.554 225.585 232.134 225.069 231.846C224.565 231.546 224.007 231.396 223.395 231.396C222.783 231.396 222.225 231.54 221.721 231.828C221.217 232.116 220.815 232.536 220.515 233.088C220.215 233.64 220.065 234.288 220.065 235.032C220.065 235.788 220.215 236.448 220.515 237.012C220.815 237.564 221.217 237.99 221.721 238.29C222.225 238.578 222.783 238.722 223.395 238.722C224.007 238.722 224.565 238.578 225.069 238.29C225.585 237.99 225.993 237.564 226.293 237.012C226.593 236.448 226.743 235.794 226.743 235.05ZM230.555 235.032C230.555 234.024 230.759 233.142 231.167 232.386C231.575 231.618 232.133 231.024 232.841 230.604C233.561 230.184 234.365 229.974 235.253 229.974C236.021 229.974 236.735 230.154 237.395 230.514C238.055 230.862 238.559 231.324 238.907 231.9V226.68H240.563V240H238.907V238.146C238.583 238.734 238.103 239.22 237.467 239.604C236.831 239.976 236.087 240.162 235.235 240.162C234.359 240.162 233.561 239.946 232.841 239.514C232.133 239.082 231.575 238.476 231.167 237.696C230.759 236.916 230.555 236.028 230.555 235.032ZM238.907 235.05C238.907 234.306 238.757 233.658 238.457 233.106C238.157 232.554 237.749 232.134 237.233 231.846C236.729 231.546 236.171 231.396 235.559 231.396C234.947 231.396 234.389 231.54 233.885 231.828C233.381 232.116 232.979 232.536 232.679 233.088C232.379 233.64 232.229 234.288 232.229 235.032C232.229 235.788 232.379 236.448 232.679 237.012C232.979 237.564 233.381 237.99 233.885 238.29C234.389 238.578 234.947 238.722 235.559 238.722C236.171 238.722 236.729 238.578 237.233 238.29C237.749 237.99 238.157 237.564 238.457 237.012C238.757 236.448 238.907 235.794 238.907 235.05ZM244.969 226.68V240H243.331V226.68H244.969ZM248.607 228.534C248.295 228.534 248.031 228.426 247.815 228.21C247.599 227.994 247.491 227.73 247.491 227.418C247.491 227.106 247.599 226.842 247.815 226.626C248.031 226.41 248.295 226.302 248.607 226.302C248.907 226.302 249.159 226.41 249.363 226.626C249.579 226.842 249.687 227.106 249.687 227.418C249.687 227.73 249.579 227.994 249.363 228.21C249.159 228.426 248.907 228.534 248.607 228.534ZM249.399 230.136V240H247.761V230.136H249.399ZM256.997 229.956C258.197 229.956 259.169 230.322 259.913 231.054C260.657 231.774 261.029 232.818 261.029 234.186V240H259.409V234.42C259.409 233.436 259.163 232.686 258.671 232.17C258.179 231.642 257.507 231.378 256.655 231.378C255.791 231.378 255.101 231.648 254.585 232.188C254.081 232.728 253.829 233.514 253.829 234.546V240H252.191V230.136H253.829V231.54C254.153 231.036 254.591 230.646 255.143 230.37C255.707 230.094 256.325 229.956 256.997 229.956ZM272.704 234.69C272.704 235.002 272.686 235.332 272.65 235.68H264.766C264.826 236.652 265.156 237.414 265.756 237.966C266.368 238.506 267.106 238.776 267.97 238.776C268.678 238.776 269.266 238.614 269.734 238.29C270.214 237.954 270.55 237.51 270.742 236.958H272.506C272.242 237.906 271.714 238.68 270.922 239.28C270.13 239.868 269.146 240.162 267.97 240.162C267.034 240.162 266.194 239.952 265.45 239.532C264.718 239.112 264.142 238.518 263.722 237.75C263.302 236.97 263.092 236.07 263.092 235.05C263.092 234.03 263.296 233.136 263.704 232.368C264.112 231.6 264.682 231.012 265.414 230.604C266.158 230.184 267.01 229.974 267.97 229.974C268.906 229.974 269.734 230.178 270.454 230.586C271.174 230.994 271.726 231.558 272.11 232.278C272.506 232.986 272.704 233.79 272.704 234.69ZM271.012 234.348C271.012 233.724 270.874 233.19 270.598 232.746C270.322 232.29 269.944 231.948 269.464 231.72C268.996 231.48 268.474 231.36 267.898 231.36C267.07 231.36 266.362 231.624 265.774 232.152C265.198 232.68 264.868 233.412 264.784 234.348H271.012ZM278.358 240.162C277.602 240.162 276.924 240.036 276.324 239.784C275.724 239.52 275.25 239.16 274.902 238.704C274.554 238.236 274.362 237.702 274.326 237.102H276.018C276.066 237.594 276.294 237.996 276.702 238.308C277.122 238.62 277.668 238.776 278.34 238.776C278.964 238.776 279.456 238.638 279.816 238.362C280.176 238.086 280.356 237.738 280.356 237.318C280.356 236.886 280.164 236.568 279.78 236.364C279.396 236.148 278.802 235.938 277.998 235.734C277.266 235.542 276.666 235.35 276.198 235.158C275.742 234.954 275.346 234.66 275.01 234.276C274.686 233.88 274.524 233.364 274.524 232.728C274.524 232.224 274.674 231.762 274.974 231.342C275.274 230.922 275.7 230.592 276.252 230.352C276.804 230.1 277.434 229.974 278.142 229.974C279.234 229.974 280.116 230.25 280.788 230.802C281.46 231.354 281.82 232.11 281.868 233.07H280.23C280.194 232.554 279.984 232.14 279.6 231.828C279.228 231.516 278.724 231.36 278.088 231.36C277.5 231.36 277.032 231.486 276.684 231.738C276.336 231.99 276.162 232.32 276.162 232.728C276.162 233.052 276.264 233.322 276.468 233.538C276.684 233.742 276.948 233.91 277.26 234.042C277.584 234.162 278.028 234.3 278.592 234.456C279.3 234.648 279.876 234.84 280.32 235.032C280.764 235.212 281.142 235.488 281.454 235.86C281.778 236.232 281.946 236.718 281.958 237.318C281.958 237.858 281.808 238.344 281.508 238.776C281.208 239.208 280.782 239.55 280.23 239.802C279.69 240.042 279.066 240.162 278.358 240.162ZM288.458 235.032C288.458 234.024 288.662 233.142 289.07 232.386C289.478 231.618 290.036 231.024 290.744 230.604C291.464 230.184 292.262 229.974 293.138 229.974C294.002 229.974 294.752 230.16 295.388 230.532C296.024 230.904 296.498 231.372 296.81 231.936V230.136H298.466V240H296.81V238.164C296.486 238.74 296 239.22 295.352 239.604C294.716 239.976 293.972 240.162 293.12 240.162C292.244 240.162 291.452 239.946 290.744 239.514C290.036 239.082 289.478 238.476 289.07 237.696C288.662 236.916 288.458 236.028 288.458 235.032ZM296.81 235.05C296.81 234.306 296.66 233.658 296.36 233.106C296.06 232.554 295.652 232.134 295.136 231.846C294.632 231.546 294.074 231.396 293.462 231.396C292.85 231.396 292.292 231.54 291.788 231.828C291.284 232.116 290.882 232.536 290.582 233.088C290.282 233.64 290.132 234.288 290.132 235.032C290.132 235.788 290.282 236.448 290.582 237.012C290.882 237.564 291.284 237.99 291.788 238.29C292.292 238.578 292.85 238.722 293.462 238.722C294.074 238.722 294.632 238.578 295.136 238.29C295.652 237.99 296.06 237.564 296.36 237.012C296.66 236.448 296.81 235.794 296.81 235.05ZM306.04 229.956C307.24 229.956 308.212 230.322 308.956 231.054C309.7 231.774 310.072 232.818 310.072 234.186V240H308.452V234.42C308.452 233.436 308.206 232.686 307.714 232.17C307.222 231.642 306.55 231.378 305.698 231.378C304.834 231.378 304.144 231.648 303.628 232.188C303.124 232.728 302.872 233.514 302.872 234.546V240H301.234V230.136H302.872V231.54C303.196 231.036 303.634 230.646 304.186 230.37C304.75 230.094 305.368 229.956 306.04 229.956ZM312.135 235.032C312.135 234.024 312.339 233.142 312.747 232.386C313.155 231.618 313.713 231.024 314.421 230.604C315.141 230.184 315.945 229.974 316.833 229.974C317.601 229.974 318.315 230.154 318.975 230.514C319.635 230.862 320.139 231.324 320.487 231.9V226.68H322.143V240H320.487V238.146C320.163 238.734 319.683 239.22 319.047 239.604C318.411 239.976 317.667 240.162 316.815 240.162C315.939 240.162 315.141 239.946 314.421 239.514C313.713 239.082 313.155 238.476 312.747 237.696C312.339 236.916 312.135 236.028 312.135 235.032ZM320.487 235.05C320.487 234.306 320.337 233.658 320.037 233.106C319.737 232.554 319.329 232.134 318.813 231.846C318.309 231.546 317.751 231.396 317.139 231.396C316.527 231.396 315.969 231.54 315.465 231.828C314.961 232.116 314.559 232.536 314.259 233.088C313.959 233.64 313.809 234.288 313.809 235.032C313.809 235.788 313.959 236.448 314.259 237.012C314.559 237.564 314.961 237.99 315.465 238.29C315.969 238.578 316.527 238.722 317.139 238.722C317.751 238.722 318.309 238.578 318.813 238.29C319.329 237.99 319.737 237.564 320.037 237.012C320.337 236.448 320.487 235.794 320.487 235.05ZM331.708 231.486V237.3C331.708 237.78 331.81 238.122 332.014 238.326C332.218 238.518 332.572 238.614 333.076 238.614H334.282V240H332.806C331.894 240 331.21 239.79 330.754 239.37C330.298 238.95 330.07 238.26 330.07 237.3V231.486H328.792V230.136H330.07V227.652H331.708V230.136H334.282V231.486H331.708ZM341.163 229.956C341.907 229.956 342.579 230.118 343.179 230.442C343.779 230.754 344.247 231.228 344.583 231.864C344.931 232.5 345.105 233.274 345.105 234.186V240H343.485V234.42C343.485 233.436 343.239 232.686 342.747 232.17C342.255 231.642 341.583 231.378 340.731 231.378C339.867 231.378 339.177 231.648 338.661 232.188C338.157 232.728 337.905 233.514 337.905 234.546V240H336.267V226.68H337.905V231.54C338.229 231.036 338.673 230.646 339.237 230.37C339.813 230.094 340.455 229.956 341.163 229.956ZM356.781 234.69C356.781 235.002 356.763 235.332 356.727 235.68H348.843C348.903 236.652 349.233 237.414 349.833 237.966C350.445 238.506 351.183 238.776 352.047 238.776C352.755 238.776 353.343 238.614 353.811 238.29C354.291 237.954 354.627 237.51 354.819 236.958H356.583C356.319 237.906 355.791 238.68 354.999 239.28C354.207 239.868 353.223 240.162 352.047 240.162C351.111 240.162 350.271 239.952 349.527 239.532C348.795 239.112 348.219 238.518 347.799 237.75C347.379 236.97 347.169 236.07 347.169 235.05C347.169 234.03 347.373 233.136 347.781 232.368C348.189 231.6 348.759 231.012 349.491 230.604C350.235 230.184 351.087 229.974 352.047 229.974C352.983 229.974 353.811 230.178 354.531 230.586C355.251 230.994 355.803 231.558 356.187 232.278C356.583 232.986 356.781 233.79 356.781 234.69ZM355.089 234.348C355.089 233.724 354.951 233.19 354.675 232.746C354.399 232.29 354.021 231.948 353.541 231.72C353.073 231.48 352.551 231.36 351.975 231.36C351.147 231.36 350.439 231.624 349.851 232.152C349.275 232.68 348.945 233.412 348.861 234.348H355.089ZM4.878 276.162C4.122 276.162 3.444 276.036 2.844 275.784C2.244 275.52 1.77 275.16 1.422 274.704C1.074 274.236 0.882 273.702 0.846 273.102H2.538C2.586 273.594 2.814 273.996 3.222 274.308C3.642 274.62 4.188 274.776 4.86 274.776C5.484 274.776 5.976 274.638 6.336 274.362C6.696 274.086 6.876 273.738 6.876 273.318C6.876 272.886 6.684 272.568 6.3 272.364C5.916 272.148 5.322 271.938 4.518 271.734C3.786 271.542 3.186 271.35 2.718 271.158C2.262 270.954 1.866 270.66 1.53 270.276C1.206 269.88 1.044 269.364 1.044 268.728C1.044 268.224 1.194 267.762 1.494 267.342C1.794 266.922 2.22 266.592 2.772 266.352C3.324 266.1 3.954 265.974 4.662 265.974C5.754 265.974 6.636 266.25 7.308 266.802C7.98 267.354 8.34 268.11 8.388 269.07H6.75C6.714 268.554 6.504 268.14 6.12 267.828C5.748 267.516 5.244 267.36 4.608 267.36C4.02 267.36 3.552 267.486 3.204 267.738C2.856 267.99 2.682 268.32 2.682 268.728C2.682 269.052 2.784 269.322 2.988 269.538C3.204 269.742 3.468 269.91 3.78 270.042C4.104 270.162 4.548 270.3 5.112 270.456C5.82 270.648 6.396 270.84 6.84 271.032C7.284 271.212 7.662 271.488 7.974 271.86C8.298 272.232 8.466 272.718 8.478 273.318C8.478 273.858 8.328 274.344 8.028 274.776C7.728 275.208 7.302 275.55 6.75 275.802C6.21 276.042 5.586 276.162 4.878 276.162ZM10.1783 271.05C10.1783 270.03 10.3823 269.142 10.7903 268.386C11.1983 267.618 11.7623 267.024 12.4823 266.604C13.2143 266.184 14.0483 265.974 14.9843 265.974C16.1963 265.974 17.1923 266.268 17.9723 266.856C18.7643 267.444 19.2863 268.26 19.5383 269.304H17.7743C17.6063 268.704 17.2763 268.23 16.7843 267.882C16.3043 267.534 15.7043 267.36 14.9843 267.36C14.0483 267.36 13.2923 267.684 12.7163 268.332C12.1403 268.968 11.8523 269.874 11.8523 271.05C11.8523 272.238 12.1403 273.156 12.7163 273.804C13.2923 274.452 14.0483 274.776 14.9843 274.776C15.7043 274.776 16.3043 274.608 16.7843 274.272C17.2643 273.936 17.5943 273.456 17.7743 272.832H19.5383C19.2743 273.84 18.7463 274.65 17.9543 275.262C17.1623 275.862 16.1723 276.162 14.9843 276.162C14.0483 276.162 13.2143 275.952 12.4823 275.532C11.7623 275.112 11.1983 274.518 10.7903 273.75C10.3823 272.982 10.1783 272.082 10.1783 271.05ZM26.6199 265.956C27.3639 265.956 28.0359 266.118 28.6359 266.442C29.2359 266.754 29.7039 267.228 30.0399 267.864C30.3879 268.5 30.5619 269.274 30.5619 270.186V276H28.9419V270.42C28.9419 269.436 28.6959 268.686 28.2039 268.17C27.7119 267.642 27.0399 267.378 26.1879 267.378C25.3239 267.378 24.6339 267.648 24.1179 268.188C23.6139 268.728 23.3619 269.514 23.3619 270.546V276H21.7239V262.68H23.3619V267.54C23.6859 267.036 24.1299 266.646 24.6939 266.37C25.2699 266.094 25.9119 265.956 26.6199 265.956ZM42.2376 270.69C42.2376 271.002 42.2196 271.332 42.1836 271.68H34.2996C34.3596 272.652 34.6896 273.414 35.2896 273.966C35.9016 274.506 36.6396 274.776 37.5036 274.776C38.2116 274.776 38.7996 274.614 39.2676 274.29C39.7476 273.954 40.0836 273.51 40.2756 272.958H42.0396C41.7756 273.906 41.2476 274.68 40.4556 275.28C39.6636 275.868 38.6796 276.162 37.5036 276.162C36.5676 276.162 35.7276 275.952 34.9836 275.532C34.2516 275.112 33.6756 274.518 33.2556 273.75C32.8356 272.97 32.6256 272.07 32.6256 271.05C32.6256 270.03 32.8296 269.136 33.2376 268.368C33.6456 267.6 34.2156 267.012 34.9476 266.604C35.6916 266.184 36.5436 265.974 37.5036 265.974C38.4396 265.974 39.2676 266.178 39.9876 266.586C40.7076 266.994 41.2596 267.558 41.6436 268.278C42.0396 268.986 42.2376 269.79 42.2376 270.69ZM40.5456 270.348C40.5456 269.724 40.4076 269.19 40.1316 268.746C39.8556 268.29 39.4776 267.948 38.9976 267.72C38.5296 267.48 38.0076 267.36 37.4316 267.36C36.6036 267.36 35.8956 267.624 35.3076 268.152C34.7316 268.68 34.4016 269.412 34.3176 270.348H40.5456ZM43.7877 271.032C43.7877 270.024 43.9917 269.142 44.3997 268.386C44.8077 267.618 45.3657 267.024 46.0737 266.604C46.7937 266.184 47.5977 265.974 48.4857 265.974C49.2537 265.974 49.9677 266.154 50.6277 266.514C51.2877 266.862 51.7917 267.324 52.1397 267.9V262.68H53.7957V276H52.1397V274.146C51.8157 274.734 51.3357 275.22 50.6997 275.604C50.0637 275.976 49.3197 276.162 48.4677 276.162C47.5917 276.162 46.7937 275.946 46.0737 275.514C45.3657 275.082 44.8077 274.476 44.3997 273.696C43.9917 272.916 43.7877 272.028 43.7877 271.032ZM52.1397 271.05C52.1397 270.306 51.9897 269.658 51.6897 269.106C51.3897 268.554 50.9817 268.134 50.4657 267.846C49.9617 267.546 49.4037 267.396 48.7917 267.396C48.1797 267.396 47.6217 267.54 47.1177 267.828C46.6137 268.116 46.2117 268.536 45.9117 269.088C45.6117 269.64 45.4617 270.288 45.4617 271.032C45.4617 271.788 45.6117 272.448 45.9117 273.012C46.2117 273.564 46.6137 273.99 47.1177 274.29C47.6217 274.578 48.1797 274.722 48.7917 274.722C49.4037 274.722 49.9617 274.578 50.4657 274.29C50.9817 273.99 51.3897 273.564 51.6897 273.012C51.9897 272.448 52.1397 271.794 52.1397 271.05ZM65.3117 266.136V276H63.6737V274.542C63.3617 275.046 62.9237 275.442 62.3597 275.73C61.8077 276.006 61.1957 276.144 60.5237 276.144C59.7557 276.144 59.0657 275.988 58.4537 275.676C57.8417 275.352 57.3557 274.872 56.9957 274.236C56.6477 273.6 56.4737 272.826 56.4737 271.914V266.136H58.0937V271.698C58.0937 272.67 58.3397 273.42 58.8317 273.948C59.3237 274.464 59.9957 274.722 60.8477 274.722C61.7237 274.722 62.4137 274.452 62.9177 273.912C63.4217 273.372 63.6737 272.586 63.6737 271.554V266.136H65.3117ZM69.7154 262.68V276H68.0774V262.68H69.7154ZM81.5071 270.69C81.5071 271.002 81.4891 271.332 81.4531 271.68H73.5691C73.6291 272.652 73.9591 273.414 74.5591 273.966C75.1711 274.506 75.9091 274.776 76.7731 274.776C77.4811 274.776 78.0691 274.614 78.5371 274.29C79.0171 273.954 79.3531 273.51 79.5451 272.958H81.3091C81.0451 273.906 80.5171 274.68 79.7251 275.28C78.9331 275.868 77.9491 276.162 76.7731 276.162C75.8371 276.162 74.9971 275.952 74.2531 275.532C73.5211 275.112 72.9451 274.518 72.5251 273.75C72.1051 272.97 71.8951 272.07 71.8951 271.05C71.8951 270.03 72.0991 269.136 72.5071 268.368C72.9151 267.6 73.4851 267.012 74.2171 266.604C74.9611 266.184 75.8131 265.974 76.7731 265.974C77.7091 265.974 78.5371 266.178 79.2571 266.586C79.9771 266.994 80.5291 267.558 80.9131 268.278C81.3091 268.986 81.5071 269.79 81.5071 270.69ZM79.8151 270.348C79.8151 269.724 79.6771 269.19 79.4011 268.746C79.1251 268.29 78.7471 267.948 78.2671 267.72C77.7991 267.48 77.2771 267.36 76.7011 267.36C75.8731 267.36 75.1651 267.624 74.5771 268.152C74.0011 268.68 73.6711 269.412 73.5871 270.348H79.8151ZM90.106 267.972C90.442 267.384 90.934 266.904 91.582 266.532C92.23 266.16 92.968 265.974 93.796 265.974C94.684 265.974 95.482 266.184 96.19 266.604C96.898 267.024 97.456 267.618 97.864 268.386C98.272 269.142 98.476 270.024 98.476 271.032C98.476 272.028 98.272 272.916 97.864 273.696C97.456 274.476 96.892 275.082 96.172 275.514C95.464 275.946 94.672 276.162 93.796 276.162C92.944 276.162 92.194 275.976 91.546 275.604C90.91 275.232 90.43 274.758 90.106 274.182V276H88.468V262.68H90.106V267.972ZM96.802 271.032C96.802 270.288 96.652 269.64 96.352 269.088C96.052 268.536 95.644 268.116 95.128 267.828C94.624 267.54 94.066 267.396 93.454 267.396C92.854 267.396 92.296 267.546 91.78 267.846C91.276 268.134 90.868 268.56 90.556 269.124C90.256 269.676 90.106 270.318 90.106 271.05C90.106 271.794 90.256 272.448 90.556 273.012C90.868 273.564 91.276 273.99 91.78 274.29C92.296 274.578 92.854 274.722 93.454 274.722C94.066 274.722 94.624 274.578 95.128 274.29C95.644 273.99 96.052 273.564 96.352 273.012C96.652 272.448 96.802 271.788 96.802 271.032ZM109.632 270.69C109.632 271.002 109.614 271.332 109.578 271.68H101.694C101.754 272.652 102.084 273.414 102.684 273.966C103.296 274.506 104.034 274.776 104.898 274.776C105.606 274.776 106.194 274.614 106.662 274.29C107.142 273.954 107.478 273.51 107.67 272.958H109.434C109.17 273.906 108.642 274.68 107.85 275.28C107.058 275.868 106.074 276.162 104.898 276.162C103.962 276.162 103.122 275.952 102.378 275.532C101.646 275.112 101.07 274.518 100.65 273.75C100.23 272.97 100.02 272.07 100.02 271.05C100.02 270.03 100.224 269.136 100.632 268.368C101.04 267.6 101.61 267.012 102.342 266.604C103.086 266.184 103.938 265.974 104.898 265.974C105.834 265.974 106.662 266.178 107.382 266.586C108.102 266.994 108.654 267.558 109.038 268.278C109.434 268.986 109.632 269.79 109.632 270.69ZM107.94 270.348C107.94 269.724 107.802 269.19 107.526 268.746C107.25 268.29 106.872 267.948 106.392 267.72C105.924 267.48 105.402 267.36 104.826 267.36C103.998 267.36 103.29 267.624 102.702 268.152C102.126 268.68 101.796 269.412 101.712 270.348H107.94ZM111.182 271.05C111.182 270.03 111.386 269.142 111.794 268.386C112.202 267.618 112.766 267.024 113.486 266.604C114.218 266.184 115.052 265.974 115.988 265.974C117.2 265.974 118.196 266.268 118.976 266.856C119.768 267.444 120.29 268.26 120.542 269.304H118.778C118.61 268.704 118.28 268.23 117.788 267.882C117.308 267.534 116.708 267.36 115.988 267.36C115.052 267.36 114.296 267.684 113.72 268.332C113.144 268.968 112.856 269.874 112.856 271.05C112.856 272.238 113.144 273.156 113.72 273.804C114.296 274.452 115.052 274.776 115.988 274.776C116.708 274.776 117.308 274.608 117.788 274.272C118.268 273.936 118.598 273.456 118.778 272.832H120.542C120.278 273.84 119.75 274.65 118.958 275.262C118.166 275.862 117.176 276.162 115.988 276.162C115.052 276.162 114.218 275.952 113.486 275.532C112.766 275.112 112.202 274.518 111.794 273.75C111.386 272.982 111.182 272.082 111.182 271.05ZM127.03 276.162C126.106 276.162 125.266 275.952 124.51 275.532C123.766 275.112 123.178 274.518 122.746 273.75C122.326 272.97 122.116 272.07 122.116 271.05C122.116 270.042 122.332 269.154 122.764 268.386C123.208 267.606 123.808 267.012 124.564 266.604C125.32 266.184 126.166 265.974 127.102 265.974C128.038 265.974 128.884 266.184 129.64 266.604C130.396 267.012 130.99 267.6 131.422 268.368C131.866 269.136 132.088 270.03 132.088 271.05C132.088 272.07 131.86 272.97 131.404 273.75C130.96 274.518 130.354 275.112 129.586 275.532C128.818 275.952 127.966 276.162 127.03 276.162ZM127.03 274.722C127.618 274.722 128.17 274.584 128.686 274.308C129.202 274.032 129.616 273.618 129.928 273.066C130.252 272.514 130.414 271.842 130.414 271.05C130.414 270.258 130.258 269.586 129.946 269.034C129.634 268.482 129.226 268.074 128.722 267.81C128.218 267.534 127.672 267.396 127.084 267.396C126.484 267.396 125.932 267.534 125.428 267.81C124.936 268.074 124.54 268.482 124.24 269.034C123.94 269.586 123.79 270.258 123.79 271.05C123.79 271.854 123.934 272.532 124.222 273.084C124.522 273.636 124.918 274.05 125.41 274.326C125.902 274.59 126.442 274.722 127.03 274.722ZM146.103 265.956C146.871 265.956 147.555 266.118 148.155 266.442C148.755 266.754 149.229 267.228 149.577 267.864C149.925 268.5 150.099 269.274 150.099 270.186V276H148.479V270.42C148.479 269.436 148.233 268.686 147.741 268.17C147.261 267.642 146.607 267.378 145.779 267.378C144.927 267.378 144.249 267.654 143.745 268.206C143.241 268.746 142.989 269.532 142.989 270.564V276H141.369V270.42C141.369 269.436 141.123 268.686 140.631 268.17C140.151 267.642 139.497 267.378 138.669 267.378C137.817 267.378 137.139 267.654 136.635 268.206C136.131 268.746 135.879 269.532 135.879 270.564V276H134.241V266.136H135.879V267.558C136.203 267.042 136.635 266.646 137.175 266.37C137.727 266.094 138.333 265.956 138.993 265.956C139.821 265.956 140.553 266.142 141.189 266.514C141.825 266.886 142.299 267.432 142.611 268.152C142.887 267.456 143.343 266.916 143.979 266.532C144.615 266.148 145.323 265.956 146.103 265.956ZM161.786 270.69C161.786 271.002 161.768 271.332 161.732 271.68H153.848C153.908 272.652 154.238 273.414 154.838 273.966C155.45 274.506 156.188 274.776 157.052 274.776C157.76 274.776 158.348 274.614 158.816 274.29C159.296 273.954 159.632 273.51 159.824 272.958H161.588C161.324 273.906 160.796 274.68 160.004 275.28C159.212 275.868 158.228 276.162 157.052 276.162C156.116 276.162 155.276 275.952 154.532 275.532C153.8 275.112 153.224 274.518 152.804 273.75C152.384 272.97 152.174 272.07 152.174 271.05C152.174 270.03 152.378 269.136 152.786 268.368C153.194 267.6 153.764 267.012 154.496 266.604C155.24 266.184 156.092 265.974 157.052 265.974C157.988 265.974 158.816 266.178 159.536 266.586C160.256 266.994 160.808 267.558 161.192 268.278C161.588 268.986 161.786 269.79 161.786 270.69ZM160.094 270.348C160.094 269.724 159.956 269.19 159.68 268.746C159.404 268.29 159.026 267.948 158.546 267.72C158.078 267.48 157.556 267.36 156.98 267.36C156.152 267.36 155.444 267.624 154.856 268.152C154.28 268.68 153.95 269.412 153.866 270.348H160.094ZM167.441 276.162C166.685 276.162 166.007 276.036 165.407 275.784C164.807 275.52 164.333 275.16 163.985 274.704C163.637 274.236 163.445 273.702 163.409 273.102H165.101C165.149 273.594 165.377 273.996 165.785 274.308C166.205 274.62 166.751 274.776 167.423 274.776C168.047 274.776 168.539 274.638 168.899 274.362C169.259 274.086 169.439 273.738 169.439 273.318C169.439 272.886 169.247 272.568 168.863 272.364C168.479 272.148 167.885 271.938 167.081 271.734C166.349 271.542 165.749 271.35 165.281 271.158C164.825 270.954 164.429 270.66 164.093 270.276C163.769 269.88 163.607 269.364 163.607 268.728C163.607 268.224 163.757 267.762 164.057 267.342C164.357 266.922 164.783 266.592 165.335 266.352C165.887 266.1 166.517 265.974 167.225 265.974C168.317 265.974 169.199 266.25 169.871 266.802C170.543 267.354 170.903 268.11 170.951 269.07H169.313C169.277 268.554 169.067 268.14 168.683 267.828C168.311 267.516 167.807 267.36 167.171 267.36C166.583 267.36 166.115 267.486 165.767 267.738C165.419 267.99 165.245 268.32 165.245 268.728C165.245 269.052 165.347 269.322 165.551 269.538C165.767 269.742 166.031 269.91 166.343 270.042C166.667 270.162 167.111 270.3 167.675 270.456C168.383 270.648 168.959 270.84 169.403 271.032C169.847 271.212 170.225 271.488 170.537 271.86C170.861 272.232 171.029 272.718 171.041 273.318C171.041 273.858 170.891 274.344 170.591 274.776C170.291 275.208 169.865 275.55 169.313 275.802C168.773 276.042 168.149 276.162 167.441 276.162ZM187.152 270.69C187.152 271.002 187.134 271.332 187.098 271.68H179.214C179.274 272.652 179.604 273.414 180.204 273.966C180.816 274.506 181.554 274.776 182.418 274.776C183.126 274.776 183.714 274.614 184.182 274.29C184.662 273.954 184.998 273.51 185.19 272.958H186.954C186.69 273.906 186.162 274.68 185.37 275.28C184.578 275.868 183.594 276.162 182.418 276.162C181.482 276.162 180.642 275.952 179.898 275.532C179.166 275.112 178.59 274.518 178.17 273.75C177.75 272.97 177.54 272.07 177.54 271.05C177.54 270.03 177.744 269.136 178.152 268.368C178.56 267.6 179.13 267.012 179.862 266.604C180.606 266.184 181.458 265.974 182.418 265.974C183.354 265.974 184.182 266.178 184.902 266.586C185.622 266.994 186.174 267.558 186.558 268.278C186.954 268.986 187.152 269.79 187.152 270.69ZM185.46 270.348C185.46 269.724 185.322 269.19 185.046 268.746C184.77 268.29 184.392 267.948 183.912 267.72C183.444 267.48 182.922 267.36 182.346 267.36C181.518 267.36 180.81 267.624 180.222 268.152C179.646 268.68 179.316 269.412 179.232 270.348H185.46ZM188.702 271.032C188.702 270.024 188.906 269.142 189.314 268.386C189.722 267.618 190.28 267.024 190.988 266.604C191.708 266.184 192.506 265.974 193.382 265.974C194.246 265.974 194.996 266.16 195.632 266.532C196.268 266.904 196.742 267.372 197.054 267.936V266.136H198.71V276H197.054V274.164C196.73 274.74 196.244 275.22 195.596 275.604C194.96 275.976 194.216 276.162 193.364 276.162C192.488 276.162 191.696 275.946 190.988 275.514C190.28 275.082 189.722 274.476 189.314 273.696C188.906 272.916 188.702 272.028 188.702 271.032ZM197.054 271.05C197.054 270.306 196.904 269.658 196.604 269.106C196.304 268.554 195.896 268.134 195.38 267.846C194.876 267.546 194.318 267.396 193.706 267.396C193.094 267.396 192.536 267.54 192.032 267.828C191.528 268.116 191.126 268.536 190.826 269.088C190.526 269.64 190.376 270.288 190.376 271.032C190.376 271.788 190.526 272.448 190.826 273.012C191.126 273.564 191.528 273.99 192.032 274.29C192.536 274.578 193.094 274.722 193.706 274.722C194.318 274.722 194.876 274.578 195.38 274.29C195.896 273.99 196.304 273.564 196.604 273.012C196.904 272.448 197.054 271.794 197.054 271.05ZM204.97 276.162C204.214 276.162 203.536 276.036 202.936 275.784C202.336 275.52 201.862 275.16 201.514 274.704C201.166 274.236 200.974 273.702 200.938 273.102H202.63C202.678 273.594 202.906 273.996 203.314 274.308C203.734 274.62 204.28 274.776 204.952 274.776C205.576 274.776 206.068 274.638 206.428 274.362C206.788 274.086 206.968 273.738 206.968 273.318C206.968 272.886 206.776 272.568 206.392 272.364C206.008 272.148 205.414 271.938 204.61 271.734C203.878 271.542 203.278 271.35 202.81 271.158C202.354 270.954 201.958 270.66 201.622 270.276C201.298 269.88 201.136 269.364 201.136 268.728C201.136 268.224 201.286 267.762 201.586 267.342C201.886 266.922 202.312 266.592 202.864 266.352C203.416 266.1 204.046 265.974 204.754 265.974C205.846 265.974 206.728 266.25 207.4 266.802C208.072 267.354 208.432 268.11 208.48 269.07H206.842C206.806 268.554 206.596 268.14 206.212 267.828C205.84 267.516 205.336 267.36 204.7 267.36C204.112 267.36 203.644 267.486 203.296 267.738C202.948 267.99 202.774 268.32 202.774 268.728C202.774 269.052 202.876 269.322 203.08 269.538C203.296 269.742 203.56 269.91 203.872 270.042C204.196 270.162 204.64 270.3 205.204 270.456C205.912 270.648 206.488 270.84 206.932 271.032C207.376 271.212 207.754 271.488 208.066 271.86C208.39 272.232 208.558 272.718 208.57 273.318C208.57 273.858 208.42 274.344 208.12 274.776C207.82 275.208 207.394 275.55 206.842 275.802C206.302 276.042 205.678 276.162 204.97 276.162ZM219.378 266.136L213.438 280.644H211.746L213.69 275.892L209.712 266.136H211.53L214.626 274.128L217.686 266.136H219.378Z" fill="#747474"/>
<path opacity="0.25" d="M50 55.1217C49.5893 55.1217 49.188 55.0144 48.8333 54.8114L27.8333 42.6827C27.4786 42.4779 27.1841 42.1833 26.9793 41.8286C26.7746 41.4739 26.6667 41.0716 26.6667 40.662C26.6667 40.2525 26.7746 39.8501 26.9793 39.4954C27.1841 39.1407 27.4786 38.8462 27.8333 38.6414L48.8333 26.522C49.5566 26.109 50.4433 26.109 51.1666 26.522L72.1666 38.6414C72.5213 38.8462 72.8159 39.1407 73.0206 39.4954C73.2254 39.8501 73.3332 40.2525 73.3332 40.662C73.3332 41.0716 73.2254 41.4739 73.0206 41.8286C72.8159 42.1833 72.5213 42.4779 72.1666 42.6827L51.1666 54.8114C50.8116 55.0152 50.4093 55.1222 50 55.1217Z" fill="#2D76F9"/>
<path opacity="0.5" d="M72.1666 47.9746L67.584 45.3286L51.1666 54.8113C50.4433 55.2266 49.5566 55.2266 48.8333 54.8113L32.416 45.3286L27.8333 47.9746C27.4786 48.1794 27.1841 48.474 26.9793 48.8287C26.7746 49.1834 26.6667 49.5857 26.6667 49.9953C26.6667 50.4048 26.7746 50.8072 26.9793 51.1619C27.1841 51.5166 27.4786 51.8111 27.8333 52.0159L48.8333 64.1446C49.5566 64.5599 50.4433 64.5599 51.1666 64.1446L72.1666 52.0159C72.5213 51.8111 72.8159 51.5166 73.0206 51.1619C73.2254 50.8072 73.3332 50.4048 73.3332 49.9953C73.3332 49.5857 73.2254 49.1834 73.0206 48.8287C72.8159 48.474 72.5213 48.1794 72.1666 47.9746Z" fill="#2D76F9"/>
<path d="M72.1666 57.308L67.584 54.662L51.1666 64.1447C50.4433 64.56 49.5566 64.56 48.8333 64.1447L32.416 54.662L27.8333 57.308C27.4786 57.5128 27.1841 57.8073 26.9793 58.162C26.7746 58.5167 26.6667 58.9191 26.6667 59.3287C26.6667 59.7382 26.7746 60.1406 26.9793 60.4953C27.1841 60.85 27.4786 61.1445 27.8333 61.3493L48.8333 73.478C49.5566 73.8933 50.4433 73.8933 51.1666 73.478L72.1666 61.3493C72.5213 61.1445 72.8159 60.85 73.0206 60.4953C73.2254 60.1406 73.3332 59.7382 73.3332 59.3287C73.3332 58.9191 73.2254 58.5167 73.0206 58.162C72.8159 57.8073 72.5213 57.5128 72.1666 57.308Z" fill="#2D76F9"/>
</svg>
