<svg width="387" height="288" viewBox="0 0 387 288" fill="none" xmlns="http://www.w3.org/2000/svg">
<rect width="100" height="100" rx="50" fill="#EEF4FF"/>
<path d="M24.672 159.152L20.28 176H15.312L12.624 164.912L9.84 176H4.872L0.6 159.152H4.992L7.416 171.416L10.416 159.152H14.928L17.808 171.416L20.256 159.152H24.672ZM32.8262 176.192C31.5142 176.192 30.3302 175.912 29.2742 175.352C28.2342 174.792 27.4102 173.992 26.8022 172.952C26.2102 171.912 25.9142 170.696 25.9142 169.304C25.9142 167.928 26.2182 166.72 26.8262 165.68C27.4342 164.624 28.2662 163.816 29.3222 163.256C30.3782 162.696 31.5622 162.416 32.8742 162.416C34.1862 162.416 35.3702 162.696 36.4262 163.256C37.4822 163.816 38.3142 164.624 38.9222 165.68C39.5302 166.72 39.8342 167.928 39.8342 169.304C39.8342 170.68 39.5222 171.896 38.8982 172.952C38.2902 173.992 37.4502 174.792 36.3782 175.352C35.3222 175.912 34.1382 176.192 32.8262 176.192ZM32.8262 172.64C33.6102 172.64 34.2742 172.352 34.8182 171.776C35.3782 171.2 35.6582 170.376 35.6582 169.304C35.6582 168.232 35.3862 167.408 34.8422 166.832C34.3142 166.256 33.6582 165.968 32.8742 165.968C32.0742 165.968 31.4102 166.256 30.8822 166.832C30.3542 167.392 30.0902 168.216 30.0902 169.304C30.0902 170.376 30.3462 171.2 30.8582 171.776C31.3862 172.352 32.0422 172.64 32.8262 172.64ZM55.2354 162.608V176H51.1314V174.176C50.7154 174.768 50.1474 175.248 49.4274 175.616C48.7234 175.968 47.9394 176.144 47.0754 176.144C46.0514 176.144 45.1474 175.92 44.3634 175.472C43.5794 175.008 42.9714 174.344 42.5394 173.48C42.1074 172.616 41.8914 171.6 41.8914 170.432V162.608H45.9714V169.88C45.9714 170.776 46.2034 171.472 46.6674 171.968C47.1314 172.464 47.7554 172.712 48.5394 172.712C49.3394 172.712 49.9714 172.464 50.4354 171.968C50.8994 171.472 51.1314 170.776 51.1314 169.88V162.608H55.2354ZM62.2873 158.24V176H58.1833V158.24H62.2873ZM64.4454 169.28C64.4454 167.904 64.7014 166.696 65.2134 165.656C65.7414 164.616 66.4534 163.816 67.3494 163.256C68.2454 162.696 69.2454 162.416 70.3494 162.416C71.2294 162.416 72.0294 162.6 72.7494 162.968C73.4854 163.336 74.0614 163.832 74.4774 164.456V158.24H78.5814V176H74.4774V174.08C74.0934 174.72 73.5414 175.232 72.8214 175.616C72.1174 176 71.2934 176.192 70.3494 176.192C69.2454 176.192 68.2454 175.912 67.3494 175.352C66.4534 174.776 65.7414 173.968 65.2134 172.928C64.7014 171.872 64.4454 170.656 64.4454 169.28ZM74.4774 169.304C74.4774 168.28 74.1894 167.472 73.6134 166.88C73.0534 166.288 72.3654 165.992 71.5494 165.992C70.7334 165.992 70.0374 166.288 69.4614 166.88C68.9014 167.456 68.6214 168.256 68.6214 169.28C68.6214 170.304 68.9014 171.12 69.4614 171.728C70.0374 172.32 70.7334 172.616 71.5494 172.616C72.3654 172.616 73.0534 172.32 73.6134 171.728C74.1894 171.136 74.4774 170.328 74.4774 169.304ZM89.7105 162.464C91.2785 162.464 92.5265 162.976 93.4545 164C94.3985 165.008 94.8705 166.4 94.8705 168.176V176H90.7905V168.728C90.7905 167.832 90.5585 167.136 90.0945 166.64C89.6305 166.144 89.0065 165.896 88.2225 165.896C87.4385 165.896 86.8145 166.144 86.3505 166.64C85.8865 167.136 85.6545 167.832 85.6545 168.728V176H81.5505V162.608H85.6545V164.384C86.0705 163.792 86.6305 163.328 87.3345 162.992C88.0385 162.64 88.8305 162.464 89.7105 162.464ZM98.6584 159.152H102.858L100.17 165.584H97.4104L98.6584 159.152ZM112.733 172.52V176H110.645C109.157 176 107.997 175.64 107.165 174.92C106.333 174.184 105.917 172.992 105.917 171.344V166.016H104.285V162.608H105.917V159.344H110.021V162.608H112.709V166.016H110.021V171.392C110.021 171.792 110.117 172.08 110.309 172.256C110.501 172.432 110.821 172.52 111.269 172.52H112.733ZM137.193 162.464C138.857 162.464 140.177 162.968 141.153 163.976C142.145 164.984 142.641 166.384 142.641 168.176V176H138.561V168.728C138.561 167.864 138.329 167.2 137.865 166.736C137.417 166.256 136.793 166.016 135.993 166.016C135.193 166.016 134.561 166.256 134.097 166.736C133.649 167.2 133.425 167.864 133.425 168.728V176H129.345V168.728C129.345 167.864 129.113 167.2 128.649 166.736C128.201 166.256 127.577 166.016 126.777 166.016C125.977 166.016 125.345 166.256 124.881 166.736C124.433 167.2 124.209 167.864 124.209 168.728V176H120.105V162.608H124.209V164.288C124.625 163.728 125.169 163.288 125.841 162.968C126.513 162.632 127.273 162.464 128.121 162.464C129.129 162.464 130.025 162.68 130.809 163.112C131.609 163.544 132.233 164.16 132.681 164.96C133.145 164.224 133.777 163.624 134.577 163.16C135.377 162.696 136.249 162.464 137.193 162.464ZM147.575 161.216C146.855 161.216 146.263 161.008 145.799 160.592C145.351 160.16 145.127 159.632 145.127 159.008C145.127 158.368 145.351 157.84 145.799 157.424C146.263 156.992 146.855 156.776 147.575 156.776C148.279 156.776 148.855 156.992 149.303 157.424C149.767 157.84 149.999 158.368 149.999 159.008C149.999 159.632 149.767 160.16 149.303 160.592C148.855 161.008 148.279 161.216 147.575 161.216ZM149.615 162.608V176H145.511V162.608H149.615ZM158.038 176.192C156.87 176.192 155.83 175.992 154.918 175.592C154.006 175.192 153.286 174.648 152.758 173.96C152.23 173.256 151.934 172.472 151.87 171.608H155.926C155.974 172.072 156.19 172.448 156.574 172.736C156.958 173.024 157.43 173.168 157.99 173.168C158.502 173.168 158.894 173.072 159.166 172.88C159.454 172.672 159.598 172.408 159.598 172.088C159.598 171.704 159.398 171.424 158.998 171.248C158.598 171.056 157.95 170.848 157.054 170.624C156.094 170.4 155.294 170.168 154.654 169.928C154.014 169.672 153.462 169.28 152.998 168.752C152.534 168.208 152.302 167.48 152.302 166.568C152.302 165.8 152.51 165.104 152.926 164.48C153.358 163.84 153.982 163.336 154.798 162.968C155.63 162.6 156.614 162.416 157.75 162.416C159.43 162.416 160.75 162.832 161.71 163.664C162.686 164.496 163.246 165.6 163.39 166.976H159.598C159.534 166.512 159.326 166.144 158.974 165.872C158.638 165.6 158.19 165.464 157.63 165.464C157.15 165.464 156.782 165.56 156.526 165.752C156.27 165.928 156.142 166.176 156.142 166.496C156.142 166.88 156.342 167.168 156.742 167.36C157.158 167.552 157.798 167.744 158.662 167.936C159.654 168.192 160.462 168.448 161.086 168.704C161.71 168.944 162.254 169.344 162.718 169.904C163.198 170.448 163.446 171.184 163.462 172.112C163.462 172.896 163.238 173.6 162.79 174.224C162.358 174.832 161.726 175.312 160.894 175.664C160.078 176.016 159.126 176.192 158.038 176.192ZM171.42 176.192C170.252 176.192 169.212 175.992 168.3 175.592C167.388 175.192 166.668 174.648 166.14 173.96C165.612 173.256 165.316 172.472 165.252 171.608H169.308C169.356 172.072 169.572 172.448 169.956 172.736C170.34 173.024 170.812 173.168 171.372 173.168C171.884 173.168 172.276 173.072 172.548 172.88C172.836 172.672 172.98 172.408 172.98 172.088C172.98 171.704 172.78 171.424 172.38 171.248C171.98 171.056 171.332 170.848 170.436 170.624C169.476 170.4 168.676 170.168 168.036 169.928C167.396 169.672 166.844 169.28 166.38 168.752C165.916 168.208 165.684 167.48 165.684 166.568C165.684 165.8 165.892 165.104 166.308 164.48C166.74 163.84 167.364 163.336 168.18 162.968C169.012 162.6 169.996 162.416 171.132 162.416C172.812 162.416 174.132 162.832 175.092 163.664C176.068 164.496 176.628 165.6 176.772 166.976H172.98C172.916 166.512 172.708 166.144 172.356 165.872C172.02 165.6 171.572 165.464 171.012 165.464C170.532 165.464 170.164 165.56 169.908 165.752C169.652 165.928 169.524 166.176 169.524 166.496C169.524 166.88 169.724 167.168 170.124 167.36C170.54 167.552 171.18 167.744 172.044 167.936C173.036 168.192 173.844 168.448 174.468 168.704C175.092 168.944 175.636 169.344 176.1 169.904C176.58 170.448 176.828 171.184 176.844 172.112C176.844 172.896 176.62 173.6 176.172 174.224C175.74 174.832 175.108 175.312 174.276 175.664C173.46 176.016 172.508 176.192 171.42 176.192ZM192.601 162.464C194.169 162.464 195.417 162.976 196.345 164C197.289 165.008 197.761 166.4 197.761 168.176V176H193.681V168.728C193.681 167.832 193.449 167.136 192.985 166.64C192.521 166.144 191.897 165.896 191.113 165.896C190.329 165.896 189.705 166.144 189.241 166.64C188.777 167.136 188.545 167.832 188.545 168.728V176H184.441V162.608H188.545V164.384C188.961 163.792 189.521 163.328 190.225 162.992C190.929 162.64 191.721 162.464 192.601 162.464ZM206.709 176.192C205.397 176.192 204.213 175.912 203.157 175.352C202.117 174.792 201.293 173.992 200.685 172.952C200.093 171.912 199.797 170.696 199.797 169.304C199.797 167.928 200.101 166.72 200.709 165.68C201.317 164.624 202.149 163.816 203.205 163.256C204.261 162.696 205.445 162.416 206.757 162.416C208.069 162.416 209.253 162.696 210.309 163.256C211.365 163.816 212.197 164.624 212.805 165.68C213.413 166.72 213.717 167.928 213.717 169.304C213.717 170.68 213.405 171.896 212.781 172.952C212.173 173.992 211.333 174.792 210.261 175.352C209.205 175.912 208.021 176.192 206.709 176.192ZM206.709 172.64C207.493 172.64 208.157 172.352 208.701 171.776C209.261 171.2 209.541 170.376 209.541 169.304C209.541 168.232 209.269 167.408 208.725 166.832C208.197 166.256 207.541 165.968 206.757 165.968C205.957 165.968 205.293 166.256 204.765 166.832C204.237 167.392 203.973 168.216 203.973 169.304C203.973 170.376 204.229 171.2 204.741 171.776C205.269 172.352 205.925 172.64 206.709 172.64ZM223.358 172.52V176H221.27C219.782 176 218.622 175.64 217.79 174.92C216.958 174.184 216.542 172.992 216.542 171.344V166.016H214.91V162.608H216.542V159.344H220.646V162.608H223.334V166.016H220.646V171.392C220.646 171.792 220.742 172.08 220.934 172.256C221.126 172.432 221.446 172.52 221.894 172.52H223.358ZM227.708 161.216C226.988 161.216 226.396 161.008 225.932 160.592C225.484 160.16 225.26 159.632 225.26 159.008C225.26 158.368 225.484 157.84 225.932 157.424C226.396 156.992 226.988 156.776 227.708 156.776C228.412 156.776 228.988 156.992 229.436 157.424C229.9 157.84 230.132 158.368 230.132 159.008C230.132 159.632 229.9 160.16 229.436 160.592C228.988 161.008 228.412 161.216 227.708 161.216ZM229.748 162.608V176H225.644V162.608H229.748ZM239.442 166.016H237.234V176H233.13V166.016H231.642V162.608H233.13V162.224C233.13 160.576 233.602 159.328 234.546 158.48C235.49 157.616 236.874 157.184 238.698 157.184C239.002 157.184 239.226 157.192 239.37 157.208V160.688C238.586 160.64 238.034 160.752 237.714 161.024C237.394 161.296 237.234 161.784 237.234 162.488V162.608H239.442V166.016ZM243.435 161.216C242.715 161.216 242.123 161.008 241.659 160.592C241.211 160.16 240.987 159.632 240.987 159.008C240.987 158.368 241.211 157.84 241.659 157.424C242.123 156.992 242.715 156.776 243.435 156.776C244.139 156.776 244.715 156.992 245.163 157.424C245.627 157.84 245.859 158.368 245.859 159.008C245.859 159.632 245.627 160.16 245.163 160.592C244.715 161.008 244.139 161.216 243.435 161.216ZM245.475 162.608V176H241.371V162.608H245.475ZM247.633 169.304C247.633 167.912 247.913 166.696 248.473 165.656C249.049 164.616 249.841 163.816 250.849 163.256C251.873 162.696 253.041 162.416 254.353 162.416C256.033 162.416 257.433 162.856 258.553 163.736C259.689 164.616 260.433 165.856 260.785 167.456H256.417C256.049 166.432 255.337 165.92 254.281 165.92C253.529 165.92 252.929 166.216 252.481 166.808C252.033 167.384 251.809 168.216 251.809 169.304C251.809 170.392 252.033 171.232 252.481 171.824C252.929 172.4 253.529 172.688 254.281 172.688C255.337 172.688 256.049 172.176 256.417 171.152H260.785C260.433 172.72 259.689 173.952 258.553 174.848C257.417 175.744 256.017 176.192 254.353 176.192C253.041 176.192 251.873 175.912 250.849 175.352C249.841 174.792 249.049 173.992 248.473 172.952C247.913 171.912 247.633 170.696 247.633 169.304ZM262.164 169.28C262.164 167.904 262.42 166.696 262.932 165.656C263.46 164.616 264.172 163.816 265.068 163.256C265.964 162.696 266.964 162.416 268.068 162.416C269.012 162.416 269.836 162.608 270.54 162.992C271.26 163.376 271.812 163.88 272.196 164.504V162.608H276.3V176H272.196V174.104C271.796 174.728 271.236 175.232 270.516 175.616C269.812 176 268.988 176.192 268.044 176.192C266.956 176.192 265.964 175.912 265.068 175.352C264.172 174.776 263.46 173.968 262.932 172.928C262.42 171.872 262.164 170.656 262.164 169.28ZM272.196 169.304C272.196 168.28 271.908 167.472 271.332 166.88C270.772 166.288 270.084 165.992 269.268 165.992C268.452 165.992 267.756 166.288 267.18 166.88C266.62 167.456 266.34 168.256 266.34 169.28C266.34 170.304 266.62 171.12 267.18 171.728C267.756 172.32 268.452 172.616 269.268 172.616C270.084 172.616 270.772 172.32 271.332 171.728C271.908 171.136 272.196 170.328 272.196 169.304ZM286.733 172.52V176H284.645C283.157 176 281.997 175.64 281.165 174.92C280.333 174.184 279.917 172.992 279.917 171.344V166.016H278.285V162.608H279.917V159.344H284.021V162.608H286.709V166.016H284.021V171.392C284.021 171.792 284.117 172.08 284.309 172.256C284.501 172.432 284.821 172.52 285.269 172.52H286.733ZM291.083 161.216C290.363 161.216 289.771 161.008 289.307 160.592C288.859 160.16 288.635 159.632 288.635 159.008C288.635 158.368 288.859 157.84 289.307 157.424C289.771 156.992 290.363 156.776 291.083 156.776C291.787 156.776 292.363 156.992 292.811 157.424C293.275 157.84 293.507 158.368 293.507 159.008C293.507 159.632 293.275 160.16 292.811 160.592C292.363 161.008 291.787 161.216 291.083 161.216ZM293.123 162.608V176H289.019V162.608H293.123ZM302.193 176.192C300.881 176.192 299.697 175.912 298.641 175.352C297.601 174.792 296.777 173.992 296.169 172.952C295.577 171.912 295.281 170.696 295.281 169.304C295.281 167.928 295.585 166.72 296.193 165.68C296.801 164.624 297.633 163.816 298.689 163.256C299.745 162.696 300.929 162.416 302.241 162.416C303.553 162.416 304.737 162.696 305.793 163.256C306.849 163.816 307.681 164.624 308.289 165.68C308.897 166.72 309.201 167.928 309.201 169.304C309.201 170.68 308.889 171.896 308.265 172.952C307.657 173.992 306.817 174.792 305.745 175.352C304.689 175.912 303.505 176.192 302.193 176.192ZM302.193 172.64C302.977 172.64 303.641 172.352 304.185 171.776C304.745 171.2 305.025 170.376 305.025 169.304C305.025 168.232 304.753 167.408 304.209 166.832C303.681 166.256 303.025 165.968 302.241 165.968C301.441 165.968 300.777 166.256 300.249 166.832C299.721 167.392 299.457 168.216 299.457 169.304C299.457 170.376 299.713 171.2 300.225 171.776C300.753 172.352 301.409 172.64 302.193 172.64ZM319.539 162.464C321.107 162.464 322.355 162.976 323.283 164C324.227 165.008 324.699 166.4 324.699 168.176V176H320.619V168.728C320.619 167.832 320.387 167.136 319.923 166.64C319.459 166.144 318.835 165.896 318.051 165.896C317.267 165.896 316.643 166.144 316.179 166.64C315.715 167.136 315.483 167.832 315.483 168.728V176H311.379V162.608H315.483V164.384C315.899 163.792 316.459 163.328 317.163 162.992C317.867 162.64 318.659 162.464 319.539 162.464ZM332.999 176.192C331.831 176.192 330.791 175.992 329.879 175.592C328.967 175.192 328.247 174.648 327.719 173.96C327.191 173.256 326.895 172.472 326.831 171.608H330.887C330.935 172.072 331.151 172.448 331.535 172.736C331.919 173.024 332.391 173.168 332.951 173.168C333.463 173.168 333.855 173.072 334.127 172.88C334.415 172.672 334.559 172.408 334.559 172.088C334.559 171.704 334.359 171.424 333.959 171.248C333.559 171.056 332.911 170.848 332.015 170.624C331.055 170.4 330.255 170.168 329.615 169.928C328.975 169.672 328.423 169.28 327.959 168.752C327.495 168.208 327.263 167.48 327.263 166.568C327.263 165.8 327.471 165.104 327.887 164.48C328.319 163.84 328.943 163.336 329.759 162.968C330.591 162.6 331.575 162.416 332.711 162.416C334.391 162.416 335.711 162.832 336.671 163.664C337.647 164.496 338.207 165.6 338.351 166.976H334.559C334.495 166.512 334.287 166.144 333.935 165.872C333.599 165.6 333.151 165.464 332.591 165.464C332.111 165.464 331.743 165.56 331.487 165.752C331.231 165.928 331.103 166.176 331.103 166.496C331.103 166.88 331.303 167.168 331.703 167.36C332.119 167.552 332.759 167.744 333.623 167.936C334.615 168.192 335.423 168.448 336.047 168.704C336.671 168.944 337.215 169.344 337.679 169.904C338.159 170.448 338.407 171.184 338.423 172.112C338.423 172.896 338.199 173.6 337.751 174.224C337.319 174.832 336.687 175.312 335.855 175.664C335.039 176.016 334.087 176.192 332.999 176.192Z" fill="#212121"/>
<path d="M7.074 240.126C5.91 240.126 4.848 239.856 3.888 239.316C2.928 238.764 2.166 238.002 1.602 237.03C1.05 236.046 0.774 234.942 0.774 233.718C0.774 232.494 1.05 231.396 1.602 230.424C2.166 229.44 2.928 228.678 3.888 228.138C4.848 227.586 5.91 227.31 7.074 227.31C8.25 227.31 9.318 227.586 10.278 228.138C11.238 228.678 11.994 229.434 12.546 230.406C13.098 231.378 13.374 232.482 13.374 233.718C13.374 234.954 13.098 236.058 12.546 237.03C11.994 238.002 11.238 238.764 10.278 239.316C9.318 239.856 8.25 240.126 7.074 240.126ZM7.074 238.704C7.95 238.704 8.736 238.5 9.432 238.092C10.14 237.684 10.692 237.102 11.088 236.346C11.496 235.59 11.7 234.714 11.7 233.718C11.7 232.71 11.496 231.834 11.088 231.09C10.692 230.334 10.146 229.752 9.45 229.344C8.754 228.936 7.962 228.732 7.074 228.732C6.186 228.732 5.394 228.936 4.698 229.344C4.002 229.752 3.45 230.334 3.042 231.09C2.646 231.834 2.448 232.71 2.448 233.718C2.448 234.714 2.646 235.59 3.042 236.346C3.45 237.102 4.002 237.684 4.698 238.092C5.406 238.5 6.198 238.704 7.074 238.704ZM19.5504 231.486H17.4804V240H15.8424V231.486H14.5644V230.136H15.8424V229.434C15.8424 228.33 16.1244 227.526 16.6884 227.022C17.2644 226.506 18.1824 226.248 19.4424 226.248V227.616C18.7224 227.616 18.2124 227.76 17.9124 228.048C17.6244 228.324 17.4804 228.786 17.4804 229.434V230.136H19.5504V231.486ZM25.647 235.05C25.647 234.03 25.851 233.142 26.259 232.386C26.667 231.618 27.231 231.024 27.951 230.604C28.683 230.184 29.517 229.974 30.453 229.974C31.665 229.974 32.661 230.268 33.441 230.856C34.233 231.444 34.755 232.26 35.007 233.304H33.243C33.075 232.704 32.745 232.23 32.253 231.882C31.773 231.534 31.173 231.36 30.453 231.36C29.517 231.36 28.761 231.684 28.185 232.332C27.609 232.968 27.321 233.874 27.321 235.05C27.321 236.238 27.609 237.156 28.185 237.804C28.761 238.452 29.517 238.776 30.453 238.776C31.173 238.776 31.773 238.608 32.253 238.272C32.733 237.936 33.063 237.456 33.243 236.832H35.007C34.743 237.84 34.215 238.65 33.423 239.262C32.631 239.862 31.641 240.162 30.453 240.162C29.517 240.162 28.683 239.952 27.951 239.532C27.231 239.112 26.667 238.518 26.259 237.75C25.851 236.982 25.647 236.082 25.647 235.05ZM41.4946 240.162C40.5706 240.162 39.7306 239.952 38.9746 239.532C38.2306 239.112 37.6426 238.518 37.2106 237.75C36.7906 236.97 36.5806 236.07 36.5806 235.05C36.5806 234.042 36.7966 233.154 37.2286 232.386C37.6726 231.606 38.2726 231.012 39.0286 230.604C39.7846 230.184 40.6306 229.974 41.5666 229.974C42.5026 229.974 43.3486 230.184 44.1046 230.604C44.8606 231.012 45.4546 231.6 45.8866 232.368C46.3306 233.136 46.5526 234.03 46.5526 235.05C46.5526 236.07 46.3246 236.97 45.8686 237.75C45.4246 238.518 44.8186 239.112 44.0506 239.532C43.2826 239.952 42.4306 240.162 41.4946 240.162ZM41.4946 238.722C42.0826 238.722 42.6346 238.584 43.1506 238.308C43.6666 238.032 44.0806 237.618 44.3926 237.066C44.7166 236.514 44.8786 235.842 44.8786 235.05C44.8786 234.258 44.7226 233.586 44.4106 233.034C44.0986 232.482 43.6906 232.074 43.1866 231.81C42.6826 231.534 42.1366 231.396 41.5486 231.396C40.9486 231.396 40.3966 231.534 39.8926 231.81C39.4006 232.074 39.0046 232.482 38.7046 233.034C38.4046 233.586 38.2546 234.258 38.2546 235.05C38.2546 235.854 38.3986 236.532 38.6866 237.084C38.9866 237.636 39.3826 238.05 39.8746 238.326C40.3666 238.59 40.9066 238.722 41.4946 238.722ZM57.4543 230.136V240H55.8163V238.542C55.5043 239.046 55.0663 239.442 54.5023 239.73C53.9503 240.006 53.3383 240.144 52.6663 240.144C51.8983 240.144 51.2083 239.988 50.5963 239.676C49.9843 239.352 49.4983 238.872 49.1383 238.236C48.7903 237.6 48.6163 236.826 48.6163 235.914V230.136H50.2363V235.698C50.2363 236.67 50.4823 237.42 50.9743 237.948C51.4663 238.464 52.1383 238.722 52.9903 238.722C53.8663 238.722 54.5563 238.452 55.0603 237.912C55.5643 237.372 55.8163 236.586 55.8163 235.554V230.136H57.4543ZM61.858 231.738C62.146 231.174 62.554 230.736 63.082 230.424C63.622 230.112 64.276 229.956 65.044 229.956V231.648H64.612C62.776 231.648 61.858 232.644 61.858 234.636V240H60.22V230.136H61.858V231.738ZM70.4268 240.162C69.6708 240.162 68.9928 240.036 68.3928 239.784C67.7928 239.52 67.3188 239.16 66.9708 238.704C66.6228 238.236 66.4308 237.702 66.3948 237.102H68.0868C68.1348 237.594 68.3628 237.996 68.7708 238.308C69.1908 238.62 69.7368 238.776 70.4088 238.776C71.0328 238.776 71.5248 238.638 71.8848 238.362C72.2448 238.086 72.4248 237.738 72.4248 237.318C72.4248 236.886 72.2328 236.568 71.8488 236.364C71.4648 236.148 70.8708 235.938 70.0668 235.734C69.3348 235.542 68.7348 235.35 68.2668 235.158C67.8108 234.954 67.4148 234.66 67.0788 234.276C66.7548 233.88 66.5928 233.364 66.5928 232.728C66.5928 232.224 66.7428 231.762 67.0428 231.342C67.3428 230.922 67.7688 230.592 68.3208 230.352C68.8728 230.1 69.5028 229.974 70.2108 229.974C71.3028 229.974 72.1848 230.25 72.8568 230.802C73.5288 231.354 73.8888 232.11 73.9368 233.07H72.2988C72.2628 232.554 72.0528 232.14 71.6688 231.828C71.2968 231.516 70.7928 231.36 70.1568 231.36C69.5688 231.36 69.1008 231.486 68.7528 231.738C68.4048 231.99 68.2308 232.32 68.2308 232.728C68.2308 233.052 68.3328 233.322 68.5368 233.538C68.7528 233.742 69.0168 233.91 69.3288 234.042C69.6528 234.162 70.0968 234.3 70.6608 234.456C71.3688 234.648 71.9448 234.84 72.3888 235.032C72.8328 235.212 73.2108 235.488 73.5228 235.86C73.8468 236.232 74.0148 236.718 74.0268 237.318C74.0268 237.858 73.8768 238.344 73.5768 238.776C73.2768 239.208 72.8508 239.55 72.2988 239.802C71.7588 240.042 71.1348 240.162 70.4268 240.162ZM85.3391 234.69C85.3391 235.002 85.3211 235.332 85.2851 235.68H77.4011C77.4611 236.652 77.7911 237.414 78.3911 237.966C79.0031 238.506 79.7411 238.776 80.6051 238.776C81.3131 238.776 81.9011 238.614 82.3691 238.29C82.8491 237.954 83.1851 237.51 83.3771 236.958H85.1411C84.8771 237.906 84.3491 238.68 83.5571 239.28C82.7651 239.868 81.7811 240.162 80.6051 240.162C79.6691 240.162 78.8291 239.952 78.0851 239.532C77.3531 239.112 76.7771 238.518 76.3571 237.75C75.9371 236.97 75.7271 236.07 75.7271 235.05C75.7271 234.03 75.9311 233.136 76.3391 232.368C76.7471 231.6 77.3171 231.012 78.0491 230.604C78.7931 230.184 79.6451 229.974 80.6051 229.974C81.5411 229.974 82.3691 230.178 83.0891 230.586C83.8091 230.994 84.3611 231.558 84.7451 232.278C85.1411 232.986 85.3391 233.79 85.3391 234.69ZM83.6471 234.348C83.6471 233.724 83.5091 233.19 83.2331 232.746C82.9571 232.29 82.5791 231.948 82.0991 231.72C81.6311 231.48 81.1091 231.36 80.5331 231.36C79.7051 231.36 78.9971 231.624 78.4091 232.152C77.8331 232.68 77.5031 233.412 77.4191 234.348H83.6471ZM100.796 230.136L94.8561 244.644H93.1641L95.1081 239.892L91.1301 230.136H92.9481L96.0441 238.128L99.1041 230.136H100.796ZM106.745 240.162C105.821 240.162 104.981 239.952 104.225 239.532C103.481 239.112 102.893 238.518 102.461 237.75C102.041 236.97 101.831 236.07 101.831 235.05C101.831 234.042 102.047 233.154 102.479 232.386C102.923 231.606 103.523 231.012 104.279 230.604C105.035 230.184 105.881 229.974 106.817 229.974C107.753 229.974 108.599 230.184 109.355 230.604C110.111 231.012 110.705 231.6 111.137 232.368C111.581 233.136 111.803 234.03 111.803 235.05C111.803 236.07 111.575 236.97 111.119 237.75C110.675 238.518 110.069 239.112 109.301 239.532C108.533 239.952 107.681 240.162 106.745 240.162ZM106.745 238.722C107.333 238.722 107.885 238.584 108.401 238.308C108.917 238.032 109.331 237.618 109.643 237.066C109.967 236.514 110.129 235.842 110.129 235.05C110.129 234.258 109.973 233.586 109.661 233.034C109.349 232.482 108.941 232.074 108.437 231.81C107.933 231.534 107.387 231.396 106.799 231.396C106.199 231.396 105.647 231.534 105.143 231.81C104.651 232.074 104.255 232.482 103.955 233.034C103.655 233.586 103.505 234.258 103.505 235.05C103.505 235.854 103.649 236.532 103.937 237.084C104.237 237.636 104.633 238.05 105.125 238.326C105.617 238.59 106.157 238.722 106.745 238.722ZM122.704 230.136V240H121.066V238.542C120.754 239.046 120.316 239.442 119.752 239.73C119.2 240.006 118.588 240.144 117.916 240.144C117.148 240.144 116.458 239.988 115.846 239.676C115.234 239.352 114.748 238.872 114.388 238.236C114.04 237.6 113.866 236.826 113.866 235.914V230.136H115.486V235.698C115.486 236.67 115.732 237.42 116.224 237.948C116.716 238.464 117.388 238.722 118.24 238.722C119.116 238.722 119.806 238.452 120.31 237.912C120.814 237.372 121.066 236.586 121.066 235.554V230.136H122.704ZM143.409 230.136L140.331 240H138.639L136.263 232.17L133.887 240H132.195L129.099 230.136H130.773L133.041 238.416L135.489 230.136H137.163L139.557 238.434L141.789 230.136H143.409ZM145.88 228.534C145.568 228.534 145.304 228.426 145.088 228.21C144.872 227.994 144.764 227.73 144.764 227.418C144.764 227.106 144.872 226.842 145.088 226.626C145.304 226.41 145.568 226.302 145.88 226.302C146.18 226.302 146.432 226.41 146.636 226.626C146.852 226.842 146.96 227.106 146.96 227.418C146.96 227.73 146.852 227.994 146.636 228.21C146.432 228.426 146.18 228.534 145.88 228.534ZM146.672 230.136V240H145.034V230.136H146.672ZM151.102 226.68V240H149.464V226.68H151.102ZM155.532 226.68V240H153.894V226.68H155.532ZM162.51 235.032C162.51 234.024 162.714 233.142 163.122 232.386C163.53 231.618 164.088 231.024 164.796 230.604C165.516 230.184 166.314 229.974 167.19 229.974C168.054 229.974 168.804 230.16 169.44 230.532C170.076 230.904 170.55 231.372 170.862 231.936V230.136H172.518V240H170.862V238.164C170.538 238.74 170.052 239.22 169.404 239.604C168.768 239.976 168.024 240.162 167.172 240.162C166.296 240.162 165.504 239.946 164.796 239.514C164.088 239.082 163.53 238.476 163.122 237.696C162.714 236.916 162.51 236.028 162.51 235.032ZM170.862 235.05C170.862 234.306 170.712 233.658 170.412 233.106C170.112 232.554 169.704 232.134 169.188 231.846C168.684 231.546 168.126 231.396 167.514 231.396C166.902 231.396 166.344 231.54 165.84 231.828C165.336 232.116 164.934 232.536 164.634 233.088C164.334 233.64 164.184 234.288 164.184 235.032C164.184 235.788 164.334 236.448 164.634 237.012C164.934 237.564 165.336 237.99 165.84 238.29C166.344 238.578 166.902 238.722 167.514 238.722C168.126 238.722 168.684 238.578 169.188 238.29C169.704 237.99 170.112 237.564 170.412 237.012C170.712 236.448 170.862 235.794 170.862 235.05ZM176.924 226.68V240H175.286V226.68H176.924ZM192.856 230.136L189.778 240H188.086L185.71 232.17L183.334 240H181.642L178.546 230.136H180.22L182.488 238.416L184.936 230.136H186.61L189.004 238.434L191.236 230.136H192.856ZM193.87 235.032C193.87 234.024 194.074 233.142 194.482 232.386C194.89 231.618 195.448 231.024 196.156 230.604C196.876 230.184 197.674 229.974 198.55 229.974C199.414 229.974 200.164 230.16 200.8 230.532C201.436 230.904 201.91 231.372 202.222 231.936V230.136H203.878V240H202.222V238.164C201.898 238.74 201.412 239.22 200.764 239.604C200.128 239.976 199.384 240.162 198.532 240.162C197.656 240.162 196.864 239.946 196.156 239.514C195.448 239.082 194.89 238.476 194.482 237.696C194.074 236.916 193.87 236.028 193.87 235.032ZM202.222 235.05C202.222 234.306 202.072 233.658 201.772 233.106C201.472 232.554 201.064 232.134 200.548 231.846C200.044 231.546 199.486 231.396 198.874 231.396C198.262 231.396 197.704 231.54 197.2 231.828C196.696 232.116 196.294 232.536 195.994 233.088C195.694 233.64 195.544 234.288 195.544 235.032C195.544 235.788 195.694 236.448 195.994 237.012C196.294 237.564 196.696 237.99 197.2 238.29C197.704 238.578 198.262 238.722 198.874 238.722C199.486 238.722 200.044 238.578 200.548 238.29C201.064 237.99 201.472 237.564 201.772 237.012C202.072 236.448 202.222 235.794 202.222 235.05ZM215.142 230.136L209.202 244.644H207.51L209.454 239.892L205.476 230.136H207.294L210.39 238.128L213.45 230.136H215.142ZM220.28 240.162C219.524 240.162 218.846 240.036 218.246 239.784C217.646 239.52 217.172 239.16 216.824 238.704C216.476 238.236 216.284 237.702 216.248 237.102H217.94C217.988 237.594 218.216 237.996 218.624 238.308C219.044 238.62 219.59 238.776 220.262 238.776C220.886 238.776 221.378 238.638 221.738 238.362C222.098 238.086 222.278 237.738 222.278 237.318C222.278 236.886 222.086 236.568 221.702 236.364C221.318 236.148 220.724 235.938 219.92 235.734C219.188 235.542 218.588 235.35 218.12 235.158C217.664 234.954 217.268 234.66 216.932 234.276C216.608 233.88 216.446 233.364 216.446 232.728C216.446 232.224 216.596 231.762 216.896 231.342C217.196 230.922 217.622 230.592 218.174 230.352C218.726 230.1 219.356 229.974 220.064 229.974C221.156 229.974 222.038 230.25 222.71 230.802C223.382 231.354 223.742 232.11 223.79 233.07H222.152C222.116 232.554 221.906 232.14 221.522 231.828C221.15 231.516 220.646 231.36 220.01 231.36C219.422 231.36 218.954 231.486 218.606 231.738C218.258 231.99 218.084 232.32 218.084 232.728C218.084 233.052 218.186 233.322 218.39 233.538C218.606 233.742 218.87 233.91 219.182 234.042C219.506 234.162 219.95 234.3 220.514 234.456C221.222 234.648 221.798 234.84 222.242 235.032C222.686 235.212 223.064 235.488 223.376 235.86C223.7 236.232 223.868 236.718 223.88 237.318C223.88 237.858 223.73 238.344 223.43 238.776C223.13 239.208 222.704 239.55 222.152 239.802C221.612 240.042 220.988 240.162 220.28 240.162ZM235.059 229.974C235.911 229.974 236.655 230.16 237.291 230.532C237.939 230.904 238.419 231.372 238.731 231.936V230.136H240.387V240.216C240.387 241.116 240.195 241.914 239.811 242.61C239.427 243.318 238.875 243.87 238.155 244.266C237.447 244.662 236.619 244.86 235.671 244.86C234.375 244.86 233.295 244.554 232.431 243.942C231.567 243.33 231.057 242.496 230.901 241.44H232.521C232.701 242.04 233.073 242.52 233.637 242.88C234.201 243.252 234.879 243.438 235.671 243.438C236.571 243.438 237.303 243.156 237.867 242.592C238.443 242.028 238.731 241.236 238.731 240.216V238.146C238.407 238.722 237.927 239.202 237.291 239.586C236.655 239.97 235.911 240.162 235.059 240.162C234.183 240.162 233.385 239.946 232.665 239.514C231.957 239.082 231.399 238.476 230.991 237.696C230.583 236.916 230.379 236.028 230.379 235.032C230.379 234.024 230.583 233.142 230.991 232.386C231.399 231.618 231.957 231.024 232.665 230.604C233.385 230.184 234.183 229.974 235.059 229.974ZM238.731 235.05C238.731 234.306 238.581 233.658 238.281 233.106C237.981 232.554 237.573 232.134 237.057 231.846C236.553 231.546 235.995 231.396 235.383 231.396C234.771 231.396 234.213 231.54 233.709 231.828C233.205 232.116 232.803 232.536 232.503 233.088C232.203 233.64 232.053 234.288 232.053 235.032C232.053 235.788 232.203 236.448 232.503 237.012C232.803 237.564 233.205 237.99 233.709 238.29C234.213 238.578 234.771 238.722 235.383 238.722C235.995 238.722 236.553 238.578 237.057 238.29C237.573 237.99 237.981 237.564 238.281 237.012C238.581 236.448 238.731 235.794 238.731 235.05ZM252.156 234.69C252.156 235.002 252.138 235.332 252.102 235.68H244.218C244.278 236.652 244.608 237.414 245.208 237.966C245.82 238.506 246.558 238.776 247.422 238.776C248.13 238.776 248.718 238.614 249.186 238.29C249.666 237.954 250.002 237.51 250.194 236.958H251.958C251.694 237.906 251.166 238.68 250.374 239.28C249.582 239.868 248.598 240.162 247.422 240.162C246.486 240.162 245.646 239.952 244.902 239.532C244.17 239.112 243.594 238.518 243.174 237.75C242.754 236.97 242.544 236.07 242.544 235.05C242.544 234.03 242.748 233.136 243.156 232.368C243.564 231.6 244.134 231.012 244.866 230.604C245.61 230.184 246.462 229.974 247.422 229.974C248.358 229.974 249.186 230.178 249.906 230.586C250.626 230.994 251.178 231.558 251.562 232.278C251.958 232.986 252.156 233.79 252.156 234.69ZM250.464 234.348C250.464 233.724 250.326 233.19 250.05 232.746C249.774 232.29 249.396 231.948 248.916 231.72C248.448 231.48 247.926 231.36 247.35 231.36C246.522 231.36 245.814 231.624 245.226 232.152C244.65 232.68 244.32 233.412 244.236 234.348H250.464ZM256.316 231.486V237.3C256.316 237.78 256.418 238.122 256.622 238.326C256.826 238.518 257.18 238.614 257.684 238.614H258.89V240H257.414C256.502 240 255.818 239.79 255.362 239.37C254.906 238.95 254.678 238.26 254.678 237.3V231.486H253.4V230.136H254.678V227.652H256.316V230.136H258.89V231.486H256.316ZM267.671 231.486V237.3C267.671 237.78 267.773 238.122 267.977 238.326C268.181 238.518 268.535 238.614 269.039 238.614H270.245V240H268.769C267.857 240 267.173 239.79 266.717 239.37C266.261 238.95 266.033 238.26 266.033 237.3V231.486H264.755V230.136H266.033V227.652H267.671V230.136H270.245V231.486H267.671ZM277.126 229.956C277.87 229.956 278.542 230.118 279.142 230.442C279.742 230.754 280.21 231.228 280.546 231.864C280.894 232.5 281.068 233.274 281.068 234.186V240H279.448V234.42C279.448 233.436 279.202 232.686 278.71 232.17C278.218 231.642 277.546 231.378 276.694 231.378C275.83 231.378 275.14 231.648 274.624 232.188C274.12 232.728 273.868 233.514 273.868 234.546V240H272.23V226.68H273.868V231.54C274.192 231.036 274.636 230.646 275.2 230.37C275.776 230.094 276.418 229.956 277.126 229.956ZM292.743 234.69C292.743 235.002 292.725 235.332 292.689 235.68H284.805C284.865 236.652 285.195 237.414 285.795 237.966C286.407 238.506 287.145 238.776 288.009 238.776C288.717 238.776 289.305 238.614 289.773 238.29C290.253 237.954 290.589 237.51 290.781 236.958H292.545C292.281 237.906 291.753 238.68 290.961 239.28C290.169 239.868 289.185 240.162 288.009 240.162C287.073 240.162 286.233 239.952 285.489 239.532C284.757 239.112 284.181 238.518 283.761 237.75C283.341 236.97 283.131 236.07 283.131 235.05C283.131 234.03 283.335 233.136 283.743 232.368C284.151 231.6 284.721 231.012 285.453 230.604C286.197 230.184 287.049 229.974 288.009 229.974C288.945 229.974 289.773 230.178 290.493 230.586C291.213 230.994 291.765 231.558 292.149 232.278C292.545 232.986 292.743 233.79 292.743 234.69ZM291.051 234.348C291.051 233.724 290.913 233.19 290.637 232.746C290.361 232.29 289.983 231.948 289.503 231.72C289.035 231.48 288.513 231.36 287.937 231.36C287.109 231.36 286.401 231.624 285.813 232.152C285.237 232.68 284.907 233.412 284.823 234.348H291.051ZM301.702 231.486V237.3C301.702 237.78 301.804 238.122 302.008 238.326C302.212 238.518 302.566 238.614 303.07 238.614H304.276V240H302.8C301.888 240 301.204 239.79 300.748 239.37C300.292 238.95 300.064 238.26 300.064 237.3V231.486H298.786V230.136H300.064V227.652H301.702V230.136H304.276V231.486H301.702ZM305.649 235.032C305.649 234.024 305.853 233.142 306.261 232.386C306.669 231.618 307.227 231.024 307.935 230.604C308.655 230.184 309.453 229.974 310.329 229.974C311.193 229.974 311.943 230.16 312.579 230.532C313.215 230.904 313.689 231.372 314.001 231.936V230.136H315.657V240H314.001V238.164C313.677 238.74 313.191 239.22 312.543 239.604C311.907 239.976 311.163 240.162 310.311 240.162C309.435 240.162 308.643 239.946 307.935 239.514C307.227 239.082 306.669 238.476 306.261 237.696C305.853 236.916 305.649 236.028 305.649 235.032ZM314.001 235.05C314.001 234.306 313.851 233.658 313.551 233.106C313.251 232.554 312.843 232.134 312.327 231.846C311.823 231.546 311.265 231.396 310.653 231.396C310.041 231.396 309.483 231.54 308.979 231.828C308.475 232.116 308.073 232.536 307.773 233.088C307.473 233.64 307.323 234.288 307.323 235.032C307.323 235.788 307.473 236.448 307.773 237.012C308.073 237.564 308.475 237.99 308.979 238.29C309.483 238.578 310.041 238.722 310.653 238.722C311.265 238.722 311.823 238.578 312.327 238.29C312.843 237.99 313.251 237.564 313.551 237.012C313.851 236.448 314.001 235.794 314.001 235.05ZM321.917 240.162C321.161 240.162 320.483 240.036 319.883 239.784C319.283 239.52 318.809 239.16 318.461 238.704C318.113 238.236 317.921 237.702 317.885 237.102H319.577C319.625 237.594 319.853 237.996 320.261 238.308C320.681 238.62 321.227 238.776 321.899 238.776C322.523 238.776 323.015 238.638 323.375 238.362C323.735 238.086 323.915 237.738 323.915 237.318C323.915 236.886 323.723 236.568 323.339 236.364C322.955 236.148 322.361 235.938 321.557 235.734C320.825 235.542 320.225 235.35 319.757 235.158C319.301 234.954 318.905 234.66 318.569 234.276C318.245 233.88 318.083 233.364 318.083 232.728C318.083 232.224 318.233 231.762 318.533 231.342C318.833 230.922 319.259 230.592 319.811 230.352C320.363 230.1 320.993 229.974 321.701 229.974C322.793 229.974 323.675 230.25 324.347 230.802C325.019 231.354 325.379 232.11 325.427 233.07H323.789C323.753 232.554 323.543 232.14 323.159 231.828C322.787 231.516 322.283 231.36 321.647 231.36C321.059 231.36 320.591 231.486 320.243 231.738C319.895 231.99 319.721 232.32 319.721 232.728C319.721 233.052 319.823 233.322 320.027 233.538C320.243 233.742 320.507 233.91 320.819 234.042C321.143 234.162 321.587 234.3 322.151 234.456C322.859 234.648 323.435 234.84 323.879 235.032C324.323 235.212 324.701 235.488 325.013 235.86C325.337 236.232 325.505 236.718 325.517 237.318C325.517 237.858 325.367 238.344 325.067 238.776C324.767 239.208 324.341 239.55 323.789 239.802C323.249 240.042 322.625 240.162 321.917 240.162ZM333.337 240L329.467 235.644V240H327.829V226.68H329.467V234.51L333.265 230.136H335.551L330.907 235.05L335.569 240H333.337ZM340.585 240.162C339.829 240.162 339.151 240.036 338.551 239.784C337.951 239.52 337.477 239.16 337.129 238.704C336.781 238.236 336.589 237.702 336.553 237.102H338.245C338.293 237.594 338.521 237.996 338.929 238.308C339.349 238.62 339.895 238.776 340.567 238.776C341.191 238.776 341.683 238.638 342.043 238.362C342.403 238.086 342.583 237.738 342.583 237.318C342.583 236.886 342.391 236.568 342.007 236.364C341.623 236.148 341.029 235.938 340.225 235.734C339.493 235.542 338.893 235.35 338.425 235.158C337.969 234.954 337.573 234.66 337.237 234.276C336.913 233.88 336.751 233.364 336.751 232.728C336.751 232.224 336.901 231.762 337.201 231.342C337.501 230.922 337.927 230.592 338.479 230.352C339.031 230.1 339.661 229.974 340.369 229.974C341.461 229.974 342.343 230.25 343.015 230.802C343.687 231.354 344.047 232.11 344.095 233.07H342.457C342.421 232.554 342.211 232.14 341.827 231.828C341.455 231.516 340.951 231.36 340.315 231.36C339.727 231.36 339.259 231.486 338.911 231.738C338.563 231.99 338.389 232.32 338.389 232.728C338.389 233.052 338.491 233.322 338.695 233.538C338.911 233.742 339.175 233.91 339.487 234.042C339.811 234.162 340.255 234.3 340.819 234.456C341.527 234.648 342.103 234.84 342.547 235.032C342.991 235.212 343.369 235.488 343.681 235.86C344.005 236.232 344.173 236.718 344.185 237.318C344.185 237.858 344.035 238.344 343.735 238.776C343.435 239.208 343.009 239.55 342.457 239.802C341.917 240.042 341.293 240.162 340.585 240.162ZM350.684 235.032C350.684 234.024 350.888 233.142 351.296 232.386C351.704 231.618 352.262 231.024 352.97 230.604C353.69 230.184 354.488 229.974 355.364 229.974C356.228 229.974 356.978 230.16 357.614 230.532C358.25 230.904 358.724 231.372 359.036 231.936V230.136H360.692V240H359.036V238.164C358.712 238.74 358.226 239.22 357.578 239.604C356.942 239.976 356.198 240.162 355.346 240.162C354.47 240.162 353.678 239.946 352.97 239.514C352.262 239.082 351.704 238.476 351.296 237.696C350.888 236.916 350.684 236.028 350.684 235.032ZM359.036 235.05C359.036 234.306 358.886 233.658 358.586 233.106C358.286 232.554 357.878 232.134 357.362 231.846C356.858 231.546 356.3 231.396 355.688 231.396C355.076 231.396 354.518 231.54 354.014 231.828C353.51 232.116 353.108 232.536 352.808 233.088C352.508 233.64 352.358 234.288 352.358 235.032C352.358 235.788 352.508 236.448 352.808 237.012C353.108 237.564 353.51 237.99 354.014 238.29C354.518 238.578 355.076 238.722 355.688 238.722C356.3 238.722 356.858 238.578 357.362 238.29C357.878 237.99 358.286 237.564 358.586 237.012C358.886 236.448 359.036 235.794 359.036 235.05ZM368.266 229.956C369.466 229.956 370.438 230.322 371.182 231.054C371.926 231.774 372.298 232.818 372.298 234.186V240H370.678V234.42C370.678 233.436 370.432 232.686 369.94 232.17C369.448 231.642 368.776 231.378 367.924 231.378C367.06 231.378 366.37 231.648 365.854 232.188C365.35 232.728 365.098 233.514 365.098 234.546V240H363.46V230.136H365.098V231.54C365.422 231.036 365.86 230.646 366.412 230.37C366.976 230.094 367.594 229.956 368.266 229.956ZM374.362 235.032C374.362 234.024 374.566 233.142 374.974 232.386C375.382 231.618 375.94 231.024 376.648 230.604C377.368 230.184 378.172 229.974 379.06 229.974C379.828 229.974 380.542 230.154 381.202 230.514C381.862 230.862 382.366 231.324 382.714 231.9V226.68H384.37V240H382.714V238.146C382.39 238.734 381.91 239.22 381.274 239.604C380.638 239.976 379.894 240.162 379.042 240.162C378.166 240.162 377.368 239.946 376.648 239.514C375.94 239.082 375.382 238.476 374.974 237.696C374.566 236.916 374.362 236.028 374.362 235.032ZM382.714 235.05C382.714 234.306 382.564 233.658 382.264 233.106C381.964 232.554 381.556 232.134 381.04 231.846C380.536 231.546 379.978 231.396 379.366 231.396C378.754 231.396 378.196 231.54 377.692 231.828C377.188 232.116 376.786 232.536 376.486 233.088C376.186 233.64 376.036 234.288 376.036 235.032C376.036 235.788 376.186 236.448 376.486 237.012C376.786 237.564 377.188 237.99 377.692 238.29C378.196 238.578 378.754 238.722 379.366 238.722C379.978 238.722 380.536 238.578 381.04 238.29C381.556 237.99 381.964 237.564 382.264 237.012C382.564 236.448 382.714 235.794 382.714 235.05ZM4.878 276.162C4.122 276.162 3.444 276.036 2.844 275.784C2.244 275.52 1.77 275.16 1.422 274.704C1.074 274.236 0.882 273.702 0.846 273.102H2.538C2.586 273.594 2.814 273.996 3.222 274.308C3.642 274.62 4.188 274.776 4.86 274.776C5.484 274.776 5.976 274.638 6.336 274.362C6.696 274.086 6.876 273.738 6.876 273.318C6.876 272.886 6.684 272.568 6.3 272.364C5.916 272.148 5.322 271.938 4.518 271.734C3.786 271.542 3.186 271.35 2.718 271.158C2.262 270.954 1.866 270.66 1.53 270.276C1.206 269.88 1.044 269.364 1.044 268.728C1.044 268.224 1.194 267.762 1.494 267.342C1.794 266.922 2.22 266.592 2.772 266.352C3.324 266.1 3.954 265.974 4.662 265.974C5.754 265.974 6.636 266.25 7.308 266.802C7.98 267.354 8.34 268.11 8.388 269.07H6.75C6.714 268.554 6.504 268.14 6.12 267.828C5.748 267.516 5.244 267.36 4.608 267.36C4.02 267.36 3.552 267.486 3.204 267.738C2.856 267.99 2.682 268.32 2.682 268.728C2.682 269.052 2.784 269.322 2.988 269.538C3.204 269.742 3.468 269.91 3.78 270.042C4.104 270.162 4.548 270.3 5.112 270.456C5.82 270.648 6.396 270.84 6.84 271.032C7.284 271.212 7.662 271.488 7.974 271.86C8.298 272.232 8.466 272.718 8.478 273.318C8.478 273.858 8.328 274.344 8.028 274.776C7.728 275.208 7.302 275.55 6.75 275.802C6.21 276.042 5.586 276.162 4.878 276.162ZM10.1783 271.05C10.1783 270.03 10.3823 269.142 10.7903 268.386C11.1983 267.618 11.7623 267.024 12.4823 266.604C13.2143 266.184 14.0483 265.974 14.9843 265.974C16.1963 265.974 17.1923 266.268 17.9723 266.856C18.7643 267.444 19.2863 268.26 19.5383 269.304H17.7743C17.6063 268.704 17.2763 268.23 16.7843 267.882C16.3043 267.534 15.7043 267.36 14.9843 267.36C14.0483 267.36 13.2923 267.684 12.7163 268.332C12.1403 268.968 11.8523 269.874 11.8523 271.05C11.8523 272.238 12.1403 273.156 12.7163 273.804C13.2923 274.452 14.0483 274.776 14.9843 274.776C15.7043 274.776 16.3043 274.608 16.7843 274.272C17.2643 273.936 17.5943 273.456 17.7743 272.832H19.5383C19.2743 273.84 18.7463 274.65 17.9543 275.262C17.1623 275.862 16.1723 276.162 14.9843 276.162C14.0483 276.162 13.2143 275.952 12.4823 275.532C11.7623 275.112 11.1983 274.518 10.7903 273.75C10.3823 272.982 10.1783 272.082 10.1783 271.05ZM26.6199 265.956C27.3639 265.956 28.0359 266.118 28.6359 266.442C29.2359 266.754 29.7039 267.228 30.0399 267.864C30.3879 268.5 30.5619 269.274 30.5619 270.186V276H28.9419V270.42C28.9419 269.436 28.6959 268.686 28.2039 268.17C27.7119 267.642 27.0399 267.378 26.1879 267.378C25.3239 267.378 24.6339 267.648 24.1179 268.188C23.6139 268.728 23.3619 269.514 23.3619 270.546V276H21.7239V262.68H23.3619V267.54C23.6859 267.036 24.1299 266.646 24.6939 266.37C25.2699 266.094 25.9119 265.956 26.6199 265.956ZM42.2376 270.69C42.2376 271.002 42.2196 271.332 42.1836 271.68H34.2996C34.3596 272.652 34.6896 273.414 35.2896 273.966C35.9016 274.506 36.6396 274.776 37.5036 274.776C38.2116 274.776 38.7996 274.614 39.2676 274.29C39.7476 273.954 40.0836 273.51 40.2756 272.958H42.0396C41.7756 273.906 41.2476 274.68 40.4556 275.28C39.6636 275.868 38.6796 276.162 37.5036 276.162C36.5676 276.162 35.7276 275.952 34.9836 275.532C34.2516 275.112 33.6756 274.518 33.2556 273.75C32.8356 272.97 32.6256 272.07 32.6256 271.05C32.6256 270.03 32.8296 269.136 33.2376 268.368C33.6456 267.6 34.2156 267.012 34.9476 266.604C35.6916 266.184 36.5436 265.974 37.5036 265.974C38.4396 265.974 39.2676 266.178 39.9876 266.586C40.7076 266.994 41.2596 267.558 41.6436 268.278C42.0396 268.986 42.2376 269.79 42.2376 270.69ZM40.5456 270.348C40.5456 269.724 40.4076 269.19 40.1316 268.746C39.8556 268.29 39.4776 267.948 38.9976 267.72C38.5296 267.48 38.0076 267.36 37.4316 267.36C36.6036 267.36 35.8956 267.624 35.3076 268.152C34.7316 268.68 34.4016 269.412 34.3176 270.348H40.5456ZM43.7877 271.032C43.7877 270.024 43.9917 269.142 44.3997 268.386C44.8077 267.618 45.3657 267.024 46.0737 266.604C46.7937 266.184 47.5977 265.974 48.4857 265.974C49.2537 265.974 49.9677 266.154 50.6277 266.514C51.2877 266.862 51.7917 267.324 52.1397 267.9V262.68H53.7957V276H52.1397V274.146C51.8157 274.734 51.3357 275.22 50.6997 275.604C50.0637 275.976 49.3197 276.162 48.4677 276.162C47.5917 276.162 46.7937 275.946 46.0737 275.514C45.3657 275.082 44.8077 274.476 44.3997 273.696C43.9917 272.916 43.7877 272.028 43.7877 271.032ZM52.1397 271.05C52.1397 270.306 51.9897 269.658 51.6897 269.106C51.3897 268.554 50.9817 268.134 50.4657 267.846C49.9617 267.546 49.4037 267.396 48.7917 267.396C48.1797 267.396 47.6217 267.54 47.1177 267.828C46.6137 268.116 46.2117 268.536 45.9117 269.088C45.6117 269.64 45.4617 270.288 45.4617 271.032C45.4617 271.788 45.6117 272.448 45.9117 273.012C46.2117 273.564 46.6137 273.99 47.1177 274.29C47.6217 274.578 48.1797 274.722 48.7917 274.722C49.4037 274.722 49.9617 274.578 50.4657 274.29C50.9817 273.99 51.3897 273.564 51.6897 273.012C51.9897 272.448 52.1397 271.794 52.1397 271.05ZM65.3117 266.136V276H63.6737V274.542C63.3617 275.046 62.9237 275.442 62.3597 275.73C61.8077 276.006 61.1957 276.144 60.5237 276.144C59.7557 276.144 59.0657 275.988 58.4537 275.676C57.8417 275.352 57.3557 274.872 56.9957 274.236C56.6477 273.6 56.4737 272.826 56.4737 271.914V266.136H58.0937V271.698C58.0937 272.67 58.3397 273.42 58.8317 273.948C59.3237 274.464 59.9957 274.722 60.8477 274.722C61.7237 274.722 62.4137 274.452 62.9177 273.912C63.4217 273.372 63.6737 272.586 63.6737 271.554V266.136H65.3117ZM69.7154 262.68V276H68.0774V262.68H69.7154ZM81.5071 270.69C81.5071 271.002 81.4891 271.332 81.4531 271.68H73.5691C73.6291 272.652 73.9591 273.414 74.5591 273.966C75.1711 274.506 75.9091 274.776 76.7731 274.776C77.4811 274.776 78.0691 274.614 78.5371 274.29C79.0171 273.954 79.3531 273.51 79.5451 272.958H81.3091C81.0451 273.906 80.5171 274.68 79.7251 275.28C78.9331 275.868 77.9491 276.162 76.7731 276.162C75.8371 276.162 74.9971 275.952 74.2531 275.532C73.5211 275.112 72.9451 274.518 72.5251 273.75C72.1051 272.97 71.8951 272.07 71.8951 271.05C71.8951 270.03 72.0991 269.136 72.5071 268.368C72.9151 267.6 73.4851 267.012 74.2171 266.604C74.9611 266.184 75.8131 265.974 76.7731 265.974C77.7091 265.974 78.5371 266.178 79.2571 266.586C79.9771 266.994 80.5291 267.558 80.9131 268.278C81.3091 268.986 81.5071 269.79 81.5071 270.69ZM79.8151 270.348C79.8151 269.724 79.6771 269.19 79.4011 268.746C79.1251 268.29 78.7471 267.948 78.2671 267.72C77.7991 267.48 77.2771 267.36 76.7011 267.36C75.8731 267.36 75.1651 267.624 74.5771 268.152C74.0011 268.68 73.6711 269.412 73.5871 270.348H79.8151ZM93.274 265.956C94.474 265.956 95.446 266.322 96.19 267.054C96.934 267.774 97.306 268.818 97.306 270.186V276H95.686V270.42C95.686 269.436 95.44 268.686 94.948 268.17C94.456 267.642 93.784 267.378 92.932 267.378C92.068 267.378 91.378 267.648 90.862 268.188C90.358 268.728 90.106 269.514 90.106 270.546V276H88.468V266.136H90.106V267.54C90.43 267.036 90.868 266.646 91.42 266.37C91.984 266.094 92.602 265.956 93.274 265.956ZM104.284 276.162C103.36 276.162 102.52 275.952 101.764 275.532C101.02 275.112 100.432 274.518 99.9997 273.75C99.5797 272.97 99.3697 272.07 99.3697 271.05C99.3697 270.042 99.5857 269.154 100.018 268.386C100.462 267.606 101.062 267.012 101.818 266.604C102.574 266.184 103.42 265.974 104.356 265.974C105.292 265.974 106.138 266.184 106.894 266.604C107.65 267.012 108.244 267.6 108.676 268.368C109.12 269.136 109.342 270.03 109.342 271.05C109.342 272.07 109.114 272.97 108.658 273.75C108.214 274.518 107.608 275.112 106.84 275.532C106.072 275.952 105.22 276.162 104.284 276.162ZM104.284 274.722C104.872 274.722 105.424 274.584 105.94 274.308C106.456 274.032 106.87 273.618 107.182 273.066C107.506 272.514 107.668 271.842 107.668 271.05C107.668 270.258 107.512 269.586 107.2 269.034C106.888 268.482 106.48 268.074 105.976 267.81C105.472 267.534 104.926 267.396 104.338 267.396C103.738 267.396 103.186 267.534 102.682 267.81C102.19 268.074 101.794 268.482 101.494 269.034C101.194 269.586 101.044 270.258 101.044 271.05C101.044 271.854 101.188 272.532 101.476 273.084C101.776 273.636 102.172 274.05 102.664 274.326C103.156 274.59 103.696 274.722 104.284 274.722ZM113.493 267.486V273.3C113.493 273.78 113.595 274.122 113.799 274.326C114.003 274.518 114.357 274.614 114.861 274.614H116.067V276H114.591C113.679 276 112.995 275.79 112.539 275.37C112.083 274.95 111.855 274.26 111.855 273.3V267.486H110.577V266.136H111.855V263.652H113.493V266.136H116.067V267.486H113.493ZM118.898 264.534C118.586 264.534 118.322 264.426 118.106 264.21C117.89 263.994 117.782 263.73 117.782 263.418C117.782 263.106 117.89 262.842 118.106 262.626C118.322 262.41 118.586 262.302 118.898 262.302C119.198 262.302 119.45 262.41 119.654 262.626C119.87 262.842 119.978 263.106 119.978 263.418C119.978 263.73 119.87 263.994 119.654 264.21C119.45 264.426 119.198 264.534 118.898 264.534ZM119.69 266.136V276H118.052V266.136H119.69ZM126.496 267.486H124.426V276H122.788V267.486H121.51V266.136H122.788V265.434C122.788 264.33 123.07 263.526 123.634 263.022C124.21 262.506 125.128 262.248 126.388 262.248V263.616C125.668 263.616 125.158 263.76 124.858 264.048C124.57 264.324 124.426 264.786 124.426 265.434V266.136H126.496V267.486ZM129.252 264.534C128.94 264.534 128.676 264.426 128.46 264.21C128.244 263.994 128.136 263.73 128.136 263.418C128.136 263.106 128.244 262.842 128.46 262.626C128.676 262.41 128.94 262.302 129.252 262.302C129.552 262.302 129.804 262.41 130.008 262.626C130.224 262.842 130.332 263.106 130.332 263.418C130.332 263.73 130.224 263.994 130.008 264.21C129.804 264.426 129.552 264.534 129.252 264.534ZM130.044 266.136V276H128.406V266.136H130.044ZM132.223 271.05C132.223 270.03 132.427 269.142 132.835 268.386C133.243 267.618 133.807 267.024 134.527 266.604C135.259 266.184 136.093 265.974 137.029 265.974C138.241 265.974 139.237 266.268 140.017 266.856C140.809 267.444 141.331 268.26 141.583 269.304H139.819C139.651 268.704 139.321 268.23 138.829 267.882C138.349 267.534 137.749 267.36 137.029 267.36C136.093 267.36 135.337 267.684 134.761 268.332C134.185 268.968 133.897 269.874 133.897 271.05C133.897 272.238 134.185 273.156 134.761 273.804C135.337 274.452 136.093 274.776 137.029 274.776C137.749 274.776 138.349 274.608 138.829 274.272C139.309 273.936 139.639 273.456 139.819 272.832H141.583C141.319 273.84 140.791 274.65 139.999 275.262C139.207 275.862 138.217 276.162 137.029 276.162C136.093 276.162 135.259 275.952 134.527 275.532C133.807 275.112 133.243 274.518 132.835 273.75C132.427 272.982 132.223 272.082 132.223 271.05ZM143.157 271.032C143.157 270.024 143.361 269.142 143.769 268.386C144.177 267.618 144.735 267.024 145.443 266.604C146.163 266.184 146.961 265.974 147.837 265.974C148.701 265.974 149.451 266.16 150.087 266.532C150.723 266.904 151.197 267.372 151.509 267.936V266.136H153.165V276H151.509V274.164C151.185 274.74 150.699 275.22 150.051 275.604C149.415 275.976 148.671 276.162 147.819 276.162C146.943 276.162 146.151 275.946 145.443 275.514C144.735 275.082 144.177 274.476 143.769 273.696C143.361 272.916 143.157 272.028 143.157 271.032ZM151.509 271.05C151.509 270.306 151.359 269.658 151.059 269.106C150.759 268.554 150.351 268.134 149.835 267.846C149.331 267.546 148.773 267.396 148.161 267.396C147.549 267.396 146.991 267.54 146.487 267.828C145.983 268.116 145.581 268.536 145.281 269.088C144.981 269.64 144.831 270.288 144.831 271.032C144.831 271.788 144.981 272.448 145.281 273.012C145.581 273.564 145.983 273.99 146.487 274.29C146.991 274.578 147.549 274.722 148.161 274.722C148.773 274.722 149.331 274.578 149.835 274.29C150.351 273.99 150.759 273.564 151.059 273.012C151.359 272.448 151.509 271.794 151.509 271.05ZM157.931 267.486V273.3C157.931 273.78 158.033 274.122 158.237 274.326C158.441 274.518 158.795 274.614 159.299 274.614H160.505V276H159.029C158.117 276 157.433 275.79 156.977 275.37C156.521 274.95 156.293 274.26 156.293 273.3V267.486H155.015V266.136H156.293V263.652H157.931V266.136H160.505V267.486H157.931ZM163.336 264.534C163.024 264.534 162.76 264.426 162.544 264.21C162.328 263.994 162.22 263.73 162.22 263.418C162.22 263.106 162.328 262.842 162.544 262.626C162.76 262.41 163.024 262.302 163.336 262.302C163.636 262.302 163.888 262.41 164.092 262.626C164.308 262.842 164.416 263.106 164.416 263.418C164.416 263.73 164.308 263.994 164.092 264.21C163.888 264.426 163.636 264.534 163.336 264.534ZM164.128 266.136V276H162.49V266.136H164.128ZM171.221 276.162C170.297 276.162 169.457 275.952 168.701 275.532C167.957 275.112 167.369 274.518 166.937 273.75C166.517 272.97 166.307 272.07 166.307 271.05C166.307 270.042 166.523 269.154 166.955 268.386C167.399 267.606 167.999 267.012 168.755 266.604C169.511 266.184 170.357 265.974 171.293 265.974C172.229 265.974 173.075 266.184 173.831 266.604C174.587 267.012 175.181 267.6 175.613 268.368C176.057 269.136 176.279 270.03 176.279 271.05C176.279 272.07 176.051 272.97 175.595 273.75C175.151 274.518 174.545 275.112 173.777 275.532C173.009 275.952 172.157 276.162 171.221 276.162ZM171.221 274.722C171.809 274.722 172.361 274.584 172.877 274.308C173.393 274.032 173.807 273.618 174.119 273.066C174.443 272.514 174.605 271.842 174.605 271.05C174.605 270.258 174.449 269.586 174.137 269.034C173.825 268.482 173.417 268.074 172.913 267.81C172.409 267.534 171.863 267.396 171.275 267.396C170.675 267.396 170.123 267.534 169.619 267.81C169.127 268.074 168.731 268.482 168.431 269.034C168.131 269.586 167.981 270.258 167.981 271.05C167.981 271.854 168.125 272.532 168.413 273.084C168.713 273.636 169.109 274.05 169.601 274.326C170.093 274.59 170.633 274.722 171.221 274.722ZM183.239 265.956C184.439 265.956 185.411 266.322 186.155 267.054C186.899 267.774 187.271 268.818 187.271 270.186V276H185.651V270.42C185.651 269.436 185.405 268.686 184.913 268.17C184.421 267.642 183.749 267.378 182.897 267.378C182.033 267.378 181.343 267.648 180.827 268.188C180.323 268.728 180.071 269.514 180.071 270.546V276H178.433V266.136H180.071V267.54C180.395 267.036 180.833 266.646 181.385 266.37C181.949 266.094 182.567 265.956 183.239 265.956ZM193.439 276.162C192.683 276.162 192.005 276.036 191.405 275.784C190.805 275.52 190.331 275.16 189.983 274.704C189.635 274.236 189.443 273.702 189.407 273.102H191.099C191.147 273.594 191.375 273.996 191.783 274.308C192.203 274.62 192.749 274.776 193.421 274.776C194.045 274.776 194.537 274.638 194.897 274.362C195.257 274.086 195.437 273.738 195.437 273.318C195.437 272.886 195.245 272.568 194.861 272.364C194.477 272.148 193.883 271.938 193.079 271.734C192.347 271.542 191.747 271.35 191.279 271.158C190.823 270.954 190.427 270.66 190.091 270.276C189.767 269.88 189.605 269.364 189.605 268.728C189.605 268.224 189.755 267.762 190.055 267.342C190.355 266.922 190.781 266.592 191.333 266.352C191.885 266.1 192.515 265.974 193.223 265.974C194.315 265.974 195.197 266.25 195.869 266.802C196.541 267.354 196.901 268.11 196.949 269.07H195.311C195.275 268.554 195.065 268.14 194.681 267.828C194.309 267.516 193.805 267.36 193.169 267.36C192.581 267.36 192.113 267.486 191.765 267.738C191.417 267.99 191.243 268.32 191.243 268.728C191.243 269.052 191.345 269.322 191.549 269.538C191.765 269.742 192.029 269.91 192.341 270.042C192.665 270.162 193.109 270.3 193.673 270.456C194.381 270.648 194.957 270.84 195.401 271.032C195.845 271.212 196.223 271.488 196.535 271.86C196.859 272.232 197.027 272.718 197.039 273.318C197.039 273.858 196.889 274.344 196.589 274.776C196.289 275.208 195.863 275.55 195.311 275.802C194.771 276.042 194.147 276.162 193.439 276.162Z" fill="#747474"/>
<path opacity="0.5" d="M50 30C59.94 30 68 38.086 68 48.062V66H32V48.062C32 38.086 40.06 30 50 30ZM45 68H55C55 69.3261 54.4732 70.5979 53.5355 71.5355C52.5979 72.4732 51.3261 73 50 73C48.6739 73 47.4021 72.4732 46.4645 71.5355C45.5268 70.5979 45 69.3261 45 68Z" fill="#2D76F9"/>
<ellipse cx="64" cy="36" rx="10" ry="10" fill="#2D76F9"/>
</svg>
